<svg width="38" height="34" viewBox="0 0 38 34" fill="none" xmlns="http://www.w3.org/2000/svg">
<path d="M34 17C34 26.3888 26.3888 34 17 34C7.61116 34 0 26.3888 0 17C0 7.61116 7.61116 0 17 0C26.3888 0 34 7.61116 34 17Z" fill="#303742"/>
<path fill-rule="evenodd" clip-rule="evenodd" d="M17.8088 4.92871C10.9247 5.16774 5.42017 10.6192 5.42017 17.3091C5.42017 23.9991 10.9247 29.4506 17.8088 29.6896V25.3915C13.3902 25.1636 9.88013 21.6322 9.88013 17.3093C9.88013 12.9863 13.3902 9.45491 17.8088 9.22707V4.92871Z" fill="white"/>
<path fill-rule="evenodd" clip-rule="evenodd" d="M17.8087 12.1958V22.4371C17.8086 22.4371 17.8084 22.4371 17.8082 22.4371C14.9802 22.4371 12.6876 20.1445 12.6876 17.3164C12.6876 14.4884 14.9802 12.1958 17.8082 12.1958C17.8084 12.1958 17.8086 12.1958 17.8087 12.1958Z" fill="white"/>
<path fill-rule="evenodd" clip-rule="evenodd" d="M17.8489 25.346C22.325 25.1796 25.8958 21.6259 25.8851 17.2756C25.8744 12.9253 22.2862 9.38923 17.8093 9.24488L17.8162 12.0398C20.6898 12.1808 22.9781 14.4716 22.985 17.2827C22.9919 20.0938 20.715 22.3958 17.842 22.551L17.8489 25.346Z" fill="white"/>
<mask id="mask0_1344_2598" style="mask-type:alpha" maskUnits="userSpaceOnUse" x="4" y="0" width="34" height="34">
<path d="M38 17C38 26.3888 30.3888 34 21 34C11.6112 34 4 26.3888 4 17C4 7.61116 11.6112 0 21 0C30.3888 0 38 7.61116 38 17Z" fill="#303742"/>
</mask>
<g mask="url(#mask0_1344_2598)">
<rect x="22.8653" y="22.5972" width="3.05786" height="9.24476" transform="rotate(-54.2257 22.8653 22.5972)" fill="white"/>
</g>
</svg>
