<svg width="18" height="18" viewBox="0 0 18 18" fill="none" xmlns="http://www.w3.org/2000/svg">
<path fill-rule="evenodd" clip-rule="evenodd" d="M0 0.5625C0 0.25184 0.25184 0 0.5625 0H7.73438C8.04504 0 8.29688 0.25184 8.29688 0.5625V10.2656C8.29688 10.5763 8.04504 10.8281 7.73438 10.8281H0.5625C0.25184 10.8281 0 10.5763 0 10.2656V0.5625ZM1.40625 1.40625V9.42188H6.89062V1.40625H1.40625ZM9.70312 0.5625C9.70312 0.25184 9.95496 0 10.2656 0H17.4375C17.7482 0 18 0.25184 18 0.5625V5.20312C18 5.51379 17.7482 5.76562 17.4375 5.76562H10.2656C9.95496 5.76562 9.70312 5.51379 9.70312 5.20312V0.5625ZM11.1094 1.40625V4.35938H16.5938V1.40625H11.1094ZM9.70312 7.73438C9.70312 7.42371 9.95496 7.17188 10.2656 7.17188H17.4375C17.7482 7.17188 18 7.42371 18 7.73438V17.4375C18 17.7482 17.7482 18 17.4375 18H10.2656C9.95496 18 9.70312 17.7482 9.70312 17.4375V7.73438ZM11.1094 8.57812V16.5938H16.5938V8.57812H11.1094ZM0 12.7969C0 12.4862 0.25184 12.2344 0.5625 12.2344H7.73438C8.04504 12.2344 8.29688 12.4862 8.29688 12.7969V17.4375C8.29688 17.7482 8.04504 18 7.73438 18H0.5625C0.25184 18 0 17.7482 0 17.4375V12.7969ZM1.40625 13.6406V16.5938H6.89062V13.6406H1.40625Z" fill="#418efd"/>
</svg>
