<svg width="6" height="10" viewBox="0 0 6 10" fill="none" xmlns="http://www.w3.org/2000/svg">
<path d="M0.641664 0.833295C0.486455 0.98943 0.399337 1.20064 0.399337 1.42079C0.399337 1.64095 0.486455 1.85216 0.641664 2.0083L3.59166 4.99996L0.641665 7.94996C0.486456 8.1061 0.399338 8.31731 0.399338 8.53746C0.399338 8.75762 0.486456 8.96883 0.641665 9.12496C0.719134 9.20307 0.811301 9.26506 0.912851 9.30737C1.0144 9.34968 1.12332 9.37146 1.23333 9.37146C1.34334 9.37146 1.45226 9.34968 1.55381 9.30737C1.65536 9.26506 1.74753 9.20307 1.825 9.12496L5.35833 5.59163C5.43644 5.51416 5.49843 5.42199 5.54074 5.32044C5.58305 5.21889 5.60483 5.10997 5.60483 4.99996C5.60483 4.88995 5.58305 4.78103 5.54074 4.67948C5.49843 4.57793 5.43644 4.48576 5.35833 4.40829L1.825 0.833295C1.74753 0.755188 1.65536 0.693193 1.55381 0.650886C1.45226 0.608579 1.34334 0.586796 1.23333 0.586796C1.12332 0.586796 1.0144 0.608579 0.91285 0.650886C0.811301 0.693193 0.719134 0.755188 0.641664 0.833295Z" fill="#303742"/>
</svg>
