<svg width="251" height="200" viewBox="0 0 251 200" fill="none" xmlns="http://www.w3.org/2000/svg">
<path d="M102.627 27.1112C85.6847 -5.72995 53.1822 17.086 36.2394 35.7536C33.7038 42.437 26.9036 60.782 19.9882 80.6941C11.3439 105.584 8.232 102.473 1.31658 109.733C-5.59884 116.992 14.8016 144.302 60.7892 183.02C106.777 221.738 136.859 181.983 174.548 183.02C212.237 184.057 232.983 176.106 244.739 161.587C256.496 147.068 247.505 121.832 235.749 74.1258C223.993 26.4198 182.155 16.3946 174.548 1.52964C166.941 -13.3353 144.812 84.8424 127.177 92.7934C109.543 100.744 119.57 59.9523 102.627 27.1112Z" fill="#D6D6D6"/>
<path d="M219.429 165.517H30.5478C29.2584 165.516 28.0223 165.003 27.1106 164.091C26.1989 163.18 25.686 161.943 25.6846 160.654V44.1862C25.6856 43.2416 26.0613 42.336 26.7292 41.6681C27.3972 41.0001 28.3028 40.6244 29.2474 40.6233H220.668C221.629 40.6244 222.55 41.0066 223.229 41.6861C223.909 42.3656 224.291 43.2869 224.292 44.2478V160.654C224.291 161.943 223.778 163.18 222.866 164.091C221.954 165.003 220.718 165.516 219.429 165.517Z" fill="#F2F2F2"/>
<path d="M213.321 159.378H37.2891C34.7087 159.378 32.6094 157.412 32.6094 154.995V53.5735C32.6094 51.7815 34.165 50.3235 36.0772 50.3235H214.476C216.42 50.3235 218.001 51.8055 218.001 53.6271V154.995C218.001 157.412 215.902 159.378 213.321 159.378Z" fill="white"/>
<path d="M224.224 44.7923H25.6157V42.3164C25.6176 41.0227 26.1325 39.7826 27.0476 38.8682C27.9626 37.9537 29.203 37.4395 30.4966 37.4385H219.343C220.637 37.4395 221.877 37.9537 222.792 38.8682C223.707 39.7826 224.222 41.0227 224.224 42.3164V44.7923Z" fill="#1F75CC"/>
<path d="M34.4864 42.3853C35.1836 42.3853 35.7489 41.8201 35.7489 41.1228C35.7489 40.4256 35.1836 39.8604 34.4864 39.8604C33.7891 39.8604 33.2239 40.4256 33.2239 41.1228C33.2239 41.8201 33.7891 42.3853 34.4864 42.3853Z" fill="white"/>
<path d="M39.2786 42.3853C39.9759 42.3853 40.5411 41.8201 40.5411 41.1228C40.5411 40.4256 39.9759 39.8604 39.2786 39.8604C38.5814 39.8604 38.0161 40.4256 38.0161 41.1228C38.0161 41.8201 38.5814 42.3853 39.2786 42.3853Z" fill="white"/>
<path d="M44.0701 42.3853C44.7674 42.3853 45.3326 41.8201 45.3326 41.1228C45.3326 40.4256 44.7674 39.8604 44.0701 39.8604C43.3729 39.8604 42.8076 40.4256 42.8076 41.1228C42.8076 41.8201 43.3729 42.3853 44.0701 42.3853Z" fill="white"/>
<path d="M174.952 77.6357H91.5489C88.2097 77.6357 85.5027 80.3427 85.5027 83.682V83.682C85.5027 87.0212 88.2097 89.7282 91.5489 89.7282H174.952C178.292 89.7282 180.999 87.0212 180.999 83.682C180.999 80.3427 178.292 77.6357 174.952 77.6357Z" fill="#D6D6D6"/>
<path d="M174.952 97.6449H91.5489C88.2097 97.6449 85.5027 100.352 85.5027 103.691V103.691C85.5027 107.03 88.2097 109.737 91.5489 109.737H174.952C178.292 109.737 180.999 107.03 180.999 103.691C180.999 100.352 178.292 97.6449 174.952 97.6449Z" fill="#D6D6D6"/>
<path d="M174.952 117.654H91.5489C88.2097 117.654 85.5027 120.361 85.5027 123.701V123.701C85.5027 127.04 88.2097 129.747 91.5489 129.747H174.952C178.292 129.747 180.999 127.04 180.999 123.701C180.999 120.361 178.292 117.654 174.952 117.654Z" fill="#D6D6D6"/>
<path d="M74.8915 109.881C78.3099 109.881 81.081 107.11 81.081 103.692C81.081 100.273 78.3099 97.5021 74.8915 97.5021C71.4731 97.5021 68.7019 100.273 68.7019 103.692C68.7019 107.11 71.4731 109.881 74.8915 109.881Z" fill="#D6D6D6"/>
<path d="M77.1015 103.266L75.2221 101.244C75.1799 101.199 75.1288 101.163 75.072 101.138C75.0151 101.113 74.9538 101.1 74.8918 101.1C74.8298 101.1 74.7684 101.113 74.7116 101.138C74.6548 101.163 74.6036 101.199 74.5614 101.244L72.6817 103.266C72.6553 103.294 72.6348 103.327 72.6213 103.363C72.6078 103.4 72.6016 103.438 72.603 103.477C72.6044 103.516 72.6134 103.554 72.6295 103.589C72.6456 103.624 72.6685 103.656 72.6969 103.682C72.7253 103.709 72.7586 103.729 72.7949 103.743C72.8312 103.756 72.8698 103.763 72.9085 103.761C72.9472 103.76 72.9852 103.751 73.0205 103.735C73.0557 103.718 73.0874 103.696 73.1138 103.667L74.5965 102.072V105.989C74.5965 106.067 74.6276 106.142 74.6829 106.197C74.7381 106.252 74.8131 106.283 74.8913 106.283C74.9694 106.283 75.0444 106.252 75.0997 106.197C75.155 106.142 75.186 106.067 75.186 105.989V102.071L76.6694 103.667C76.7227 103.724 76.7965 103.758 76.8745 103.761C76.9526 103.763 77.0285 103.735 77.0857 103.682C77.1429 103.629 77.1767 103.555 77.1797 103.477C77.1827 103.399 77.1546 103.323 77.1015 103.266Z" fill="white"/>
<path d="M74.8915 129.891C78.3099 129.891 81.081 127.12 81.081 123.701C81.081 120.283 78.3099 117.512 74.8915 117.512C71.4731 117.512 68.7019 120.283 68.7019 123.701C68.7019 127.12 71.4731 129.891 74.8915 129.891Z" fill="#D6D6D6"/>
<path d="M77.1019 123.275L75.2225 121.253C75.1803 121.208 75.1292 121.172 75.0723 121.147C75.0155 121.122 74.9542 121.109 74.8922 121.109C74.8302 121.109 74.7688 121.122 74.712 121.147C74.6551 121.172 74.604 121.208 74.5618 121.253L72.6821 123.275C72.6556 123.303 72.635 123.336 72.6215 123.373C72.6079 123.409 72.6016 123.448 72.603 123.486C72.6043 123.525 72.6133 123.563 72.6295 123.599C72.6456 123.634 72.6685 123.666 72.6969 123.692C72.7253 123.718 72.7586 123.739 72.795 123.752C72.8313 123.766 72.87 123.772 72.9087 123.771C72.9475 123.769 72.9856 123.76 73.0208 123.744C73.0561 123.728 73.0878 123.705 73.1141 123.676L74.5969 122.081V125.998C74.5969 126.076 74.628 126.151 74.6832 126.206C74.7385 126.262 74.8135 126.293 74.8917 126.293C74.9698 126.293 75.0448 126.262 75.1001 126.206C75.1553 126.151 75.1864 126.076 75.1864 125.998V122.08L76.6697 123.676C76.7231 123.733 76.7968 123.767 76.8749 123.77C76.9529 123.773 77.0289 123.744 77.0861 123.691C77.1433 123.638 77.1771 123.564 77.1801 123.486C77.183 123.408 77.1549 123.332 77.1019 123.275Z" fill="white"/>
<path d="M74.8915 89.8713C78.3099 89.8713 81.081 87.1001 81.081 83.6817C81.081 80.2633 78.3099 77.4922 74.8915 77.4922C71.4731 77.4922 68.7019 80.2633 68.7019 83.6817C68.7019 87.1001 71.4731 89.8713 74.8915 89.8713Z" fill="#1F75CC"/>
<path d="M77.1019 83.2557L75.2225 81.2343C75.1803 81.1889 75.1292 81.1527 75.0723 81.1279C75.0155 81.1031 74.9542 81.0903 74.8922 81.0903C74.8302 81.0903 74.7688 81.1031 74.712 81.1279C74.6551 81.1526 74.604 81.1888 74.5618 81.2342L72.6821 83.2557C72.6556 83.284 72.635 83.3173 72.6215 83.3536C72.6079 83.3899 72.6016 83.4286 72.603 83.4674C72.6043 83.5061 72.6133 83.5442 72.6295 83.5795C72.6456 83.6148 72.6685 83.6465 72.6969 83.6729C72.7253 83.6993 72.7586 83.7199 72.795 83.7334C72.8313 83.7469 72.87 83.7531 72.9087 83.7517C72.9475 83.7502 72.9856 83.7411 73.0208 83.725C73.0561 83.7088 73.0878 83.6858 73.1141 83.6573L74.5969 82.0622V85.9788C74.5969 86.057 74.628 86.132 74.6832 86.1872C74.7385 86.2425 74.8135 86.2736 74.8917 86.2736C74.9698 86.2736 75.0448 86.2425 75.1001 86.1872C75.1553 86.132 75.1864 86.057 75.1864 85.9788V82.061L76.6697 83.6573C76.7231 83.7144 76.7968 83.748 76.8749 83.7507C76.9529 83.7535 77.0289 83.7252 77.0861 83.672C77.1433 83.6188 77.1771 83.5451 77.1801 83.4671C77.183 83.389 77.1549 83.313 77.1019 83.2557Z" fill="white"/>
</svg>
