<svg width="34" height="34" viewBox="0 0 34 34" fill="none" xmlns="http://www.w3.org/2000/svg">
<path d="M17 0.333252C13.7675 0.339394 10.6065 1.28544 7.90205 3.05615C5.19763 4.82686 3.06649 7.34582 1.76824 10.3062C0.469978 13.2666 0.060627 16.5406 0.590044 19.7295C1.11946 22.9184 2.5648 25.8845 4.75 28.2666C6.31071 29.9583 8.2049 31.3085 10.3132 32.2319C12.4216 33.1554 14.6983 33.6321 17 33.6321C19.3017 33.6321 21.5784 33.1554 23.6868 32.2319C25.7951 31.3085 27.6893 29.9583 29.25 28.2666C31.4352 25.8845 32.8805 22.9184 33.41 19.7295C33.9394 16.5406 33.53 13.2666 32.2318 10.3062C30.9335 7.34582 28.8024 4.82686 26.098 3.05615C23.3935 1.28544 20.2325 0.339394 17 0.333252ZM17 30.3333C13.5474 30.328 10.2315 28.9837 7.75 26.5833C8.50341 24.7491 9.78506 23.1804 11.4321 22.0764C13.0791 20.9724 15.0172 20.3829 17 20.3829C18.9828 20.3829 20.9209 20.9724 22.5679 22.0764C24.2149 23.1804 25.4966 24.7491 26.25 26.5833C23.7685 28.9837 20.4526 30.328 17 30.3333ZM13.6667 13.6666C13.6667 13.0073 13.8622 12.3628 14.2284 11.8147C14.5947 11.2665 15.1153 10.8393 15.7244 10.587C16.3335 10.3347 17.0037 10.2687 17.6503 10.3973C18.2969 10.5259 18.8908 10.8434 19.357 11.3096C19.8232 11.7757 20.1407 12.3697 20.2693 13.0163C20.3979 13.6629 20.3319 14.3331 20.0796 14.9422C19.8273 15.5513 19.4001 16.0719 18.8519 16.4382C18.3037 16.8044 17.6593 16.9999 17 16.9999C16.1159 16.9999 15.2681 16.6487 14.643 16.0236C14.0179 15.3985 13.6667 14.5506 13.6667 13.6666ZM28.5167 23.6666C27.0276 21.1195 24.7357 19.1383 22 18.0333C22.8486 17.071 23.4015 15.8843 23.5925 14.6156C23.7834 13.3469 23.6041 12.0501 23.0763 10.8807C22.5484 9.71139 21.6943 8.71918 20.6165 8.02319C19.5387 7.32721 18.283 6.957 17 6.957C15.717 6.957 14.4613 7.32721 13.3835 8.02319C12.3057 8.71918 11.4516 9.71139 10.9237 10.8807C10.3959 12.0501 10.2166 13.3469 10.4075 14.6156C10.5985 15.8843 11.1514 17.071 12 18.0333C9.26433 19.1383 6.97245 21.1195 5.48333 23.6666C4.29657 21.6451 3.66953 19.344 3.66667 16.9999C3.66667 13.4637 5.07143 10.0723 7.57191 7.57183C10.0724 5.07134 13.4638 3.66659 17 3.66659C20.5362 3.66659 23.9276 5.07134 26.4281 7.57183C28.9286 10.0723 30.3333 13.4637 30.3333 16.9999C30.3305 19.344 29.7034 21.6451 28.5167 23.6666Z" fill="#1F75CC"/>
</svg>
