<svg width="14" height="14" viewBox="0 0 14 14" fill="none" xmlns="http://www.w3.org/2000/svg">
<path d="M12.8334 6.16671H7.83337V1.16671C7.83337 0.945694 7.74558 0.733732 7.5893 0.577452C7.43302 0.421172 7.22105 0.333374 7.00004 0.333374C6.77903 0.333374 6.56707 0.421172 6.41079 0.577452C6.2545 0.733732 6.16671 0.945694 6.16671 1.16671V6.16671H1.16671C0.945694 6.16671 0.733732 6.2545 0.577452 6.41079C0.421172 6.56707 0.333374 6.77903 0.333374 7.00004C0.333374 7.22105 0.421172 7.43302 0.577452 7.5893C0.733732 7.74558 0.945694 7.83337 1.16671 7.83337H6.16671V12.8334C6.16671 13.0544 6.2545 13.2663 6.41079 13.4226C6.56707 13.5789 6.77903 13.6667 7.00004 13.6667C7.22105 13.6667 7.43302 13.5789 7.5893 13.4226C7.74558 13.2663 7.83337 13.0544 7.83337 12.8334V7.83337H12.8334C13.0544 7.83337 13.2663 7.74558 13.4226 7.5893C13.5789 7.43302 13.6667 7.22105 13.6667 7.00004C13.6667 6.77903 13.5789 6.56707 13.4226 6.41079C13.2663 6.2545 13.0544 6.16671 12.8334 6.16671Z" fill="white"/>
</svg>
