<svg width="18" height="18" viewBox="0 0 18 18" fill="none" xmlns="http://www.w3.org/2000/svg">
<path d="M16.5582 13.0251L14.8332 11.2584C14.4622 10.9057 13.9942 10.672 13.4893 10.5874C12.9844 10.5027 12.4657 10.571 11.9999 10.7834L11.2499 10.0334C12.1337 8.8525 12.5373 7.38064 12.3795 5.9141C12.2217 4.44757 11.5142 3.09526 10.3994 2.12941C9.28465 1.16355 7.84536 0.655871 6.3713 0.70856C4.89724 0.76125 3.49787 1.3704 2.45489 2.41338C1.4119 3.45636 0.802754 4.85574 0.750064 6.32979C0.697375 7.80385 1.20506 9.24314 2.17091 10.3579C3.13676 11.4727 4.48907 12.1802 5.95561 12.338C7.42214 12.4958 8.89401 12.0922 10.0749 11.2084L10.8166 11.9501C10.5792 12.4164 10.4941 12.9455 10.5733 13.4628C10.6525 13.9801 10.8921 14.4595 11.2582 14.8334L13.0249 16.6001C13.4937 17.0682 14.1291 17.3312 14.7916 17.3312C15.4541 17.3312 16.0895 17.0682 16.5582 16.6001C16.7964 16.3672 16.9856 16.0892 17.1147 15.7822C17.2439 15.4753 17.3104 15.1456 17.3104 14.8126C17.3104 14.4795 17.2439 14.1499 17.1147 13.8429C16.9856 13.536 16.7964 13.2579 16.5582 13.0251V13.0251ZM9.49158 9.49174C8.90844 10.0734 8.16599 10.4692 7.35803 10.6291C6.55006 10.789 5.71282 10.7059 4.95208 10.3902C4.19133 10.0746 3.54121 9.5405 3.08384 8.85552C2.62646 8.17054 2.38236 7.36538 2.38236 6.54174C2.38236 5.7181 2.62646 4.91294 3.08384 4.22796C3.54121 3.54298 4.19133 3.00892 4.95208 2.69325C5.71282 2.37758 6.55006 2.29445 7.35803 2.45437C8.16599 2.61428 8.90844 3.01008 9.49158 3.59174C9.8796 3.97879 10.1875 4.43858 10.3975 4.94479C10.6076 5.451 10.7157 5.99368 10.7157 6.54174C10.7157 7.0898 10.6076 7.63248 10.3975 8.13869C10.1875 8.6449 9.8796 9.10469 9.49158 9.49174V9.49174ZM15.3832 15.3834C15.3058 15.4615 15.2136 15.5235 15.1121 15.5658C15.0105 15.6081 14.9016 15.6299 14.7916 15.6299C14.6816 15.6299 14.5726 15.6081 14.4711 15.5658C14.3695 15.5235 14.2774 15.4615 14.1999 15.3834L12.4332 13.6167C12.3551 13.5393 12.2931 13.4471 12.2508 13.3456C12.2085 13.244 12.1867 13.1351 12.1867 13.0251C12.1867 12.9151 12.2085 12.8061 12.2508 12.7046C12.2931 12.603 12.3551 12.5109 12.4332 12.4334C12.5107 12.3553 12.6029 12.2933 12.7044 12.251C12.806 12.2087 12.9149 12.1869 13.0249 12.1869C13.1349 12.1869 13.2438 12.2087 13.3454 12.251C13.4469 12.2933 13.5391 12.3553 13.6166 12.4334L15.3832 14.2001C15.4614 14.2775 15.5233 14.3697 15.5657 14.4713C15.608 14.5728 15.6297 14.6817 15.6297 14.7917C15.6297 14.9017 15.608 15.0107 15.5657 15.1122C15.5233 15.2138 15.4614 15.3059 15.3832 15.3834V15.3834Z" fill="#303742"/>
</svg>
