<svg width="18" height="18" viewBox="0 0 18 18" fill="none" xmlns="http://www.w3.org/2000/svg">
<path d="M11.2665 6.32484L7.69151 9.90817L6.31651 8.53317C6.2418 8.44594 6.14987 8.37509 6.04648 8.32507C5.94309 8.27505 5.83048 8.24694 5.71572 8.24251C5.60095 8.23807 5.48651 8.25741 5.37957 8.29931C5.27263 8.3412 5.17551 8.40475 5.0943 8.48596C5.01309 8.56717 4.94954 8.6643 4.90764 8.77124C4.86575 8.87817 4.84641 8.99262 4.85084 9.10738C4.85528 9.22215 4.88338 9.33476 4.9334 9.43815C4.98342 9.54153 5.05427 9.63347 5.14151 9.70817L7.09984 11.6748C7.17771 11.7521 7.27005 11.8132 7.37159 11.8546C7.47312 11.8961 7.58184 11.9171 7.69151 11.9165C7.91012 11.9156 8.11962 11.8288 8.27484 11.6748L12.4415 7.50817C12.5196 7.4307 12.5816 7.33853 12.6239 7.23698C12.6662 7.13544 12.688 7.02651 12.688 6.9165C12.688 6.80649 12.6662 6.69757 12.6239 6.59602C12.5816 6.49447 12.5196 6.40231 12.4415 6.32484C12.2854 6.16963 12.0742 6.08251 11.854 6.08251C11.6339 6.08251 11.4226 6.16963 11.2665 6.32484ZM8.99984 0.666504C7.35166 0.666504 5.7405 1.15525 4.37009 2.07092C2.99968 2.9866 1.93158 4.28809 1.30084 5.81081C0.670115 7.33353 0.505087 9.00908 0.82663 10.6256C1.14817 12.2421 1.94185 13.727 3.10728 14.8924C4.27272 16.0578 5.75758 16.8515 7.37409 17.173C8.9906 17.4946 10.6662 17.3296 12.1889 16.6988C13.7116 16.0681 15.0131 15 15.9288 13.6296C16.8444 12.2592 17.3332 10.648 17.3332 8.99984C17.3332 7.90549 17.1176 6.82186 16.6988 5.81081C16.28 4.79976 15.6662 3.8811 14.8924 3.10728C14.1186 2.33346 13.1999 1.71963 12.1889 1.30084C11.1778 0.882052 10.0942 0.666504 8.99984 0.666504ZM8.99984 15.6665C7.6813 15.6665 6.39237 15.2755 5.29604 14.543C4.19971 13.8104 3.34523 12.7692 2.84064 11.5511C2.33606 10.3329 2.20404 8.99244 2.46127 7.69924C2.71851 6.40603 3.35345 5.21814 4.2858 4.28579C5.21815 3.35344 6.40603 2.7185 7.69924 2.46127C8.99245 2.20403 10.3329 2.33606 11.5511 2.84064C12.7692 3.34522 13.8104 4.19971 14.543 5.29604C15.2755 6.39236 15.6665 7.6813 15.6665 8.99984C15.6665 10.7679 14.9641 12.4636 13.7139 13.7139C12.4636 14.9641 10.768 15.6665 8.99984 15.6665Z" fill="#303742"/>
</svg>
