<svg width="16" height="16" viewBox="0 0 16 16" fill="none" xmlns="http://www.w3.org/2000/svg">
<path d="M0.875053 5.64497L7.62505 9.54497C7.73907 9.6108 7.8684 9.64545 8.00005 9.64545C8.13171 9.64545 8.26104 9.6108 8.37505 9.54497L15.1251 5.64497C15.2384 5.57953 15.3327 5.48557 15.3984 5.37241C15.4642 5.25926 15.4993 5.13086 15.5001 4.99997C15.5006 4.86782 15.4662 4.73787 15.4003 4.62328C15.3345 4.5087 15.2395 4.41355 15.1251 4.34747L8.37505 0.454973C8.26104 0.389147 8.13171 0.354492 8.00005 0.354492C7.8684 0.354492 7.73907 0.389147 7.62505 0.454973L0.875053 4.34747C0.7606 4.41355 0.66564 4.5087 0.599787 4.62328C0.533935 4.73787 0.499529 4.86782 0.500053 4.99997C0.500843 5.13086 0.535873 5.25926 0.601659 5.37241C0.667446 5.48557 0.7617 5.57953 0.875053 5.64497ZM8.00005 1.99997L13.2501 4.99997L8.00005 7.99997L2.75005 4.99997L8.00005 1.99997ZM14.3751 7.37747L8.00005 11L1.62505 7.34747C1.53945 7.29788 1.44489 7.26572 1.3468 7.25283C1.24872 7.23994 1.14906 7.24659 1.05355 7.27238C0.958046 7.29818 0.868587 7.34261 0.790327 7.40312C0.712066 7.46364 0.646551 7.53903 0.597553 7.62497C0.499774 7.79719 0.474074 8.00108 0.526062 8.19217C0.57805 8.38326 0.703505 8.54603 0.875053 8.64497L7.62505 12.545C7.73907 12.6108 7.8684 12.6455 8.00005 12.6455C8.13171 12.6455 8.26104 12.6108 8.37505 12.545L15.1251 8.64497C15.2966 8.54603 15.4221 8.38326 15.474 8.19217C15.526 8.00108 15.5003 7.79719 15.4026 7.62497C15.3536 7.53903 15.288 7.46364 15.2098 7.40312C15.1315 7.34261 15.0421 7.29818 14.9466 7.27238C14.8511 7.24659 14.7514 7.23994 14.6533 7.25283C14.5552 7.26572 14.4607 7.29788 14.3751 7.34747V7.37747ZM14.3751 10.3775L8.00005 14L1.62505 10.3475C1.53945 10.2979 1.44489 10.2657 1.3468 10.2528C1.24872 10.2399 1.14906 10.2466 1.05355 10.2724C0.958046 10.2982 0.868587 10.3426 0.790327 10.4031C0.712066 10.4636 0.646551 10.539 0.597553 10.625C0.499774 10.7972 0.474074 11.0011 0.526062 11.1922C0.57805 11.3833 0.703505 11.546 0.875053 11.645L7.62505 15.545C7.73907 15.6108 7.8684 15.6455 8.00005 15.6455C8.13171 15.6455 8.26104 15.6108 8.37505 15.545L15.1251 11.645C15.2966 11.546 15.4221 11.3833 15.474 11.1922C15.526 11.0011 15.5003 10.7972 15.4026 10.625C15.3536 10.539 15.288 10.4636 15.2098 10.4031C15.1315 10.3426 15.0421 10.2982 14.9466 10.2724C14.8511 10.2466 14.7514 10.2399 14.6533 10.2528C14.5552 10.2657 14.4607 10.2979 14.3751 10.3475V10.3775Z" fill="#303742"/>
</svg>
