<svg width="17" height="18" viewBox="0 0 17 18" fill="none" xmlns="http://www.w3.org/2000/svg">
<path d="M15.4107 9.65594V7.33363C15.4107 6.57102 14.7903 5.95058 14.0277 5.95058H8.51769C8.58013 5.71848 8.61258 5.47727 8.61258 5.23097C8.61258 4.99707 8.58308 4.77 8.52806 4.55298C9.03438 5.14273 9.78451 5.51742 10.6209 5.51742C12.1421 5.51742 13.3797 4.27989 13.3797 2.75871C13.3797 1.23754 12.1421 0 10.6209 0C9.09974 0 7.8622 1.23754 7.8622 2.75871C7.8622 2.99261 7.8917 3.21971 7.94672 3.4367C7.4404 2.84695 6.69027 2.47226 5.85383 2.47226C4.33269 2.47226 3.09516 3.70983 3.09516 5.23097C3.09516 5.47724 3.12761 5.71841 3.19004 5.95058H1.38301C0.620402 5.95058 0 6.57098 0 7.33363V16.617C0 17.3796 0.620402 18 1.38301 18H14.0277C14.7903 18 15.4107 17.3796 15.4107 16.617V14.2947C16.0462 14.2204 16.5409 13.6791 16.5409 13.0241V10.9266C16.541 10.2715 16.0462 9.73016 15.4107 9.65594ZM10.6209 1.16329C11.5006 1.16329 12.2163 1.879 12.2163 2.75871C12.2163 3.63843 11.5006 4.35414 10.6209 4.35414C9.7412 4.35414 9.02549 3.63843 9.02549 2.75871C9.02549 1.879 9.7412 1.16329 10.6209 1.16329ZM5.85387 3.63551C6.73358 3.63551 7.44929 4.35122 7.44929 5.23093C7.44929 5.48462 7.39083 5.72917 7.27847 5.95055H4.42927C4.31694 5.72913 4.25844 5.48462 4.25844 5.23093C4.25848 4.35125 4.97415 3.63551 5.85387 3.63551ZM14.2475 16.617C14.2475 16.7381 14.1489 16.8367 14.0277 16.8367H1.38298C1.26179 16.8367 1.16325 16.7381 1.16325 16.617V7.33359C1.16325 7.21241 1.26183 7.1138 1.38298 7.1138C1.63375 7.1138 13.7255 7.1138 14.0277 7.1138C14.1488 7.1138 14.2475 7.21238 14.2475 7.33359V9.64695C13.8856 9.64695 10.5057 9.64695 10.1429 9.64695C9.46012 9.64695 8.90466 10.2024 8.90466 10.8851C8.90466 11.3713 8.90466 12.8857 8.90466 13.0654C8.90466 13.7482 9.46012 14.3036 10.1429 14.3036C10.5057 14.3036 13.8856 14.3036 14.2475 14.3036V16.617ZM15.3777 13.024C15.3777 13.0881 15.3256 13.1403 15.2614 13.1403C15.0778 13.1403 10.4386 13.1403 10.1843 13.1403C10.1201 13.1403 10.0679 13.0882 10.0679 13.024V10.9265C10.0679 10.8624 10.1201 10.8102 10.1843 10.8102C10.4442 10.8102 15.0812 10.8102 15.2614 10.8102C15.3255 10.8102 15.3777 10.8624 15.3777 10.9265V13.024Z" fill="#303742"/>
</svg>
