<svg width="16" height="14" viewBox="0 0 16 14" fill="none" xmlns="http://www.w3.org/2000/svg">
<path d="M13.25 2.87502H12.29L12.05 2.12502C11.8944 1.68494 11.6058 1.30414 11.2242 1.03539C10.8425 0.76663 10.3868 0.623217 9.92 0.625017H6.08C5.60866 0.625899 5.1495 0.774779 4.76732 1.05065C4.38515 1.32651 4.09926 1.71543 3.95 2.16252L3.71 2.91252H2.75C2.15326 2.91252 1.58097 3.14957 1.15901 3.57153C0.737053 3.99348 0.5 4.56578 0.5 5.16252V11.1625C0.5 11.7593 0.737053 12.3315 1.15901 12.7535C1.58097 13.1755 2.15326 13.4125 2.75 13.4125H13.25C13.8467 13.4125 14.419 13.1755 14.841 12.7535C15.2629 12.3315 15.5 11.7593 15.5 11.1625V5.16252C15.505 4.8639 15.4505 4.56728 15.3396 4.28996C15.2288 4.01263 15.0638 3.76015 14.8544 3.54723C14.645 3.33431 14.3952 3.16521 14.1198 3.0498C13.8443 2.93439 13.5487 2.87498 13.25 2.87502ZM14 11.125C14 11.3239 13.921 11.5147 13.7803 11.6553C13.6397 11.796 13.4489 11.875 13.25 11.875H2.75C2.55109 11.875 2.36032 11.796 2.21967 11.6553C2.07902 11.5147 2 11.3239 2 11.125V5.12502C2 4.9261 2.07902 4.73534 2.21967 4.59469C2.36032 4.45403 2.55109 4.37502 2.75 4.37502H4.25C4.41355 4.38355 4.5754 4.33832 4.71083 4.24623C4.84625 4.15414 4.94782 4.02025 5 3.86502L5.405 2.63502C5.45531 2.48605 5.55117 2.35667 5.67903 2.26515C5.80688 2.17363 5.96027 2.12461 6.1175 2.12502H9.9575C10.1147 2.12461 10.2681 2.17363 10.396 2.26515C10.5238 2.35667 10.6197 2.48605 10.67 2.63502L11.075 3.86502C11.1231 4.00808 11.2133 4.13328 11.3337 4.22427C11.4542 4.31526 11.5992 4.3678 11.75 4.37502H13.25C13.4489 4.37502 13.6397 4.45403 13.7803 4.59469C13.921 4.73534 14 4.9261 14 5.12502V11.125ZM8 4.37502C7.40666 4.37502 6.82664 4.55096 6.33329 4.88061C5.83994 5.21025 5.45542 5.67879 5.22836 6.22697C5.0013 6.77514 4.94189 7.37834 5.05764 7.96029C5.1734 8.54223 5.45912 9.07678 5.87868 9.49634C6.29824 9.91589 6.83279 10.2016 7.41473 10.3174C7.99667 10.4331 8.59987 10.3737 9.14805 10.1467C9.69623 9.91959 10.1648 9.53507 10.4944 9.04173C10.8241 8.54838 11 7.96836 11 7.37502C11 6.57937 10.6839 5.81631 10.1213 5.2537C9.55871 4.69109 8.79565 4.37502 8 4.37502ZM8 8.87502C7.70333 8.87502 7.41332 8.78704 7.16665 8.62222C6.91997 8.4574 6.72771 8.22313 6.61418 7.94904C6.50065 7.67495 6.47094 7.37335 6.52882 7.08238C6.5867 6.79141 6.72956 6.52414 6.93934 6.31436C7.14912 6.10458 7.41639 5.96172 7.70737 5.90384C7.99834 5.84596 8.29994 5.87567 8.57403 5.9892C8.84811 6.10273 9.08238 6.29499 9.2472 6.54166C9.41203 6.78833 9.5 7.07834 9.5 7.37502C9.5 7.77284 9.34196 8.15437 9.06066 8.43568C8.77936 8.71698 8.39783 8.87502 8 8.87502Z" fill="#303742"/>
</svg>
