<svg width="16" height="16" viewBox="0 0 16 16" fill="none" xmlns="http://www.w3.org/2000/svg">
<path d="M14.75 7.25012C14.5511 7.25012 14.3603 7.32914 14.2197 7.46979C14.079 7.61045 14 7.80121 14 8.00012C14.0089 9.40489 13.5277 10.7688 12.6392 11.857C11.7508 12.9451 10.5106 13.6894 9.13247 13.9616C7.7543 14.2338 6.32434 14.0169 5.08888 13.3482C3.85342 12.6795 2.88981 11.601 2.36399 10.2983C1.83818 8.99563 1.7831 7.55036 2.20822 6.21143C2.63334 4.8725 3.51206 3.72372 4.69303 2.96296C5.874 2.20219 7.2833 1.87706 8.6782 2.04356C10.0731 2.21005 11.3663 2.85776 12.335 3.87512H10.535C10.3361 3.87512 10.1453 3.95414 10.0047 4.09479C9.86402 4.23544 9.785 4.42621 9.785 4.62512C9.785 4.82403 9.86402 5.0148 10.0047 5.15545C10.1453 5.2961 10.3361 5.37512 10.535 5.37512H13.9325C14.1314 5.37512 14.3222 5.2961 14.4628 5.15545C14.6035 5.0148 14.6825 4.82403 14.6825 4.62512V1.25012C14.6825 1.05121 14.6035 0.860444 14.4628 0.719792C14.3222 0.579139 14.1314 0.500122 13.9325 0.500122C13.7336 0.500122 13.5428 0.579139 13.4022 0.719792C13.2615 0.860444 13.1825 1.05121 13.1825 1.25012V2.57762C11.9335 1.38367 10.3106 0.657586 8.58801 0.522119C6.86547 0.386651 5.14897 0.850105 3.72869 1.83414C2.30841 2.81817 1.27146 4.26243 0.793124 5.92276C0.314788 7.5831 0.42441 9.35768 1.10346 10.9465C1.78251 12.5354 2.98933 13.841 4.51993 14.6428C6.05052 15.4445 7.811 15.6932 9.50378 15.3467C11.1966 15.0003 12.7178 14.08 13.8104 12.7414C14.9029 11.4028 15.4998 9.72799 15.5 8.00012C15.5 7.80121 15.421 7.61045 15.2803 7.46979C15.1397 7.32914 14.9489 7.25012 14.75 7.25012Z" fill="#303742"/>
</svg>
