<svg width="10" height="6" viewBox="0 0 10 6" fill="none" xmlns="http://www.w3.org/2000/svg">
<path d="M0.833417 5.35826C0.989552 5.51347 1.20076 5.60059 1.42092 5.60059C1.64107 5.60059 1.85228 5.51347 2.00842 5.35826L5.00008 2.40826L7.95008 5.35826C8.10622 5.51347 8.31743 5.60059 8.53758 5.60059C8.75774 5.60059 8.96895 5.51347 9.12508 5.35826C9.20319 5.28079 9.26519 5.18862 9.30749 5.08707C9.3498 4.98552 9.37158 4.8766 9.37158 4.76659C9.37158 4.65658 9.3498 4.54766 9.30749 4.44611C9.26519 4.34456 9.20319 4.25239 9.12508 4.17493L5.59175 0.641593C5.51428 0.563486 5.42211 0.501491 5.32056 0.459184C5.21901 0.416876 5.11009 0.395094 5.00008 0.395094C4.89007 0.395094 4.78115 0.416876 4.6796 0.459184C4.57805 0.501491 4.48589 0.563486 4.40842 0.641593L0.833417 4.17493C0.75531 4.2524 0.693315 4.34456 0.651008 4.44611C0.608701 4.54766 0.586918 4.65658 0.586918 4.76659C0.586918 4.8766 0.608701 4.98552 0.651008 5.08707C0.693315 5.18862 0.75531 5.28079 0.833417 5.35826Z" fill="#303742"/>
</svg>
