<svg width="20" height="20" viewBox="0 0 20 20" fill="none" xmlns="http://www.w3.org/2000/svg">
<g clip-path="url(#clip0_194_619)">
<path d="M5 5.83333C5 4.26198 5 3.47631 5.48816 2.98816C5.97631 2.5 6.76198 2.5 8.33333 2.5H10H11.6667C13.238 2.5 14.0237 2.5 14.5118 2.98816C15 3.47631 15 4.26198 15 5.83333V10V14.1667C15 15.738 15 16.5237 14.5118 17.0118C14.0237 17.5 13.238 17.5 11.6667 17.5H10H8.33333C6.76198 17.5 5.97631 17.5 5.48816 17.0118C5 16.5237 5 15.738 5 14.1667V10V5.83333Z" stroke="#323232" stroke-linejoin="round"/>
<path d="M9.58301 15H10.4163" stroke="#323232" stroke-linecap="round"/>
</g>
<defs>
<clipPath id="clip0_194_619">
<rect width="20" height="20" fill="white"/>
</clipPath>
</defs>
</svg>
