<svg width="14" height="14" viewBox="0 0 14 14" fill="none" xmlns="http://www.w3.org/2000/svg">
<path d="M12.8333 6.16658H7.83331V1.16659C7.83331 0.945572 7.74552 0.73361 7.58923 0.57733C7.43295 0.421049 7.22099 0.333252 6.99998 0.333252C6.77897 0.333252 6.567 0.421049 6.41072 0.57733C6.25444 0.73361 6.16665 0.945572 6.16665 1.16659V6.16658H1.16665C0.945633 6.16658 0.733671 6.25438 0.577391 6.41066C0.421111 6.56694 0.333313 6.7789 0.333313 6.99992C0.333313 7.22093 0.421111 7.43289 0.577391 7.58917C0.733671 7.74545 0.945633 7.83325 1.16665 7.83325H6.16665V12.8333C6.16665 13.0543 6.25444 13.2662 6.41072 13.4225C6.567 13.5788 6.77897 13.6666 6.99998 13.6666C7.22099 13.6666 7.43295 13.5788 7.58923 13.4225C7.74552 13.2662 7.83331 13.0543 7.83331 12.8333V7.83325H12.8333C13.0543 7.83325 13.2663 7.74545 13.4226 7.58917C13.5788 7.43289 13.6666 7.22093 13.6666 6.99992C13.6666 6.7789 13.5788 6.56694 13.4226 6.41066C13.2663 6.25438 13.0543 6.16658 12.8333 6.16658Z" fill="#303742"/>
</svg>
