<svg width="10" height="6" viewBox="0 0 10 6" fill="none" xmlns="http://www.w3.org/2000/svg">
<path d="M9.16658 0.641619C9.01045 0.48641 8.79924 0.399292 8.57908 0.399292C8.35893 0.399292 8.14772 0.48641 7.99158 0.641619L4.99992 3.59162L2.04992 0.641619C1.89378 0.48641 1.68257 0.399292 1.46242 0.399292C1.24226 0.399292 1.03105 0.48641 0.874917 0.641619C0.79681 0.719088 0.734814 0.811256 0.692507 0.912805C0.6502 1.01435 0.628418 1.12328 0.628418 1.23329C0.628418 1.3433 0.6502 1.45222 0.692507 1.55377C0.734814 1.65532 0.79681 1.74748 0.874917 1.82495L4.40825 5.35829C4.48572 5.43639 4.57789 5.49839 4.67944 5.54069C4.78098 5.583 4.88991 5.60478 4.99992 5.60478C5.10993 5.60478 5.21885 5.583 5.3204 5.54069C5.42195 5.49839 5.51411 5.43639 5.59158 5.35829L9.16658 1.82495C9.24469 1.74748 9.30668 1.65532 9.34899 1.55377C9.3913 1.45222 9.41308 1.3433 9.41308 1.23329C9.41308 1.12328 9.3913 1.01435 9.34899 0.912805C9.30668 0.811256 9.24469 0.719088 9.16658 0.641619Z" fill="#303742"/>
</svg>
