<svg width="13" height="13" viewBox="0 0 13 13" fill="none" xmlns="http://www.w3.org/2000/svg">
<path d="M10.1254 1.80142C9.33752 1.1517 8.39484 0.717073 7.38913 0.539863C6.38341 0.362654 5.34895 0.448899 4.38647 0.7902C3.42399 1.1315 2.56629 1.71623 1.8969 2.48744C1.2275 3.25866 0.769223 4.19007 0.566689 5.19099C0.39541 6.05361 0.417307 6.94345 0.630807 7.7966C0.844307 8.64976 1.24411 9.44503 1.8015 10.1253C2.356 10.8004 3.05381 11.3435 3.84431 11.7154C4.63481 12.0872 5.49818 12.2784 6.37176 12.2751L11.5914 12.2801C11.6833 12.2804 11.7743 12.2626 11.8592 12.2277C11.9441 12.1927 12.0213 12.1412 12.0862 12.0763C12.1512 12.0114 12.2026 11.9342 12.2376 11.8493C12.2726 11.7643 12.2904 11.6733 12.29 11.5815L12.2752 6.37168C12.2785 5.4981 12.0873 4.63473 11.7154 3.84423C11.3436 3.05373 10.8004 2.35592 10.1254 1.80142ZM10.8928 6.36676V10.8928L6.36684 10.8928C5.69982 10.8927 5.04109 10.7449 4.438 10.46C3.83491 10.175 3.30244 9.75998 2.87888 9.2447C2.44838 8.72189 2.13943 8.10996 1.97438 7.45313C1.80932 6.79631 1.79228 6.11102 1.92449 5.44681C2.09971 4.57816 2.52743 3.78055 3.15403 3.15395C3.78063 2.52735 4.57824 2.09963 5.44689 1.9244C6.10886 1.79238 6.79187 1.8086 7.44683 1.97192C8.10179 2.13523 8.71245 2.44158 9.23494 2.86896C9.75331 3.29262 10.171 3.82624 10.4577 4.43119C10.7445 5.03615 10.8931 5.69729 10.8928 6.36676ZM4.17764 4.17756C3.73979 4.61541 3.44161 5.17326 3.32081 5.78057C3.20001 6.38789 3.26201 7.01738 3.49897 7.58946C3.73593 8.16154 4.13721 8.6505 4.65207 8.99451C5.16692 9.33853 5.77223 9.52214 6.39144 9.52214C7.01065 9.52214 7.61596 9.33853 8.13081 8.99451C8.64567 8.6505 9.04695 8.16154 9.28391 7.58946C9.52087 7.01738 9.58287 6.38789 9.46207 5.78057C9.34127 5.17326 9.04309 4.61541 8.60524 4.17756C8.0172 3.59212 7.22121 3.26345 6.39144 3.26345C5.56167 3.26345 4.76568 3.59212 4.17764 4.17756ZM7.62133 7.62125C7.37808 7.8645 7.06816 8.03015 6.73077 8.09726C6.39337 8.16438 6.04365 8.12993 5.72583 7.99829C5.40801 7.86664 5.13636 7.64371 4.94524 7.35768C4.75413 7.07165 4.65212 6.73537 4.65212 6.39136C4.65212 6.04735 4.75413 5.71107 4.94524 5.42504C5.13636 5.13901 5.40801 4.91608 5.72583 4.78443C6.04365 4.65279 6.39337 4.61834 6.73077 4.68546C7.06816 4.75257 7.37808 4.91822 7.62133 5.16147C7.94752 5.48766 8.13077 5.93006 8.13077 6.39136C8.13077 6.85266 7.94752 7.29506 7.62133 7.62125Z" fill="#303742"/>
</svg>
