<svg width="16" height="16" viewBox="0 0 16 16" fill="none" xmlns="http://www.w3.org/2000/svg">
<path d="M4.24378 9.87647C4.14528 9.87645 4.04774 9.89583 3.95674 9.93351C3.86573 9.97119 3.78304 10.0264 3.71339 10.0961C3.64374 10.1657 3.5885 10.2484 3.55082 10.3394C3.51313 10.4304 3.49375 10.528 3.49378 10.6265V11.9632C2.52706 10.8699 1.99356 9.46085 1.99378 8.00147C1.99364 7.78091 2.00685 7.56054 2.03333 7.34156C2.04547 7.24364 2.03817 7.14429 2.01184 7.0492C1.98552 6.9541 1.94069 6.86514 1.87992 6.7874C1.81915 6.70967 1.74364 6.64469 1.65771 6.59619C1.57178 6.54769 1.47713 6.51662 1.37917 6.50477C1.28122 6.49292 1.18189 6.50051 1.08687 6.52711C0.991855 6.55372 0.903024 6.59881 0.825468 6.65981C0.747911 6.72081 0.683155 6.79652 0.634909 6.88259C0.586663 6.96866 0.555877 7.0634 0.544314 7.16139C0.510341 7.44013 0.493465 7.72068 0.493779 8.00147C0.494798 9.79109 1.138 11.5209 2.30643 12.8765H1.24378C1.04487 12.8765 0.854101 12.9555 0.713449 13.0961C0.572796 13.2368 0.493779 13.4276 0.493779 13.6265C0.493779 13.8254 0.572796 14.0162 0.713449 14.1568C0.854101 14.2975 1.04487 14.3765 1.24378 14.3765H4.24378C4.36108 14.375 4.47633 14.3455 4.57993 14.2905C4.68353 14.2355 4.77248 14.1565 4.83938 14.0601C4.84812 14.0486 4.85929 14.04 4.86743 14.0279C4.87243 14.0204 4.87256 14.0116 4.87723 14.004C4.91297 13.9436 4.93975 13.8783 4.95673 13.8102C4.96783 13.772 4.97572 13.7329 4.9803 13.6933C4.98245 13.6702 4.9938 13.6502 4.9938 13.6265V10.6265C4.99383 10.528 4.97445 10.4305 4.93677 10.3394C4.89909 10.2484 4.84384 10.1657 4.77419 10.0961C4.70454 10.0264 4.62184 9.97119 4.53083 9.93351C4.43982 9.89583 4.34228 9.87645 4.24378 9.87647ZM5.36878 3.50147H4.03193C5.12528 2.53481 6.53437 2.00131 7.99378 2.00147C8.21423 2.00095 8.43451 2.01416 8.65332 2.04103C8.75114 2.05291 8.85034 2.0454 8.94526 2.01894C9.04018 1.99249 9.12895 1.94759 9.20652 1.88682C9.28409 1.82605 9.34893 1.7506 9.39733 1.66477C9.44574 1.57895 9.47677 1.48443 9.48865 1.38661C9.50053 1.28879 9.49302 1.18959 9.46656 1.09467C9.44011 0.999755 9.39521 0.910978 9.33444 0.833411C9.27367 0.755844 9.19822 0.691005 9.1124 0.642597C9.02657 0.594189 8.93205 0.56316 8.83423 0.551282C8.55535 0.517638 8.27468 0.501005 7.99378 0.501475C6.20417 0.502447 4.47434 1.1456 3.11878 2.31399V1.25147C3.11878 1.05256 3.03976 0.861797 2.89911 0.721144C2.75846 0.580492 2.56769 0.501475 2.36878 0.501475C2.16987 0.501475 1.9791 0.580492 1.83845 0.721144C1.6978 0.861797 1.61878 1.05256 1.61878 1.25147V4.25147C1.6235 4.30105 1.63338 4.34999 1.64826 4.39751L1.64844 4.39842C1.66665 4.49071 1.70261 4.57859 1.75432 4.65717L1.76288 4.66985C1.81244 4.74193 1.87455 4.80451 1.94626 4.8546C1.95446 4.8606 1.95853 4.8698 1.96704 4.87552C1.97776 4.88261 1.98989 4.88486 2.00083 4.89136C2.04336 4.91695 2.08843 4.93806 2.13532 4.95436C2.19868 4.9764 2.26475 4.98974 2.3317 4.994C2.3447 4.99469 2.35564 5.0015 2.36878 5.0015H5.36878C5.56769 5.0015 5.75846 4.92248 5.89911 4.78183C6.03976 4.64118 6.11878 4.45041 6.11878 4.2515C6.11878 4.05258 6.03976 3.86182 5.89911 3.72117C5.75846 3.58051 5.56769 3.5015 5.36878 3.5015V3.50147ZM14.3391 11.6045C14.3209 11.5122 14.2849 11.4243 14.2332 11.3457L14.2247 11.3331C14.1751 11.261 14.113 11.1984 14.0412 11.1483C14.033 11.1423 14.029 11.1331 14.0205 11.1274C14.0124 11.1221 14.0028 11.1219 13.9946 11.1168C13.8994 11.064 13.7952 11.0295 13.6873 11.0153C13.6635 11.013 13.6431 11.0014 13.6188 11.0014H10.6188C10.4199 11.0014 10.2291 11.0805 10.0884 11.2211C9.9478 11.3618 9.86878 11.5525 9.86878 11.7514C9.86878 11.9503 9.9478 12.1411 10.0884 12.2818C10.2291 12.4224 10.4199 12.5014 10.6188 12.5014H11.9556C10.8623 13.4681 9.45317 14.0016 7.99378 14.0014C7.77331 14.0017 7.55303 13.9883 7.33423 13.9612C7.13668 13.9372 6.93768 13.9926 6.78103 14.1154C6.62438 14.2381 6.52289 14.418 6.4989 14.6156C6.47491 14.8131 6.53038 15.0121 6.65311 15.1688C6.77584 15.3254 6.95577 15.4269 7.15332 15.4509C7.43221 15.4845 7.71287 15.5014 7.99378 15.5014C9.78338 15.5005 11.5132 14.8573 12.8688 13.6889V14.7515C12.8688 14.9504 12.9478 15.1412 13.0885 15.2818C13.2291 15.4225 13.4199 15.5015 13.6188 15.5015C13.8177 15.5015 14.0085 15.4225 14.1491 15.2818C14.2898 15.1412 14.3688 14.9504 14.3688 14.7515V11.7515C14.3641 11.7019 14.3542 11.653 14.3393 11.6054L14.3391 11.6045ZM14.7438 3.12647C14.9427 3.12647 15.1335 3.04746 15.2741 2.9068C15.4148 2.76615 15.4938 2.57539 15.4938 2.37647C15.4938 2.17756 15.4148 1.9868 15.2741 1.84614C15.1335 1.70549 14.9427 1.62647 14.7438 1.62647H11.7438C11.695 1.63118 11.6467 1.64091 11.5999 1.6555L11.5949 1.6565C11.5038 1.67473 11.4171 1.71025 11.3394 1.76115L11.3247 1.77108C11.253 1.82056 11.1906 1.88249 11.1407 1.95392C11.1348 1.96202 11.1257 1.966 11.1201 1.97438C11.1148 1.98243 11.1146 1.99196 11.1096 2.00015C11.056 2.09584 11.0213 2.2009 11.0073 2.30964C11.0051 2.33281 10.9938 2.35277 10.9938 2.37647V5.37647C10.9938 5.57539 11.0728 5.76615 11.2134 5.9068C11.3541 6.04746 11.5449 6.12647 11.7438 6.12647C11.9427 6.12647 12.1335 6.04746 12.2741 5.9068C12.4148 5.76615 12.4938 5.57539 12.4938 5.37647V4.03931C13.4604 5.13279 13.9939 6.54196 13.9938 8.00144C13.9939 8.22201 13.9807 8.44238 13.9542 8.66135C13.9305 8.85877 13.986 9.05755 14.1086 9.21409C14.2312 9.37062 14.4109 9.47212 14.6083 9.49631C14.6387 9.49984 14.6692 9.50154 14.6998 9.50144C14.883 9.5012 15.0597 9.43395 15.1966 9.31238C15.3336 9.19082 15.4213 9.02333 15.4432 8.84153C15.4772 8.5628 15.4941 8.28226 15.4938 8.00147C15.4927 6.21184 14.8495 4.482 13.681 3.12647H14.7438Z" fill="#303742"/>
</svg>
