<svg width="14" height="14" viewBox="0 0 14 14" fill="none" xmlns="http://www.w3.org/2000/svg">
<path d="M8.17499 6.99991L13.425 1.75824C13.5819 1.60132 13.6701 1.3885 13.6701 1.16658C13.6701 0.944659 13.5819 0.73183 13.425 0.57491C13.2681 0.417991 13.0552 0.329834 12.8333 0.329834C12.6114 0.329834 12.3986 0.417991 12.2417 0.57491L6.99999 5.82491L1.75832 0.57491C1.6014 0.417991 1.38857 0.329834 1.16666 0.329834C0.944738 0.329834 0.73191 0.417991 0.57499 0.57491C0.41807 0.73183 0.329914 0.944659 0.329914 1.16658C0.329914 1.3885 0.41807 1.60132 0.57499 1.75824L5.82499 6.99991L0.57499 12.2416C0.496883 12.319 0.434888 12.4112 0.392581 12.5128C0.350273 12.6143 0.328491 12.7232 0.328491 12.8332C0.328491 12.9433 0.350273 13.0522 0.392581 13.1537C0.434888 13.2553 0.496883 13.3474 0.57499 13.4249C0.652459 13.503 0.744626 13.565 0.846176 13.6073C0.947725 13.6496 1.05665 13.6714 1.16666 13.6714C1.27667 13.6714 1.38559 13.6496 1.48714 13.6073C1.58869 13.565 1.68085 13.503 1.75832 13.4249L6.99999 8.17491L12.2417 13.4249C12.3191 13.503 12.4113 13.565 12.5128 13.6073C12.6144 13.6496 12.7233 13.6714 12.8333 13.6714C12.9433 13.6714 13.0523 13.6496 13.1538 13.6073C13.2554 13.565 13.3475 13.503 13.425 13.4249C13.5031 13.3474 13.5651 13.2553 13.6074 13.1537C13.6497 13.0522 13.6715 12.9433 13.6715 12.8332C13.6715 12.7232 13.6497 12.6143 13.6074 12.5128C13.5651 12.4112 13.5031 12.319 13.425 12.2416L8.17499 6.99991Z" fill="white"/>
</svg>
