<svg width="85" height="17" viewBox="0 0 85 17" fill="none" xmlns="http://www.w3.org/2000/svg">
<path d="M21.0505 4.12644C20.7531 4.12644 20.5037 4.02586 20.3022 3.82471C20.1007 3.62356 20 3.37452 20 3.07759C20 2.78065 20.1007 2.53161 20.3022 2.33046C20.5037 2.12931 20.7531 2.02874 21.0505 2.02874C21.3383 2.02874 21.583 2.12931 21.7844 2.33046C21.9859 2.53161 22.0866 2.78065 22.0866 3.07759C22.0866 3.37452 21.9859 3.62356 21.7844 3.82471C21.583 4.02586 21.3383 4.12644 21.0505 4.12644ZM21.8564 5.17529V13.092H20.2159V5.17529H21.8564Z" fill="url(#paint0_linear_1165_1673)"/>
<path d="M28.0108 5.04598C28.6344 5.04598 29.1908 5.17529 29.6801 5.43391C30.179 5.69253 30.5675 6.07567 30.8457 6.58333C31.124 7.091 31.2631 7.70402 31.2631 8.42241V13.092H29.6369V8.66667C29.6369 7.95785 29.4594 7.41667 29.1045 7.0431C28.7495 6.65996 28.265 6.46839 27.651 6.46839C27.037 6.46839 26.5478 6.65996 26.1832 7.0431C25.8282 7.41667 25.6508 7.95785 25.6508 8.66667V13.092H24.0102V5.17529H25.6508V6.08046C25.9194 5.75479 26.26 5.50096 26.6725 5.31897C27.0946 5.13697 27.5407 5.04598 28.0108 5.04598Z" fill="url(#paint1_linear_1165_1673)"/>
<path d="M36.2338 13.2213C35.6102 13.2213 35.0489 13.1111 34.5501 12.8908C34.0608 12.6609 33.6722 12.3544 33.3844 11.9713C33.0966 11.5785 32.9431 11.1427 32.9239 10.6638H34.622C34.6508 10.999 34.8091 11.2816 35.0969 11.5115C35.3943 11.7318 35.7637 11.842 36.205 11.842C36.6655 11.842 37.0204 11.7557 37.2699 11.5833C37.5289 11.4013 37.6584 11.1715 37.6584 10.8937C37.6584 10.5967 37.5145 10.3764 37.2267 10.2328C36.9485 10.0891 36.5024 9.93103 35.8884 9.75862C35.2936 9.59579 34.8091 9.43774 34.4349 9.28448C34.0608 9.13123 33.7346 8.89655 33.4564 8.58046C33.1878 8.26437 33.0534 7.8477 33.0534 7.33046C33.0534 6.909 33.1782 6.52586 33.4276 6.18103C33.677 5.82663 34.032 5.54885 34.4925 5.3477C34.9626 5.14655 35.4998 5.04598 36.1042 5.04598C37.006 5.04598 37.7304 5.27586 38.2772 5.73563C38.8336 6.18582 39.131 6.80364 39.1694 7.58908H37.5289C37.5001 7.23467 37.3562 6.95211 37.0972 6.74138C36.8382 6.53065 36.488 6.42529 36.0467 6.42529C35.615 6.42529 35.284 6.5067 35.0537 6.66954C34.8235 6.83238 34.7084 7.04789 34.7084 7.31609C34.7084 7.52682 34.7851 7.70402 34.9386 7.8477C35.0921 7.99138 35.2792 8.10632 35.4998 8.19253C35.7205 8.26916 36.0467 8.36973 36.4784 8.49425C37.054 8.64751 37.5241 8.80555 37.8887 8.96839C38.2628 9.12165 38.5842 9.35153 38.8528 9.65805C39.1215 9.96456 39.2606 10.3716 39.2702 10.8793C39.2702 11.3295 39.1454 11.7318 38.896 12.0862C38.6466 12.4406 38.2916 12.7184 37.8311 12.9195C37.3802 13.1207 36.8478 13.2213 36.2338 13.2213Z" fill="url(#paint2_linear_1165_1673)"/>
<path d="M41.8774 4.12644C41.58 4.12644 41.3306 4.02586 41.1291 3.82471C40.9277 3.62356 40.8269 3.37452 40.8269 3.07759C40.8269 2.78065 40.9277 2.53161 41.1291 2.33046C41.3306 2.12931 41.58 2.02874 41.8774 2.02874C42.1652 2.02874 42.4099 2.12931 42.6113 2.33046C42.8128 2.53161 42.9135 2.78065 42.9135 3.07759C42.9135 3.37452 42.8128 3.62356 42.6113 3.82471C42.4099 4.02586 42.1652 4.12644 41.8774 4.12644ZM42.6833 5.17529V13.092H41.0428V5.17529H42.6833Z" fill="url(#paint3_linear_1165_1673)"/>
<path d="M48.0319 5.04598C48.6458 5.04598 49.1879 5.1705 49.658 5.41954C50.1377 5.659 50.5118 5.96073 50.7804 6.32471V5.17529H52.4354V13.2213C52.4354 13.9492 52.2819 14.5958 51.9749 15.1609C51.6679 15.7356 51.2218 16.1858 50.6365 16.5115C50.0609 16.8372 49.3702 17 48.5643 17C47.4898 17 46.5976 16.7462 45.8877 16.2385C45.1777 15.7404 44.7748 15.0603 44.6789 14.1983H46.305C46.4297 14.6102 46.6935 14.9406 47.0965 15.1897C47.509 15.4483 47.9983 15.5776 48.5643 15.5776C49.2263 15.5776 49.7587 15.3764 50.1616 14.9741C50.5742 14.5718 50.7804 13.9875 50.7804 13.2213V11.8994C50.5022 12.273 50.1233 12.5891 49.6436 12.8477C49.1735 13.0967 48.6363 13.2213 48.0319 13.2213C47.3411 13.2213 46.7079 13.0489 46.1323 12.704C45.5663 12.3496 45.1154 11.8611 44.7796 11.2385C44.4534 10.6063 44.2903 9.89272 44.2903 9.0977C44.2903 8.30268 44.4534 7.59866 44.7796 6.98563C45.1154 6.37261 45.5663 5.89847 46.1323 5.56322C46.7079 5.21839 47.3411 5.04598 48.0319 5.04598ZM50.7804 9.12644C50.7804 8.58046 50.6653 8.10632 50.4351 7.70402C50.2144 7.30172 49.9218 6.99521 49.5572 6.78448C49.1927 6.57375 48.7993 6.46839 48.3772 6.46839C47.9551 6.46839 47.5618 6.57375 47.1972 6.78448C46.8326 6.98563 46.5352 7.28736 46.305 7.68965C46.0843 8.08238 45.974 8.55172 45.974 9.0977C45.974 9.64368 46.0843 10.1226 46.305 10.5345C46.5352 10.9464 46.8326 11.2625 47.1972 11.4828C47.5714 11.6935 47.9647 11.7989 48.3772 11.7989C48.7993 11.7989 49.1927 11.6935 49.5572 11.4828C49.9218 11.272 50.2144 10.9655 50.4351 10.5632C50.6653 10.1513 50.7804 9.67241 50.7804 9.12644Z" fill="url(#paint4_linear_1165_1673)"/>
<path d="M58.6914 5.04598C59.2958 5.04598 59.8331 5.17529 60.3032 5.43391C60.7828 5.69253 61.157 6.07567 61.4256 6.58333C61.7038 7.091 61.8429 7.70402 61.8429 8.42241V13.092H60.2168V8.66667C60.2168 7.95785 60.0393 7.41667 59.6844 7.0431C59.3294 6.65996 58.8449 6.46839 58.2309 6.46839C57.6169 6.46839 57.1276 6.65996 56.7631 7.0431C56.4081 7.41667 56.2306 7.95785 56.2306 8.66667V13.092H54.5901V2.45977H56.2306V6.09483C56.5089 5.75958 56.859 5.50096 57.2811 5.31897C57.7129 5.13697 58.1829 5.04598 58.6914 5.04598Z" fill="url(#paint5_linear_1165_1673)"/>
<path d="M65.8495 6.51149V10.8937C65.8495 11.1906 65.9166 11.4061 66.0509 11.5402C66.1948 11.6648 66.4347 11.727 66.7705 11.727H67.7778V13.092H66.4826C65.7439 13.092 65.1779 12.9195 64.7846 12.5747C64.3912 12.2299 64.1946 11.6695 64.1946 10.8937V6.51149H63.2592V5.17529H64.1946V3.2069H65.8495V5.17529H67.7778V6.51149H65.8495Z" fill="url(#paint6_linear_1165_1673)"/>
<path d="M70.1245 4.12644C69.8271 4.12644 69.5776 4.02586 69.3762 3.82471C69.1747 3.62356 69.074 3.37452 69.074 3.07759C69.074 2.78065 69.1747 2.53161 69.3762 2.33046C69.5776 2.12931 69.8271 2.02874 70.1245 2.02874C70.4123 2.02874 70.6569 2.12931 70.8584 2.33046C71.0598 2.53161 71.1606 2.78065 71.1606 3.07759C71.1606 3.37452 71.0598 3.62356 70.8584 3.82471C70.6569 4.02586 70.4123 4.12644 70.1245 4.12644ZM70.9303 5.17529V13.092H69.2898V5.17529H70.9303Z" fill="url(#paint7_linear_1165_1673)"/>
<path d="M76.4084 6.51149H74.9406V13.092H73.2857V6.51149H72.3503V5.17529H73.2857V4.61494C73.2857 3.70498 73.5255 3.04406 74.0052 2.63218C74.4945 2.21073 75.2572 2 76.2933 2V3.36494C75.7944 3.36494 75.4442 3.46073 75.2428 3.6523C75.0413 3.83429 74.9406 4.15517 74.9406 4.61494V5.17529H76.4084V6.51149Z" fill="url(#paint8_linear_1165_1673)"/>
<path d="M85 5.17529L80.136 16.8132H78.4379L80.0497 12.9626L76.9269 5.17529H78.7545L80.985 11.2098L83.3019 5.17529H85Z" fill="url(#paint9_linear_1165_1673)"/>
<path d="M17 8.5C17 13.1944 13.1944 17 8.5 17C3.80558 17 0 13.1944 0 8.5C0 3.80558 3.80558 0 8.5 0C13.1944 0 17 3.80558 17 8.5Z" fill="url(#paint10_linear_1165_1673)"/>
<path fill-rule="evenodd" clip-rule="evenodd" d="M8.90446 2.46378C5.46244 2.58328 2.71014 5.30901 2.71014 8.65399C2.71014 11.999 5.46244 14.7247 8.90446 14.8442V12.6951C6.69518 12.5812 4.9401 10.8155 4.9401 8.65398C4.9401 6.49248 6.69518 4.72678 8.90446 4.61287V2.46378Z" fill="white"/>
<path fill-rule="evenodd" clip-rule="evenodd" d="M8.9083 6.09779H8.90427V11.2184C7.49033 11.2183 6.34415 10.0721 6.34415 8.6581C6.34415 7.24408 7.49044 6.09779 8.90446 6.09779C8.90574 6.09779 8.90702 6.09779 8.9083 6.09779Z" fill="white"/>
<path fill-rule="evenodd" clip-rule="evenodd" d="M8.92421 12.6716C11.1622 12.5884 12.9476 10.8116 12.9422 8.63645C12.9369 6.46132 11.1428 4.69329 8.9044 4.62108L8.90784 6.01858C10.3446 6.08909 11.4888 7.23447 11.4922 8.64002C11.4957 10.0456 10.3572 11.1966 8.92077 11.2742L8.92421 12.6716Z" fill="white"/>
<mask id="mask0_1165_1673" style="mask-type:alpha" maskUnits="userSpaceOnUse" x="0" y="0" width="17" height="17">
<path d="M17 8.5C17 13.1944 13.1944 17 8.5 17C3.80558 17 0 13.1944 0 8.5C0 3.80558 3.80558 0 8.5 0C13.1944 0 17 3.80558 17 8.5Z" fill="url(#paint11_linear_1165_1673)"/>
</mask>
<g mask="url(#mask0_1165_1673)">
<rect x="11.4325" y="11.299" width="1.52893" height="4.62238" transform="rotate(-54.2257 11.4325 11.299)" fill="white"/>
</g>
<defs>
<linearGradient id="paint0_linear_1165_1673" x1="46.2387" y1="-1.99426" x2="52.2168" y2="24.5903" gradientUnits="userSpaceOnUse">
<stop stop-color="#FF3875"/>
<stop offset="1" stop-color="#FF7359"/>
</linearGradient>
<linearGradient id="paint1_linear_1165_1673" x1="46.2387" y1="-1.99426" x2="52.2168" y2="24.5903" gradientUnits="userSpaceOnUse">
<stop stop-color="#FF3875"/>
<stop offset="1" stop-color="#FF7359"/>
</linearGradient>
<linearGradient id="paint2_linear_1165_1673" x1="46.2387" y1="-1.99426" x2="52.2168" y2="24.5903" gradientUnits="userSpaceOnUse">
<stop stop-color="#FF3875"/>
<stop offset="1" stop-color="#FF7359"/>
</linearGradient>
<linearGradient id="paint3_linear_1165_1673" x1="46.2387" y1="-1.99426" x2="52.2168" y2="24.5903" gradientUnits="userSpaceOnUse">
<stop stop-color="#FF3875"/>
<stop offset="1" stop-color="#FF7359"/>
</linearGradient>
<linearGradient id="paint4_linear_1165_1673" x1="46.2387" y1="-1.99426" x2="52.2168" y2="24.5903" gradientUnits="userSpaceOnUse">
<stop stop-color="#FF3875"/>
<stop offset="1" stop-color="#FF7359"/>
</linearGradient>
<linearGradient id="paint5_linear_1165_1673" x1="46.2387" y1="-1.99426" x2="52.2168" y2="24.5903" gradientUnits="userSpaceOnUse">
<stop stop-color="#FF3875"/>
<stop offset="1" stop-color="#FF7359"/>
</linearGradient>
<linearGradient id="paint6_linear_1165_1673" x1="46.2387" y1="-1.99426" x2="52.2168" y2="24.5903" gradientUnits="userSpaceOnUse">
<stop stop-color="#FF3875"/>
<stop offset="1" stop-color="#FF7359"/>
</linearGradient>
<linearGradient id="paint7_linear_1165_1673" x1="46.2387" y1="-1.99426" x2="52.2168" y2="24.5903" gradientUnits="userSpaceOnUse">
<stop stop-color="#FF3875"/>
<stop offset="1" stop-color="#FF7359"/>
</linearGradient>
<linearGradient id="paint8_linear_1165_1673" x1="46.2387" y1="-1.99426" x2="52.2168" y2="24.5903" gradientUnits="userSpaceOnUse">
<stop stop-color="#FF3875"/>
<stop offset="1" stop-color="#FF7359"/>
</linearGradient>
<linearGradient id="paint9_linear_1165_1673" x1="46.2387" y1="-1.99426" x2="52.2168" y2="24.5903" gradientUnits="userSpaceOnUse">
<stop stop-color="#FF3875"/>
<stop offset="1" stop-color="#FF7359"/>
</linearGradient>
<linearGradient id="paint10_linear_1165_1673" x1="1.97101" y1="2.46377" x2="13.3043" y2="15.2754" gradientUnits="userSpaceOnUse">
<stop stop-color="#FF3875"/>
<stop offset="1" stop-color="#FF7359"/>
</linearGradient>
<linearGradient id="paint11_linear_1165_1673" x1="8.5" y1="0" x2="8.5" y2="17" gradientUnits="userSpaceOnUse">
<stop stop-color="#FF3875"/>
<stop offset="1" stop-color="#FF7558"/>
</linearGradient>
</defs>
</svg>
