<svg width="14" height="14" viewBox="0 0 14 14" fill="none" xmlns="http://www.w3.org/2000/svg">
<path d="M3.46486 5.96486C3.95931 5.96486 4.44266 5.81824 4.85379 5.54354C5.26491 5.26883 5.58534 4.87838 5.77456 4.42157C5.96378 3.96475 6.01329 3.46209 5.91682 2.97713C5.82036 2.49218 5.58226 2.04673 5.23263 1.69709C4.883 1.34746 4.43754 1.10936 3.95259 1.0129C3.46763 0.916434 2.96497 0.965943 2.50815 1.15516C2.05134 1.34438 1.66089 1.66481 1.38619 2.07594C1.11148 2.48706 0.964861 2.97041 0.964861 3.46486C0.965585 4.12768 1.22921 4.76314 1.69789 5.23183C2.16658 5.70051 2.80204 5.96414 3.46486 5.96486ZM3.46486 2.63153C3.62968 2.63153 3.7908 2.6804 3.92784 2.77197C4.06488 2.86354 4.17169 2.99369 4.23476 3.14596C4.29783 3.29823 4.31434 3.46579 4.28218 3.62744C4.25003 3.78909 4.17066 3.93757 4.05412 4.05412C3.93757 4.17066 3.78909 4.25003 3.62744 4.28218C3.46579 4.31434 3.29823 4.29783 3.14596 4.23476C2.99369 4.17169 2.86354 4.06488 2.77197 3.92784C2.6804 3.79079 2.63153 3.62968 2.63153 3.46486C2.63168 3.24389 2.71952 3.03202 2.87577 2.87577C3.03202 2.71952 3.24389 2.63168 3.46486 2.63153ZM10.5352 8.03518C10.0407 8.03518 9.55737 8.1818 9.14625 8.4565C8.73513 8.73121 8.4147 9.12165 8.22548 9.57847C8.03626 10.0353 7.98675 10.538 8.08321 11.0229C8.17968 11.5079 8.41778 11.9533 8.76741 12.3029C9.11704 12.6526 9.5625 12.8907 10.0475 12.9871C10.5324 13.0836 11.0351 13.0341 11.4919 12.8449C11.9487 12.6557 12.3391 12.3352 12.6139 11.9241C12.8886 11.513 13.0352 11.0296 13.0352 10.5352C13.0345 9.87236 12.7708 9.23689 12.3021 8.76821C11.8335 8.29953 11.198 8.0359 10.5352 8.03518ZM10.5352 11.3685C10.3704 11.3685 10.2092 11.3196 10.0722 11.2281C9.93516 11.1365 9.82835 11.0064 9.76528 10.8541C9.7022 10.7018 9.6857 10.5343 9.71786 10.3726C9.75001 10.211 9.82938 10.0625 9.94592 9.94592C10.0625 9.82938 10.211 9.75001 10.3726 9.71786C10.5343 9.6857 10.7018 9.70221 10.8541 9.76528C11.0064 9.82835 11.1365 9.93516 11.2281 10.0722C11.3196 10.2092 11.3685 10.3704 11.3685 10.5352C11.3684 10.7561 11.2805 10.968 11.1243 11.1243C10.968 11.2805 10.7561 11.3684 10.5352 11.3685ZM13.4225 0.577519C13.3452 0.500118 13.2533 0.438718 13.1522 0.396827C13.0511 0.354935 12.9428 0.333374 12.8333 0.333374C12.7239 0.333374 12.6155 0.354935 12.5144 0.396827C12.4133 0.438718 12.3215 0.500118 12.2441 0.577519L0.57747 12.2442C0.499298 12.3214 0.437165 12.4133 0.394645 12.5146C0.352126 12.6159 0.330059 12.7246 0.329716 12.8345C0.329373 12.9443 0.350759 13.0532 0.392645 13.1547C0.43453 13.2563 0.496088 13.3486 0.573775 13.4263C0.651463 13.5039 0.743745 13.5655 0.845313 13.6074C0.946881 13.6493 1.05573 13.6706 1.16559 13.6703C1.27546 13.6699 1.38417 13.6479 1.48547 13.6054C1.58677 13.5628 1.67866 13.5007 1.75585 13.4225L13.4225 1.75585C13.4999 1.67849 13.5613 1.58665 13.6032 1.48556C13.6451 1.38446 13.6666 1.27611 13.6666 1.16669C13.6666 1.05726 13.6451 0.948907 13.6032 0.847816C13.5613 0.746725 13.4999 0.654877 13.4225 0.577519Z" fill="#303742"/>
</svg>
