<svg width="18" height="18" viewBox="0 0 18 18" fill="none" xmlns="http://www.w3.org/2000/svg">
<path d="M4.67306 4.6736L5.02655 5.02721C5.05547 4.99831 5.09866 4.98956 5.13621 5.00455L5.13639 5.00462L16.5318 9.55027L16.5319 9.5503C16.568 9.5647 16.5928 9.59854 16.5956 9.63759L16.5956 9.6376C16.5985 9.67659 16.5788 9.71363 16.545 9.73314L16.545 9.73315L13.9895 11.2092L13.4254 11.5351L13.886 11.9957L17.468 15.5778L17.468 15.5778C17.5079 15.6177 17.5079 15.6822 17.4681 15.722C17.4681 15.722 17.4681 15.722 17.4681 15.722L15.7202 17.4701L15.7201 17.4702C15.7011 17.4893 15.6752 17.5 15.6482 17.5C15.6212 17.5 15.5952 17.4892 15.5762 17.4702L15.5761 17.4701L11.9944 13.888L11.5337 13.4273L11.2078 13.9915L9.73188 16.5469L9.73179 16.5471C9.71233 16.5808 9.67538 16.6004 9.63653 16.5976L9.63627 16.5976C9.59736 16.5948 9.56342 16.57 9.5489 16.5337C9.54889 16.5337 9.54888 16.5336 9.54887 16.5336L5.00399 5.13697L5.00394 5.13685C4.98895 5.0993 4.99767 5.05611 5.02668 5.02709L4.67306 4.6736ZM4.67306 4.6736C4.50295 4.84377 4.45041 5.09879 4.53955 5.32218L9.08447 16.7189L14.6056 12.0082L14.4897 12.0751L14.2396 11.6422L14.5932 11.2886L14.6878 11.3833L16.7951 10.1661C16.9948 10.0508 17.111 9.83158 17.0943 9.60159C17.0777 9.37154 16.9312 9.17124 16.717 9.08585L5.32165 4.54021C5.09826 4.451 4.84318 4.50354 4.67306 4.6736Z" stroke="#303742"/>
<path d="M2.64219 1.79082C2.40711 1.55592 2.02609 1.55586 1.79089 1.79082C1.55587 2.0259 1.55587 2.40704 1.79089 2.64212L3.12835 3.97959C3.24586 4.0971 3.39986 4.15588 3.55397 4.15588C3.70797 4.15588 3.86202 4.0971 3.97953 3.97959C4.21462 3.7445 4.21462 3.36343 3.97953 3.12835L2.64219 1.79082Z" fill="#303742"/>
<path d="M3.0954 5.95177C3.0954 5.61942 2.82589 5.34985 2.49342 5.34985H0.601977C0.269565 5.34985 0 5.61936 0 5.95177C0 6.28418 0.269505 6.55375 0.601977 6.55375H2.49342C2.82589 6.55369 3.0954 6.28418 3.0954 5.95177Z" fill="#303742"/>
<path d="M2.85131 7.80986L1.51367 9.14745C1.27865 9.38253 1.27865 9.76367 1.51367 9.99869C1.63124 10.1162 1.78529 10.175 1.93929 10.175C2.09328 10.175 2.2474 10.1162 2.36491 9.99869L3.70249 8.66117C3.93758 8.42608 3.93758 8.04495 3.70249 7.80986C3.46747 7.57496 3.08652 7.5749 2.85131 7.80986Z" fill="#303742"/>
<path d="M5.95177 3.09552C6.28418 3.09552 6.55375 2.82601 6.55375 2.49354V0.601916C6.55375 0.269505 6.28424 0 5.95177 0C5.61942 0 5.34985 0.269444 5.34985 0.601916V2.4936C5.34985 2.82601 5.61936 3.09552 5.95177 3.09552Z" fill="#303742"/>
<path d="M8.23499 3.87966C8.3891 3.87966 8.5431 3.82087 8.66061 3.70336L9.99801 2.3659C10.2331 2.13082 10.2331 1.74968 9.99801 1.5146C9.76293 1.27964 9.38179 1.27964 9.14677 1.5146L7.80937 2.85212C7.57429 3.08721 7.57429 3.46834 7.80937 3.70336C7.92694 3.82087 8.08093 3.87966 8.23499 3.87966Z" fill="#303742"/>
</svg>
