<svg width="16" height="16" viewBox="0 0 16 16" fill="none" xmlns="http://www.w3.org/2000/svg">
<path d="M13.25 0.5H2.75C2.15326 0.5 1.58097 0.737053 1.15901 1.15901C0.737053 1.58097 0.5 2.15326 0.5 2.75V10.25C0.5 10.8467 0.737053 11.419 1.15901 11.841C1.58097 12.2629 2.15326 12.5 2.75 12.5H4.73L4.295 13.25C4.16335 13.478 4.09404 13.7367 4.09404 14C4.09404 14.2633 4.16335 14.522 4.295 14.75C4.42779 14.98 4.61926 15.1707 4.84986 15.3024C5.08046 15.4342 5.34192 15.5024 5.6075 15.5H10.4525C10.7155 15.4997 10.9739 15.4303 11.2016 15.2987C11.4294 15.167 11.6185 14.9778 11.75 14.75C11.8817 14.522 11.951 14.2633 11.951 14C11.951 13.7367 11.8817 13.478 11.75 13.25L11.3075 12.5H13.25C13.8467 12.5 14.419 12.2629 14.841 11.841C15.2629 11.419 15.5 10.8467 15.5 10.25V2.75C15.5 2.15326 15.2629 1.58097 14.841 1.15901C14.419 0.737053 13.8467 0.5 13.25 0.5ZM5.5775 14L6.5 12.5H9.5L10.4 14H5.5775ZM14 10.25C14 10.4489 13.921 10.6397 13.7803 10.7803C13.6397 10.921 13.4489 11 13.25 11H2.75C2.55109 11 2.36032 10.921 2.21967 10.7803C2.07902 10.6397 2 10.4489 2 10.25V9.5H14V10.25ZM14 8H2V2.75C2 2.55109 2.07902 2.36032 2.21967 2.21967C2.36032 2.07902 2.55109 2 2.75 2H13.25C13.4489 2 13.6397 2.07902 13.7803 2.21967C13.921 2.36032 14 2.55109 14 2.75V8Z" fill="#303742"/>
</svg>
