<svg width="18" height="18" viewBox="0 0 18 18" fill="none" xmlns="http://www.w3.org/2000/svg">
<path d="M8.4675 11.7825C8.5724 11.8883 8.70643 11.9604 8.85249 11.9897C8.99855 12.019 9.15003 12.0042 9.28761 11.947C9.42519 11.8899 9.54265 11.7931 9.625 11.669C9.70735 11.5448 9.75087 11.399 9.75 11.25C9.74724 11.0514 9.66955 10.8612 9.5325 10.7175C9.42703 10.6134 9.2931 10.5429 9.14761 10.5149C9.00212 10.4869 8.85158 10.5026 8.715 10.56C8.62294 10.5957 8.53883 10.6492 8.4675 10.7175C8.33045 10.8612 8.25276 11.0514 8.25 11.25C8.24943 11.3487 8.26835 11.4466 8.30567 11.5379C8.343 11.6293 8.39799 11.7124 8.4675 11.7825ZM14.9325 11.6325H11.535C11.3361 11.6325 11.1453 11.7115 11.0047 11.8522C10.864 11.9928 10.785 12.1836 10.785 12.3825C10.785 12.5814 10.864 12.7722 11.0047 12.9128C11.1453 13.0535 11.3361 13.1325 11.535 13.1325H13.335C12.5077 13.9971 11.4408 14.5945 10.2714 14.848C9.10194 15.1016 7.88341 14.9997 6.77233 14.5554C5.66126 14.1112 4.7084 13.3448 4.03619 12.3549C3.36398 11.3649 3.00313 10.1966 3 9C3 8.80109 2.92098 8.61032 2.78033 8.46967C2.63968 8.32902 2.44891 8.25 2.25 8.25C2.05109 8.25 1.86032 8.32902 1.71967 8.46967C1.57902 8.61032 1.5 8.80109 1.5 9C1.50396 10.4646 1.93667 11.896 2.7447 13.1175C3.55274 14.3391 4.70075 15.2973 6.04706 15.8739C7.39336 16.4506 8.87905 16.6204 10.3208 16.3625C11.7625 16.1046 13.0971 15.4302 14.16 14.4225V15.75C14.16 15.9489 14.239 16.1397 14.3797 16.2803C14.5203 16.421 14.7111 16.5 14.91 16.5C15.1089 16.5 15.2997 16.421 15.4403 16.2803C15.581 16.1397 15.66 15.9489 15.66 15.75V12.375C15.6581 12.1812 15.5814 11.9957 15.4457 11.8573C15.3101 11.7189 15.1262 11.6383 14.9325 11.6325ZM9 1.5C7.07729 1.50548 5.23012 2.24919 3.84 3.5775V2.25C3.84 2.05109 3.76098 1.86032 3.62033 1.71967C3.47968 1.57902 3.28891 1.5 3.09 1.5C2.89109 1.5 2.70032 1.57902 2.55967 1.71967C2.41902 1.86032 2.34 2.05109 2.34 2.25V5.625C2.34 5.82391 2.41902 6.01468 2.55967 6.15533C2.70032 6.29598 2.89109 6.375 3.09 6.375H6.465C6.66391 6.375 6.85468 6.29598 6.99533 6.15533C7.13598 6.01468 7.215 5.82391 7.215 5.625C7.215 5.42609 7.13598 5.23532 6.99533 5.09467C6.85468 4.95402 6.66391 4.875 6.465 4.875H4.665C5.49185 4.0109 6.55807 3.41362 7.7268 3.15983C8.89553 2.90604 10.1134 3.00731 11.2242 3.45065C12.335 3.89398 13.2879 4.65916 13.9607 5.64795C14.6335 6.63675 14.9954 7.80404 15 9C15 9.19891 15.079 9.38968 15.2197 9.53033C15.3603 9.67098 15.5511 9.75 15.75 9.75C15.9489 9.75 16.1397 9.67098 16.2803 9.53033C16.421 9.38968 16.5 9.19891 16.5 9C16.5 8.01509 16.306 7.03982 15.9291 6.12987C15.5522 5.21993 14.9997 4.39314 14.3033 3.6967C13.6069 3.00026 12.7801 2.44781 11.8701 2.0709C10.9602 1.69399 9.98491 1.5 9 1.5ZM9 9.75C9.19891 9.75 9.38968 9.67098 9.53033 9.53033C9.67098 9.38968 9.75 9.19891 9.75 9V6.75C9.75 6.55109 9.67098 6.36032 9.53033 6.21967C9.38968 6.07902 9.19891 6 9 6C8.80109 6 8.61032 6.07902 8.46967 6.21967C8.32902 6.36032 8.25 6.55109 8.25 6.75V9C8.25 9.19891 8.32902 9.38968 8.46967 9.53033C8.61032 9.67098 8.80109 9.75 9 9.75Z" fill="#303742"/>
</svg>
