<svg width="12" height="16" viewBox="0 0 12 16" fill="none" xmlns="http://www.w3.org/2000/svg">
<path d="M11.9175 6.16247C11.8552 6.03879 11.7598 5.93477 11.642 5.86196C11.5242 5.78915 11.3885 5.75039 11.25 5.74997H7.50002V1.24997C7.50807 1.08548 7.46175 0.92292 7.36822 0.787371C7.2747 0.651823 7.13915 0.550827 6.98252 0.499971C6.83194 0.450429 6.66953 0.449872 6.51861 0.498381C6.3677 0.54689 6.23603 0.64197 6.14252 0.769971L0.142518 9.01997C0.0673425 9.12862 0.0222022 9.2552 0.0116661 9.3869C0.00113003 9.5186 0.0255721 9.65075 0.0825183 9.76997C0.13496 9.90628 0.226059 10.0243 0.344636 10.1096C0.463212 10.1949 0.604104 10.2436 0.750018 10.25H4.50002V14.75C4.50013 14.9081 4.55025 15.0622 4.64319 15.1902C4.73613 15.3181 4.86715 15.4134 5.01752 15.4625C5.09287 15.4858 5.17114 15.4985 5.25002 15.5C5.36836 15.5003 5.48509 15.4726 5.59067 15.4191C5.69626 15.3657 5.7877 15.288 5.85752 15.1925L11.8575 6.94247C11.9383 6.83057 11.9867 6.69854 11.9973 6.56091C12.0079 6.42329 11.9803 6.28542 11.9175 6.16247ZM6.00002 12.44V9.49997C6.00002 9.30106 5.921 9.11029 5.78035 8.96964C5.6397 8.82899 5.44893 8.74997 5.25002 8.74997H2.25002L6.00002 3.55997V6.49997C6.00002 6.69888 6.07904 6.88965 6.21969 7.0303C6.36034 7.17095 6.55111 7.24997 6.75002 7.24997H9.75002L6.00002 12.44Z" fill="#303742"/>
</svg>
