<svg width="18" height="18" viewBox="0 0 18 18" fill="none" xmlns="http://www.w3.org/2000/svg">
<path d="M11.4953 8.96089C11.4638 7.59745 10.341 6.51321 8.97733 6.52935H2.48499V11.3924H6.68979V15.482C6.65392 16.1289 6.88262 16.7626 7.32335 17.2374C7.76408 17.7123 8.37894 17.9876 9.0267 18C9.68796 17.9935 10.3196 17.7245 10.7825 17.2523C11.2455 16.7801 11.5019 16.1433 11.4953 15.482V8.96089Z" fill="#ABABAB"/>
<path d="M2.45623 11.4459C3.81277 11.4459 4.91246 10.3462 4.91246 8.98968C4.91246 7.63314 3.81277 6.53345 2.45623 6.53345C1.09969 6.53345 0 7.63314 0 8.98968C0 10.3462 1.09969 11.4459 2.45623 11.4459Z" fill="#707070"/>
<path d="M17.4899 2.44389C17.4763 1.09018 16.3751 0 15.0213 0H8.38084C7.1193 0.126629 6.15881 1.18835 6.15881 2.45623C6.15881 3.72411 7.1193 4.78583 8.38084 4.91246H12.635V8.99794C12.5983 9.88976 13.0532 10.73 13.82 11.1869C14.5868 11.6437 15.5422 11.6437 16.309 11.1869C17.0758 10.73 17.5307 9.88976 17.494 8.99794L17.4899 2.44389Z" fill="#D6D6D6"/>
</svg>
