<svg width="18" height="18" viewBox="0 0 18 18" fill="none" xmlns="http://www.w3.org/2000/svg">
<path d="M9.0825 11.5424L6.1725 14.4524C5.82018 14.7925 5.34964 14.9825 4.86 14.9825C4.37036 14.9825 3.89982 14.7925 3.5475 14.4524C3.3747 14.2803 3.23759 14.0758 3.14404 13.8506C3.05048 13.6253 3.00232 13.3838 3.00232 13.1399C3.00232 12.8961 3.05048 12.6546 3.14404 12.4293C3.23759 12.2041 3.3747 11.9996 3.5475 11.8274L6.4575 8.91745C6.59873 8.77622 6.67807 8.58468 6.67807 8.38495C6.67807 8.18522 6.59873 7.99368 6.4575 7.85245C6.31627 7.71122 6.12473 7.63188 5.925 7.63188C5.72527 7.63188 5.53373 7.71122 5.3925 7.85245L2.4825 10.7699C1.89627 11.408 1.57921 12.2479 1.59756 13.1143C1.6159 13.9806 1.96821 14.8063 2.58092 15.419C3.19364 16.0317 4.01937 16.3841 4.88568 16.4024C5.752 16.4207 6.5919 16.1037 7.23 15.5175L10.1475 12.6074C10.2887 12.4662 10.3681 12.2747 10.3681 12.0749C10.3681 11.8752 10.2887 11.6837 10.1475 11.5424C10.0063 11.4012 9.81472 11.3219 9.615 11.3219C9.41527 11.3219 9.22373 11.4012 9.0825 11.5424ZM15.5175 2.48245C14.8866 1.85545 14.0332 1.50354 13.1437 1.50354C12.2543 1.50354 11.4009 1.85545 10.77 2.48245L7.8525 5.39245C7.78257 5.46238 7.7271 5.5454 7.68925 5.63676C7.65141 5.72813 7.63193 5.82605 7.63193 5.92495C7.63193 6.02384 7.65141 6.12177 7.68925 6.21314C7.7271 6.3045 7.78257 6.38752 7.8525 6.45745C7.92243 6.52738 8.00545 6.58285 8.09681 6.62069C8.18818 6.65854 8.28611 6.67802 8.385 6.67802C8.48389 6.67802 8.58182 6.65854 8.67319 6.62069C8.76455 6.58285 8.84757 6.52738 8.9175 6.45745L11.8275 3.54745C12.1798 3.20742 12.6504 3.01739 13.14 3.01739C13.6296 3.01739 14.1002 3.20742 14.4525 3.54745C14.6253 3.71956 14.7624 3.92411 14.856 4.14934C14.9495 4.37457 14.9977 4.61606 14.9977 4.85995C14.9977 5.10384 14.9495 5.34533 14.856 5.57056C14.7624 5.79579 14.6253 6.00033 14.4525 6.17245L11.5425 9.08245C11.4722 9.15217 11.4164 9.23512 11.3783 9.32652C11.3403 9.41791 11.3207 9.51594 11.3207 9.61495C11.3207 9.71396 11.3403 9.81199 11.3783 9.90338C11.4164 9.99478 11.4722 10.0777 11.5425 10.1474C11.6122 10.2177 11.6952 10.2735 11.7866 10.3116C11.878 10.3497 11.976 10.3693 12.075 10.3693C12.174 10.3693 12.272 10.3497 12.3634 10.3116C12.4548 10.2735 12.5378 10.2177 12.6075 10.1474L15.5175 7.22995C16.1445 6.59903 16.4964 5.74568 16.4964 4.8562C16.4964 3.96672 16.1445 3.11336 15.5175 2.48245ZM6.6225 11.3774C6.69258 11.447 6.77569 11.502 6.86707 11.5393C6.95845 11.5766 7.05629 11.5955 7.155 11.5949C7.2537 11.5955 7.35155 11.5766 7.44293 11.5393C7.53431 11.502 7.61742 11.447 7.6875 11.3774L11.3775 7.68745C11.5187 7.54622 11.5981 7.35467 11.5981 7.15495C11.5981 6.95522 11.5187 6.76368 11.3775 6.62245C11.2363 6.48122 11.0447 6.40188 10.845 6.40188C10.6453 6.40188 10.4537 6.48122 10.3125 6.62245L6.6225 10.3124C6.5522 10.3822 6.49641 10.4651 6.45833 10.5565C6.42025 10.6479 6.40065 10.7459 6.40065 10.8449C6.40065 10.944 6.42025 11.042 6.45833 11.1334C6.49641 11.2248 6.5522 11.3077 6.6225 11.3774Z" fill="#303742"/>
</svg>
