<svg width="15" height="18" viewBox="0 0 15 18" fill="none" xmlns="http://www.w3.org/2000/svg">
<path d="M14.4 6.246C14.3906 6.16332 14.3725 6.08187 14.346 6.003V5.922C14.3027 5.82946 14.245 5.7444 14.175 5.67L8.775 0.27C8.7006 0.199995 8.61554 0.142273 8.523 0.0989999H8.442C8.35057 0.0465671 8.2496 0.0129098 8.145 0H2.7C1.98392 0 1.29716 0.284464 0.790812 0.790812C0.284464 1.29716 0 1.98392 0 2.7V15.3C0 16.0161 0.284464 16.7028 0.790812 17.2092C1.29716 17.7155 1.98392 18 2.7 18H11.7C12.4161 18 13.1028 17.7155 13.6092 17.2092C14.1155 16.7028 14.4 16.0161 14.4 15.3V6.3C14.4 6.3 14.4 6.3 14.4 6.246ZM9 3.069L11.331 5.4H9.9C9.6613 5.4 9.43239 5.30518 9.2636 5.1364C9.09482 4.96761 9 4.73869 9 4.5V3.069ZM12.6 15.3C12.6 15.5387 12.5052 15.7676 12.3364 15.9364C12.1676 16.1052 11.9387 16.2 11.7 16.2H2.7C2.46131 16.2 2.23239 16.1052 2.0636 15.9364C1.89482 15.7676 1.8 15.5387 1.8 15.3V2.7C1.8 2.46131 1.89482 2.23239 2.0636 2.0636C2.23239 1.89482 2.46131 1.8 2.7 1.8H7.2V4.5C7.2 5.21608 7.48446 5.90284 7.99081 6.40919C8.49716 6.91554 9.18392 7.2 9.9 7.2H12.6V15.3Z" fill="#303742"/>
</svg>
