<svg width="16" height="16" viewBox="0 0 16 16" fill="none" xmlns="http://www.w3.org/2000/svg">
<path d="M8 3.5C7.80109 3.5 7.61032 3.57902 7.46967 3.71967C7.32902 3.86032 7.25 4.05109 7.25 4.25V11.75C7.25 11.9489 7.32902 12.1397 7.46967 12.2803C7.61032 12.421 7.80109 12.5 8 12.5C8.19891 12.5 8.38968 12.421 8.53033 12.2803C8.67098 12.1397 8.75 11.9489 8.75 11.75V4.25C8.75 4.05109 8.67098 3.86032 8.53033 3.71967C8.38968 3.57902 8.19891 3.5 8 3.5ZM4.25 8C4.05109 8 3.86032 8.07902 3.71967 8.21967C3.57902 8.36032 3.5 8.55109 3.5 8.75V11.75C3.5 11.9489 3.57902 12.1397 3.71967 12.2803C3.86032 12.421 4.05109 12.5 4.25 12.5C4.44891 12.5 4.63968 12.421 4.78033 12.2803C4.92098 12.1397 5 11.9489 5 11.75V8.75C5 8.55109 4.92098 8.36032 4.78033 8.21967C4.63968 8.07902 4.44891 8 4.25 8ZM11.75 6.5C11.5511 6.5 11.3603 6.57902 11.2197 6.71967C11.079 6.86032 11 7.05109 11 7.25V11.75C11 11.9489 11.079 12.1397 11.2197 12.2803C11.3603 12.421 11.5511 12.5 11.75 12.5C11.9489 12.5 12.1397 12.421 12.2803 12.2803C12.421 12.1397 12.5 11.9489 12.5 11.75V7.25C12.5 7.05109 12.421 6.86032 12.2803 6.71967C12.1397 6.57902 11.9489 6.5 11.75 6.5ZM13.25 0.5H2.75C2.15326 0.5 1.58097 0.737053 1.15901 1.15901C0.737053 1.58097 0.5 2.15326 0.5 2.75V13.25C0.5 13.8467 0.737053 14.419 1.15901 14.841C1.58097 15.2629 2.15326 15.5 2.75 15.5H13.25C13.8467 15.5 14.419 15.2629 14.841 14.841C15.2629 14.419 15.5 13.8467 15.5 13.25V2.75C15.5 2.15326 15.2629 1.58097 14.841 1.15901C14.419 0.737053 13.8467 0.5 13.25 0.5ZM14 13.25C14 13.4489 13.921 13.6397 13.7803 13.7803C13.6397 13.921 13.4489 14 13.25 14H2.75C2.55109 14 2.36032 13.921 2.21967 13.7803C2.07902 13.6397 2 13.4489 2 13.25V2.75C2 2.55109 2.07902 2.36032 2.21967 2.21967C2.36032 2.07902 2.55109 2 2.75 2H13.25C13.4489 2 13.6397 2.07902 13.7803 2.21967C13.921 2.36032 14 2.55109 14 2.75V13.25Z" fill="#303742"/>
</svg>
