<svg width="16" height="18" viewBox="0 0 16 18" fill="none" xmlns="http://www.w3.org/2000/svg">
<path d="M15.0139 7.50164L14.225 7.84125L13.3102 7.57125L12.8201 7.76883L11.8407 7.37437H11.7191C10.9698 6.91383 10.6573 6.26231 10.5295 5.75149C11.1483 5.7124 11.7254 5.44345 12.1513 5.00147C12.4361 5.22977 12.7936 5.35887 13.1661 5.35887C14.0604 5.35887 14.7879 4.63127 14.7879 3.73697C14.7879 3.348 14.6526 2.98146 14.4038 2.68903C14.3816 1.65326 13.5322 0.817523 12.4912 0.817523C12.1436 0.817523 11.801 0.913852 11.5046 1.09209C11.1558 0.911883 10.7691 0.817523 10.3731 0.817523C10.14 0.817523 9.91076 0.849938 9.68878 0.914133C9.11524 0.330398 8.33358 0 7.5086 0C6.93724 0 6.38613 0.156867 5.90393 0.455273C5.73574 0.408797 5.56242 0.385383 5.3865 0.385383C4.51153 0.385383 3.75279 0.979383 3.51633 1.79353C3.48124 1.79128 3.44609 1.79023 3.41079 1.79023C2.49799 1.79023 1.75535 2.53287 1.75535 3.44566C1.75535 4.35452 2.49152 5.09463 3.39891 5.10103C3.76397 5.47341 4.26066 5.68371 4.78765 5.68371C4.94206 5.68371 5.09421 5.66543 5.2418 5.63013C5.09857 6.20332 4.72894 7.08645 3.77796 7.75617L2.52485 8.39109L2.1979 7.84125H1.51165L1.23813 7.61133C0.86407 8.50219 0.657352 9.48094 0.657352 10.5075C0.657352 14.6454 4.01196 18 8.14985 18C12.2877 18 15.6417 14.6454 15.6417 10.5075C15.6417 9.43805 15.4174 8.42133 15.0139 7.50164ZM4.78772 4.98066C4.41176 4.98066 4.05977 4.81289 3.82212 4.52046C3.74723 4.42821 3.63052 4.37991 3.51267 4.39256C3.47808 4.39615 3.44384 4.39805 3.41093 4.39805C2.88584 4.39805 2.45862 3.97083 2.45862 3.44573C2.45862 2.92064 2.88584 2.49342 3.41093 2.49342C3.50733 2.49342 3.60225 2.5077 3.69316 2.53589C3.79505 2.56753 3.90572 2.55108 3.99403 2.49138C4.08241 2.43169 4.13888 2.33515 4.14766 2.22884C4.20019 1.58941 4.74441 1.08858 5.38664 1.08858C5.53901 1.08858 5.68842 1.11614 5.83052 1.17049C5.93972 1.21219 6.06241 1.19693 6.15811 1.12978C6.55538 0.850641 7.02246 0.703125 7.5086 0.703125C8.20702 0.703125 8.86521 1.01081 9.31451 1.5473C9.41224 1.66402 9.57403 1.70445 9.71501 1.64784C9.9251 1.56347 10.1465 1.52065 10.373 1.52065C10.7135 1.52065 11.0445 1.61824 11.3301 1.80281C11.4569 1.8848 11.6215 1.87664 11.7396 1.78284C11.9554 1.61135 12.2154 1.52065 12.4911 1.52065C13.1582 1.52065 13.701 2.06339 13.701 2.73052C13.701 2.7552 13.6999 2.77952 13.6985 2.80378C13.6924 2.90609 13.7313 3.00593 13.8049 3.07723C13.9853 3.25195 14.0847 3.48623 14.0847 3.73697C14.0847 4.24364 13.6725 4.65574 13.1659 4.65574C12.869 4.65574 12.5888 4.51069 12.4163 4.26776C12.3495 4.17375 12.2411 4.11771 12.1255 4.11975C12.0102 4.12109 11.9029 4.17895 11.8383 4.27451C11.5087 4.76248 10.9609 5.05385 10.373 5.05385C10.0512 5.05385 9.73617 4.96645 9.46209 4.80108C9.33166 4.7224 9.16531 4.7366 9.05013 4.83652C8.62214 5.20784 8.07462 5.4123 7.5086 5.4123C6.91974 5.4123 6.35604 5.1937 5.92137 4.79672C5.85471 4.73583 5.7697 4.70475 5.6842 4.70475C5.61544 4.70475 5.54639 4.72486 5.48642 4.76571C5.28005 4.90634 5.03845 4.98066 4.78772 4.98066ZM5.94949 5.68821C6.41792 5.9663 6.95468 6.1155 7.5086 6.1155C8.16181 6.1155 8.79588 5.90597 9.31908 5.52108C9.4725 5.5935 9.63309 5.64912 9.79784 5.68849C9.88228 6.14215 10.1007 6.82214 10.6629 7.41684V7.76876L9.7425 7.3743L8.27156 8.16251L7.16555 7.60774L6.31617 7.84118L5.64258 7.3743H5.17627C5.63597 6.76181 5.85035 6.13484 5.94949 5.68821ZM3.95993 10.832C3.95993 10.1208 4.53642 9.54429 5.24763 9.54429C5.95884 9.54429 6.53534 10.1208 6.53534 10.832C6.53534 11.5432 5.95884 12.1197 5.24763 12.1197C4.53642 12.1197 3.95993 11.5432 3.95993 10.832ZM10.6622 15.4064C10.3203 15.9424 9.49268 15.4664 8.15252 15.4624C6.81237 15.4664 5.98479 15.9424 5.64286 15.4064C5.07551 14.5169 6.63188 13.2119 8.14809 13.1999V13.1998C8.14957 13.1998 8.15105 13.1998 8.15252 13.1998C8.154 13.1998 8.15548 13.1998 8.15695 13.1998V13.1999C9.67324 13.2119 11.2296 14.5169 10.6622 15.4064ZM11.0516 12.1197C10.3404 12.1197 9.76395 11.5432 9.76395 10.832C9.76395 10.1208 10.3404 9.54429 11.0516 9.54429C11.7629 9.54429 12.3394 10.1208 12.3394 10.832C12.3394 11.5432 11.7628 12.1197 11.0516 12.1197ZM3.02639 7.25126L2.09412 6.11824L3.32515 6.00933L3.02639 7.25126ZM13.9623 6.93162C13.8751 6.88802 12.7204 6.00933 12.7204 6.00933L14.1584 5.86399L14.2891 6.2126L14.8774 6.36511L13.9623 6.93162ZM0.712547 6.0937L0 4.69568L0.831375 4.5173L1.2747 5.04612L0.712547 6.0937Z" fill="#303742"/>
</svg>
