<svg width="18" height="16" viewBox="0 0 18 16" fill="none" xmlns="http://www.w3.org/2000/svg">
<path d="M17.0614 6.51646V5.82127C17.0614 4.55001 16.189 3.48139 15.0123 3.17519L15.0102 2.02896C15.0102 0.910332 14.0999 0 12.9808 0H12.8735L3.37571 2.94637C3.15939 2.95887 2.95416 3.00889 2.76143 3.08414H2.73666C1.22785 3.08414 0 4.31199 0 5.82127V12.6161C0 14.1251 1.22762 15.3532 2.73666 15.3532H14.3247C15.8335 15.3532 17.0614 14.1254 17.0614 12.6161V11.7124C17.6094 11.5003 18 10.969 18 10.3467V7.8816C17.9998 7.25978 17.6094 6.72853 17.0614 6.51646ZM16.5844 10.3465C16.5844 10.3743 16.5624 10.3963 16.5346 10.3963H12.7034C12.6755 10.3963 12.6538 10.3743 12.6538 10.3465V7.8816C12.6538 7.85448 12.676 7.8323 12.7034 7.8323H16.5346C16.562 7.8323 16.5844 7.85448 16.5844 7.8816V10.3465ZM13.0683 1.42176C13.3658 1.46422 13.5948 1.72041 13.5948 2.03014L13.5967 3.08437H7.70893L13.0683 1.42176ZM14.3247 13.9376H2.73689C2.00726 13.9376 1.41563 13.3457 1.41563 12.6159V5.82127C1.41563 5.09116 2.00726 4.49953 2.73689 4.49953H14.3247C15.0546 4.49953 15.646 5.09116 15.646 5.82127V6.41691H12.7034C11.8957 6.41691 11.2384 7.07389 11.2384 7.8816V10.3465C11.2384 11.1545 11.8957 11.8117 12.7034 11.8117H15.646V12.6161C15.646 13.3457 15.0546 13.9376 14.3247 13.9376Z" fill="#303742"/>
</svg>
