<svg width="18" height="15" viewBox="0 0 18 15" fill="none" xmlns="http://www.w3.org/2000/svg">
<path d="M0.938641 6.36654V5.68734C0.938641 4.44533 1.81099 3.4013 2.98765 3.10214L2.98978 1.98228C2.98978 0.889389 3.90011 0 5.01921 0H5.12655L14.6243 2.87859C14.8406 2.8908 15.0458 2.93966 15.2386 3.01318H15.2633C16.7721 3.01318 18 4.21279 18 5.68734V12.3258C18 13.8002 16.7724 15 15.2633 15H3.6753C2.16649 15 0.938641 13.8004 0.938641 12.3258V11.4429C0.390648 11.2357 0 10.7167 0 10.1087V7.70028C0.000236511 7.09276 0.390648 6.57374 0.938641 6.36654ZM1.41563 10.1085C1.41563 10.1357 1.43756 10.1571 1.4654 10.1571H5.29663C5.32446 10.1571 5.34617 10.1357 5.34617 10.1085V7.70028C5.34617 7.67378 5.32399 7.65211 5.29663 7.65211H1.4654C1.43804 7.65211 1.41563 7.67378 1.41563 7.70028V10.1085ZM4.93169 1.38905C4.63423 1.43054 4.40517 1.68083 4.40517 1.98344L4.40328 3.01341H10.2911L4.93169 1.38905ZM3.6753 13.6169H15.2631C15.9927 13.6169 16.5844 13.0387 16.5844 12.3256V5.68734C16.5844 4.97403 15.9927 4.39601 15.2631 4.39601H3.6753C2.94543 4.39601 2.35403 4.97403 2.35403 5.68734V6.26928H5.29663C6.10435 6.26928 6.76156 6.91115 6.76156 7.70028V10.1085C6.76156 10.8978 6.10435 11.5399 5.29663 11.5399H2.35403V12.3258C2.35403 13.0387 2.94543 13.6169 3.6753 13.6169Z" fill="#303742"/>
</svg>
