<svg width="50" height="50" viewBox="0 0 50 50" fill="none" xmlns="http://www.w3.org/2000/svg">
<path d="M31.8 16.975L21.075 27.725L16.95 23.6C16.7259 23.3383 16.4501 23.1257 16.1399 22.9757C15.8298 22.8256 15.4919 22.7413 15.1476 22.728C14.8033 22.7147 14.46 22.7727 14.1392 22.8984C13.8184 23.0241 13.527 23.2147 13.2834 23.4584C13.0397 23.702 12.8491 23.9934 12.7234 24.3142C12.5977 24.635 12.5397 24.9783 12.553 25.3226C12.5663 25.6669 12.6506 26.0048 12.8007 26.3149C12.9508 26.6251 13.1633 26.9009 13.425 27.125L19.3 33.025C19.5336 33.2567 19.8106 33.44 20.1152 33.5644C20.4198 33.6888 20.746 33.7519 21.075 33.75C21.7309 33.7472 22.3594 33.4869 22.825 33.025L35.325 20.525C35.5593 20.2926 35.7453 20.0161 35.8722 19.7114C35.9992 19.4068 36.0645 19.08 36.0645 18.75C36.0645 18.42 35.9992 18.0932 35.8722 17.7886C35.7453 17.4839 35.5593 17.2074 35.325 16.975C34.8566 16.5094 34.223 16.248 33.5625 16.248C32.902 16.248 32.2684 16.5094 31.8 16.975ZM25 0C20.0555 0 15.222 1.46622 11.1108 4.21326C6.99953 6.9603 3.79521 10.8648 1.90302 15.4329C0.0108321 20.0011 -0.484251 25.0277 0.480379 29.8773C1.44501 34.7268 3.82603 39.1814 7.32234 42.6777C10.8187 46.174 15.2732 48.555 20.1228 49.5196C24.9723 50.4843 29.9989 49.9892 34.5671 48.097C39.1353 46.2048 43.0397 43.0005 45.7867 38.8893C48.5338 34.778 50 29.9445 50 25C50 21.717 49.3534 18.4661 48.097 15.4329C46.8406 12.3998 44.9991 9.6438 42.6777 7.32233C40.3562 5.00087 37.6002 3.15938 34.5671 1.90301C31.534 0.646644 28.2831 0 25 0ZM25 45C21.0444 45 17.1776 43.827 13.8886 41.6294C10.5996 39.4318 8.03617 36.3082 6.52242 32.6537C5.00867 28.9991 4.6126 24.9778 5.38431 21.0982C6.15601 17.2186 8.06083 13.6549 10.8579 10.8579C13.6549 8.06081 17.2186 6.156 21.0982 5.38429C24.9778 4.61259 28.9992 5.00866 32.6537 6.52241C36.3082 8.03616 39.4318 10.5996 41.6294 13.8886C43.827 17.1776 45 21.0444 45 25C45 30.3043 42.8929 35.3914 39.1421 39.1421C35.3914 42.8929 30.3043 45 25 45Z" fill="#64817A"/>
</svg>
