<svg width="40" height="36" viewBox="0 0 40 36" fill="none" xmlns="http://www.w3.org/2000/svg">
<path d="M34.9993 18.1466C34.9075 27.535 27.2223 35.0713 17.8339 34.9795C8.44547 34.8877 0.909093 27.2025 1.00089 17.8141C1.09269 8.42574 8.77791 0.889361 18.1663 0.981162C27.5547 1.07296 35.0911 8.75818 34.9993 18.1466Z" fill="#303742"/>
<path fill-rule="evenodd" clip-rule="evenodd" d="M18.9268 5.91776C12.0408 6.08947 6.48318 11.4868 6.41777 18.1765C6.35235 24.8661 11.8034 30.3711 18.6847 30.6775L18.7267 26.3796C14.3107 26.1085 10.8352 22.543 10.8775 18.2202C10.9198 13.8975 14.4643 10.4005 18.8848 10.2159L18.9268 5.91776Z" fill="white"/>
<path fill-rule="evenodd" clip-rule="evenodd" d="M18.8557 13.1846L18.7556 23.4254C18.7554 23.4254 18.7553 23.4254 18.7551 23.4253C15.9272 23.3977 13.6571 21.0828 13.6848 18.2549C13.7124 15.427 16.0273 13.1569 18.8552 13.1846C18.8554 13.1846 18.8556 13.1846 18.8557 13.1846Z" fill="white"/>
<path fill-rule="evenodd" clip-rule="evenodd" d="M18.7673 26.3344C23.2448 26.2117 26.8502 22.6931 26.882 18.3429C26.9139 13.9928 23.3604 10.4218 18.8851 10.2336L18.8647 13.0285C21.7368 13.1976 24.0025 15.5106 23.982 18.3217C23.9614 21.1327 21.6621 23.4123 18.7878 23.5394L18.7673 26.3344Z" fill="white"/>
<mask id="mask0_1344_2541" style="mask-type:alpha" maskUnits="userSpaceOnUse" x="5" y="1" width="34" height="35">
<path d="M38.9991 18.1856C38.9073 27.574 31.2221 35.1104 21.8337 35.0186C12.4453 34.9268 4.90897 27.2416 5.00077 17.8532C5.09257 8.4648 12.7778 0.928423 22.1662 1.02022C31.5546 1.11203 39.0909 8.79724 38.9991 18.1856Z" fill="#303742"/>
</mask>
<g mask="url(#mask0_1344_2541)">
<rect x="23.8104" y="23.6348" width="3.05786" height="9.24476" transform="rotate(-53.6655 23.8104 23.6348)" fill="white"/>
</g>
</svg>
