<svg width="14" height="14" viewBox="0 0 14 14" fill="none" xmlns="http://www.w3.org/2000/svg">
<path d="M10.8256 8.62241L10.2615 8.94826L10.7221 9.40892L13.4857 12.1726L12.1712 13.4873L9.40786 10.7236L8.94717 10.2629L8.62131 10.8271L7.50611 12.758L4.02278 4.02328L12.7564 7.50715L10.8256 8.62241ZM13.5082 12.1951C13.5082 12.1951 13.5081 12.195 13.5081 12.195L13.5082 12.1951L13.5082 12.1951ZM12.8133 7.4743L12.8132 7.47432L12.8133 7.4743Z" stroke="#303742"/>
<path d="M2.05511 1.39291C1.87226 1.2102 1.5759 1.21015 1.39296 1.39291C1.21016 1.57576 1.21016 1.87221 1.39296 2.05506L2.43325 3.09534C2.52465 3.18675 2.64443 3.23247 2.7643 3.23247C2.88408 3.23247 3.0039 3.18675 3.0953 3.09534C3.27815 2.9125 3.27815 2.61609 3.0953 2.43324L2.05511 1.39291Z" fill="#303742"/>
<path d="M2.40762 4.62931C2.40762 4.3708 2.198 4.16113 1.9394 4.16113H0.468222C0.20967 4.16113 0 4.37076 0 4.62931C0 4.88786 0.209623 5.09753 0.468222 5.09753H1.9394C2.198 5.09748 2.40762 4.88786 2.40762 4.62931Z" fill="#303742"/>
<path d="M2.21757 6.07455L1.17714 7.11493C0.994339 7.29778 0.994339 7.59423 1.17714 7.77703C1.26859 7.86843 1.38841 7.91416 1.50819 7.91416C1.62797 7.91416 1.74784 7.86843 1.83924 7.77703L2.87962 6.7367C3.06247 6.55385 3.06247 6.2574 2.87962 6.07455C2.69682 5.89184 2.40051 5.89179 2.21757 6.07455Z" fill="#303742"/>
<path d="M4.62931 2.40772C4.88786 2.40772 5.09753 2.19809 5.09753 1.9395V0.468175C5.09753 0.209623 4.88791 0 4.62931 0C4.3708 0 4.16113 0.209576 4.16113 0.468175V1.93954C4.16113 2.19809 4.37076 2.40772 4.62931 2.40772Z" fill="#303742"/>
<path d="M6.4052 3.01764C6.52507 3.01764 6.64485 2.97192 6.73625 2.88052L7.77649 1.84023C7.95934 1.65738 7.95934 1.36093 7.77649 1.17808C7.59364 0.995327 7.29719 0.995327 7.11439 1.17808L6.07415 2.21842C5.8913 2.40127 5.8913 2.69772 6.07415 2.88052C6.1656 2.97192 6.28537 3.01764 6.4052 3.01764Z" fill="#303742"/>
</svg>
