<svg width="14" height="14" viewBox="0 0 14 14" fill="none" xmlns="http://www.w3.org/2000/svg">
<path d="M8.17511 7.00015L13.4251 1.75849C13.582 1.60157 13.6702 1.38874 13.6702 1.16682C13.6702 0.944903 13.582 0.732074 13.4251 0.575155C13.2682 0.418235 13.0554 0.330078 12.8334 0.330078C12.6115 0.330078 12.3987 0.418235 12.2418 0.575155L7.00011 5.82515L1.75845 0.575155C1.60153 0.418235 1.3887 0.330078 1.16678 0.330078C0.944861 0.330078 0.732032 0.418235 0.575112 0.575155C0.418192 0.732074 0.330036 0.944903 0.330036 1.16682C0.330036 1.38874 0.418192 1.60157 0.575112 1.75849L5.82511 7.00015L0.575112 12.2418C0.497005 12.3193 0.43501 12.4115 0.392703 12.513C0.350395 12.6146 0.328613 12.7235 0.328613 12.8335C0.328613 12.9435 0.350395 13.0524 0.392703 13.154C0.43501 13.2555 0.497005 13.3477 0.575112 13.4252C0.652581 13.5033 0.744749 13.5653 0.846298 13.6076C0.947847 13.6499 1.05677 13.6717 1.16678 13.6717C1.27679 13.6717 1.38571 13.6499 1.48726 13.6076C1.58881 13.5653 1.68098 13.5033 1.75845 13.4252L7.00011 8.17515L12.2418 13.4252C12.3192 13.5033 12.4114 13.5653 12.513 13.6076C12.6145 13.6499 12.7234 13.6717 12.8334 13.6717C12.9435 13.6717 13.0524 13.6499 13.1539 13.6076C13.2555 13.5653 13.3476 13.5033 13.4251 13.4252C13.5032 13.3477 13.5652 13.2555 13.6075 13.154C13.6498 13.0524 13.6716 12.9435 13.6716 12.8335C13.6716 12.7235 13.6498 12.6146 13.6075 12.513C13.5652 12.4115 13.5032 12.3193 13.4251 12.2418L8.17511 7.00015Z" fill="#303742"/>
</svg>
