<svg width="23" height="22" viewBox="0 0 23 22" fill="none" xmlns="http://www.w3.org/2000/svg">
<path d="M10.5382 20.9998L5.64299 16.1045C5.46359 15.9262 5.32151 15.7139 5.22504 15.4801C5.12856 15.2463 5.07963 14.9956 5.08109 14.7426C5.08109 14.2374 5.28177 13.753 5.63898 13.3957C5.99619 13.0385 6.48067 12.8379 6.98585 12.8379C7.23879 12.8364 7.4895 12.8853 7.72332 12.9818C7.95715 13.0783 8.16943 13.2204 8.34775 13.3998L9.60489 14.6569V5.64738C9.60095 5.18232 9.76729 4.73188 10.0726 4.381C10.3778 4.03013 10.8009 3.80306 11.262 3.74262C11.5278 3.71867 11.7955 3.75409 12.0459 3.84633C12.2962 3.93857 12.523 4.08532 12.7097 4.27595C12.8792 4.44235 13.0137 4.64099 13.1053 4.86016C13.1969 5.07933 13.2437 5.3146 13.243 5.55214V10.9998L18.0049 11.6855C18.4382 11.7474 18.8348 11.9634 19.1217 12.2941C19.4086 12.6247 19.5666 13.0477 19.5668 13.4855C19.5689 16.0347 18.9754 18.5492 17.8335 20.8283L17.7477 20.9998" stroke="#303742" stroke-miterlimit="10"/>
<path d="M18.7197 6.45714L21.4435 3.72381L18.7197 1" fill="#303742"/>
<path d="M18.7197 6.45714L21.4435 3.72381L18.7197 1" stroke="#303742" stroke-miterlimit="10"/>
<path d="M15.0811 3.72363H21.443" stroke="#303742" stroke-miterlimit="10"/>
<path d="M4.16717 6.45714L1.44336 3.72381L4.16717 1" fill="#303742"/>
<path d="M4.16717 6.45714L1.44336 3.72381L4.16717 1" stroke="#303742" stroke-miterlimit="10"/>
<path d="M7.80526 3.72363H1.44336" stroke="#303742" stroke-miterlimit="10"/>
</svg>
