<svg width="15" height="22" viewBox="0 0 15 22" fill="none" xmlns="http://www.w3.org/2000/svg">
<path d="M2.13834 5.73684C2.13834 3.12076 4.2591 1 6.87518 1C9.49129 1 11.612 3.12076 11.612 5.73684M8.45413 10.8245V5.73685C8.45413 4.86482 7.74729 4.15789 6.87518 4.15789C6.00318 4.15789 5.29627 4.86482 5.29627 5.73685V15.6749L3.2783 14.3692C2.63388 13.9522 1.77745 14.0986 1.30813 14.706C0.873931 15.2679 0.901299 16.0593 1.37326 16.5899L5.29627 21H13.7173C13.8844 19.4957 14.1839 16.9579 14.4209 14.9685C14.6167 13.3243 13.5112 11.8079 11.8858 11.4918L8.45413 10.8245Z" stroke="#303742" stroke-linecap="round" stroke-linejoin="round"/>
</svg>
