<svg width="9" height="20" viewBox="0 0 9 20" fill="none" xmlns="http://www.w3.org/2000/svg">
<path d="M1.3501 14.5996L0 15.9497L4.05032 19.9999L8.10056 15.9497L6.75048 14.5996L4.05032 17.2998L1.3501 14.5996Z" fill="#303742"/>
<path d="M6.75047 5.40036L8.10055 4.05027L4.05031 0L0 4.05027L1.3501 5.40036L4.05031 2.70018L6.75047 5.40036Z" fill="#303742"/>
<path fill-rule="evenodd" clip-rule="evenodd" d="M4.05051 7.13574C5.63219 7.13574 6.91449 8.41796 6.91449 9.99974C6.91449 11.5814 5.63219 12.8637 4.05051 12.8637C2.46873 12.8637 1.18652 11.5814 1.18652 9.99974C1.18652 8.41796 2.46873 7.13574 4.05051 7.13574ZM4.05051 9.04508C4.57777 9.04508 5.00517 9.47248 5.00517 9.99974C5.00517 10.527 4.57777 10.9544 4.05051 10.9544C3.52325 10.9544 3.09585 10.527 3.09585 9.99974C3.09585 9.47248 3.52325 9.04508 4.05051 9.04508Z" fill="#303742"/>
</svg>
