<svg width="20" height="20" viewBox="0 0 20 20" fill="none" xmlns="http://www.w3.org/2000/svg">
<path d="M19.7099 2.72006L17.2799 0.29006C17.0925 0.103809 16.8391 -0.000732422 16.5749 -0.000732422C16.3107 -0.000732422 16.0573 0.103809 15.8699 0.29006L10.2899 5.87006C10.1972 5.9635 10.1239 6.07432 10.0741 6.19615C10.0244 6.31799 9.99913 6.44845 9.9999 6.58006V9.00006C9.9999 9.26528 10.1053 9.51963 10.2928 9.70717C10.4803 9.8947 10.7347 10.0001 10.9999 10.0001H13.4199C13.5515 10.0008 13.682 9.9756 13.8038 9.92583C13.9256 9.87607 14.0365 9.80274 14.1299 9.71006L19.7099 4.13006C19.8961 3.9427 20.0007 3.68925 20.0007 3.42506C20.0007 3.16087 19.8961 2.90742 19.7099 2.72006ZM12.9999 8.00006H11.9999V7.00006L16.5799 2.42006L17.5799 3.42006L12.9999 8.00006ZM16.9999 10.0001C16.7347 10.0001 16.4803 10.1054 16.2928 10.293C16.1053 10.4805 15.9999 10.7348 15.9999 11.0001C15.9999 12.8566 15.2624 14.6371 13.9496 15.9498C12.6369 17.2626 10.8564 18.0001 8.9999 18.0001H3.4099L4.0499 17.3701C4.14362 17.2771 4.21802 17.1665 4.26879 17.0446C4.31956 16.9228 4.34569 16.7921 4.34569 16.6601C4.34569 16.528 4.31956 16.3973 4.26879 16.2755C4.21802 16.1536 4.14362 16.043 4.0499 15.9501C3.07083 14.9711 2.40406 13.7238 2.13392 12.3658C1.86378 11.0079 2.00241 9.60035 2.53226 8.32121C3.06212 7.04206 3.9594 5.94878 5.11064 5.17961C6.26188 4.41045 7.61535 3.99996 8.9999 4.00006C9.26511 4.00006 9.51947 3.8947 9.707 3.70717C9.89454 3.51963 9.9999 3.26528 9.9999 3.00006C9.9999 2.73484 9.89454 2.48049 9.707 2.29295C9.51947 2.10542 9.26511 2.00006 8.9999 2.00006C7.30736 2.00562 5.6507 2.48834 4.22008 3.3928C2.78947 4.29726 1.64289 5.58679 0.911964 7.11338C0.181041 8.63996 -0.104596 10.3417 0.0878399 12.0233C0.280276 13.7048 0.942987 15.2981 1.9999 16.6201L0.289895 18.2901C0.151138 18.4307 0.0571415 18.6093 0.0197673 18.8032C-0.0176068 18.9972 0.00331588 19.1979 0.0798953 19.3801C0.154915 19.5627 0.282313 19.719 0.446034 19.8293C0.609754 19.9397 0.80247 19.9991 0.999895 20.0001H8.9999C10.1818 20.0001 11.3521 19.7673 12.444 19.315C13.536 18.8627 14.5281 18.1997 15.3639 17.364C16.1996 16.5283 16.8625 15.5361 17.3148 14.4442C17.7671 13.3523 17.9999 12.182 17.9999 11.0001C17.9999 10.7348 17.8945 10.4805 17.707 10.293C17.5195 10.1054 17.2651 10.0001 16.9999 10.0001Z" fill="#303742"/>
</svg>
