<svg width="18" height="18" viewBox="0 0 18 18" fill="none" xmlns="http://www.w3.org/2000/svg">
<path d="M14.3062 2.34212C13.1738 1.40825 11.8188 0.783548 10.3733 0.528837C8.92774 0.274127 7.44087 0.39809 6.05745 0.888657C4.67404 1.37922 3.44124 2.21967 2.47909 3.32817C1.51694 4.43666 0.858242 5.77542 0.567131 7.21408C0.320946 8.45396 0.352419 9.73297 0.659291 10.9592C0.966164 12.1855 1.54082 13.3286 2.34197 14.3064C3.13898 15.2766 4.14197 16.0573 5.27819 16.5918C6.41441 17.1263 7.65535 17.4011 8.91099 17.3964L16.4134 17.4035C16.5454 17.404 16.6762 17.3784 16.7983 17.3282C16.9203 17.2779 17.0313 17.204 17.1246 17.1106C17.2179 17.0173 17.2919 16.9064 17.3422 16.7843C17.3924 16.6622 17.418 16.5314 17.4175 16.3994L17.3963 8.91114C17.401 7.6555 17.1261 6.41455 16.5917 5.27834C16.0572 4.14212 15.2765 3.13912 14.3062 2.34212ZM15.4093 8.90407L15.4093 15.4094L8.90392 15.4094C7.94518 15.4094 6.99836 15.197 6.13152 14.7874C5.26467 14.3778 4.49934 13.7813 3.89053 13.0406C3.27176 12.2892 2.8277 11.4096 2.59046 10.4656C2.35321 9.52148 2.32872 8.53648 2.51875 7.58178C2.7706 6.33323 3.38538 5.1868 4.28601 4.28616C5.18665 3.38552 6.33309 2.77075 7.58163 2.51889C8.53312 2.32913 9.51483 2.35245 10.4562 2.58719C11.3976 2.82193 12.2754 3.26226 13.0264 3.87654C13.7714 4.48548 14.3718 5.25248 14.7839 6.122C15.196 6.99152 15.4097 7.94181 15.4093 8.90407ZM5.75729 5.75744C5.12796 6.38678 4.69938 7.1886 4.52574 8.06152C4.35211 8.93443 4.44122 9.83923 4.78182 10.6615C5.12241 11.4838 5.69919 12.1866 6.43921 12.681C7.17923 13.1755 8.04926 13.4394 8.93928 13.4394C9.82929 13.4394 10.6993 13.1755 11.4393 12.681C12.1794 12.1866 12.7561 11.4838 13.0967 10.6615C13.4373 9.83923 13.5264 8.93443 13.3528 8.06152C13.1792 7.1886 12.7506 6.38678 12.1213 5.75744C11.276 4.91597 10.1319 4.44355 8.93928 4.44355C7.74661 4.44355 6.6025 4.91597 5.75729 5.75744ZM10.707 10.7072C10.3574 11.0568 9.91195 11.2949 9.427 11.3914C8.94205 11.4878 8.43938 11.4383 7.98257 11.2491C7.52575 11.0599 7.1353 10.7395 6.8606 10.3283C6.5859 9.91722 6.43928 9.43388 6.43928 8.93942C6.43928 8.44497 6.5859 7.96162 6.8606 7.5505C7.1353 7.13937 7.52575 6.81894 7.98257 6.62972C8.43938 6.4405 8.94205 6.391 9.427 6.48746C9.91195 6.58392 10.3574 6.82202 10.707 7.17166C11.1759 7.6405 11.4393 8.27638 11.4393 8.93942C11.4393 9.60246 11.1759 10.2383 10.707 10.7072Z" fill="#418efd"/>
</svg>
