<svg width="10" height="6" viewBox="0 0 10 6" fill="none" xmlns="http://www.w3.org/2000/svg">
<path d="M9.16671 0.641619C9.01057 0.48641 8.79936 0.399292 8.57921 0.399292C8.35905 0.399292 8.14784 0.48641 7.9917 0.641619L5.00004 3.59162L2.05004 0.641619C1.8939 0.48641 1.68269 0.399292 1.46254 0.399292C1.24238 0.399292 1.03117 0.48641 0.875039 0.641619C0.796932 0.719088 0.734936 0.811256 0.692629 0.912805C0.650322 1.01435 0.62854 1.12328 0.62854 1.23329C0.62854 1.3433 0.650322 1.45222 0.692629 1.55377C0.734936 1.65532 0.796932 1.74748 0.875039 1.82495L4.40837 5.35829C4.48584 5.43639 4.57801 5.49839 4.67956 5.54069C4.78111 5.583 4.89003 5.60478 5.00004 5.60478C5.11005 5.60478 5.21897 5.583 5.32052 5.54069C5.42207 5.49839 5.51424 5.43639 5.5917 5.35829L9.16671 1.82495C9.24481 1.74748 9.30681 1.65532 9.34911 1.55377C9.39142 1.45222 9.4132 1.3433 9.4132 1.23329C9.4132 1.12328 9.39142 1.01435 9.34911 0.912805C9.30681 0.811256 9.24481 0.719088 9.16671 0.641619Z" fill="#303742"/>
</svg>
