<svg width="18" height="18" viewBox="0 0 18 18" fill="none" xmlns="http://www.w3.org/2000/svg">
<path d="M14.8333 2.33341H13.1667V1.50008C13.1667 1.27907 13.0789 1.06711 12.9226 0.910826C12.7663 0.754545 12.5543 0.666748 12.3333 0.666748C12.1123 0.666748 11.9004 0.754545 11.7441 0.910826C11.5878 1.06711 11.5 1.27907 11.5 1.50008V2.33341H6.5V1.50008C6.5 1.27907 6.4122 1.06711 6.25592 0.910826C6.09964 0.754545 5.88768 0.666748 5.66667 0.666748C5.44565 0.666748 5.23369 0.754545 5.07741 0.910826C4.92113 1.06711 4.83333 1.27907 4.83333 1.50008V2.33341H3.16667C2.50362 2.33341 1.86774 2.59681 1.3989 3.06565C0.930058 3.53449 0.666666 4.17037 0.666666 4.83342V14.8334C0.666666 15.4965 0.930058 16.1323 1.3989 16.6012C1.86774 17.07 2.50362 17.3334 3.16667 17.3334H14.8333C15.4964 17.3334 16.1323 17.07 16.6011 16.6012C17.0699 16.1323 17.3333 15.4965 17.3333 14.8334V4.83342C17.3333 4.17037 17.0699 3.53449 16.6011 3.06565C16.1323 2.59681 15.4964 2.33341 14.8333 2.33341ZM15.6667 14.8334C15.6667 15.0544 15.5789 15.2664 15.4226 15.4227C15.2663 15.579 15.0543 15.6667 14.8333 15.6667H3.16667C2.94565 15.6667 2.73369 15.579 2.57741 15.4227C2.42113 15.2664 2.33333 15.0544 2.33333 14.8334V9.00008H15.6667V14.8334ZM15.6667 7.33342H2.33333V4.83342C2.33333 4.6124 2.42113 4.40044 2.57741 4.24416C2.73369 4.08788 2.94565 4.00008 3.16667 4.00008H4.83333V4.83342C4.83333 5.05443 4.92113 5.26639 5.07741 5.42267C5.23369 5.57895 5.44565 5.66675 5.66667 5.66675C5.88768 5.66675 6.09964 5.57895 6.25592 5.42267C6.4122 5.26639 6.5 5.05443 6.5 4.83342V4.00008H11.5V4.83342C11.5 5.05443 11.5878 5.26639 11.7441 5.42267C11.9004 5.57895 12.1123 5.66675 12.3333 5.66675C12.5543 5.66675 12.7663 5.57895 12.9226 5.42267C13.0789 5.26639 13.1667 5.05443 13.1667 4.83342V4.00008H14.8333C15.0543 4.00008 15.2663 4.08788 15.4226 4.24416C15.5789 4.40044 15.6667 4.6124 15.6667 4.83342V7.33342Z" fill="#303742"/>
</svg>
