<svg width="20" height="20" viewBox="0 0 20 20" fill="none" xmlns="http://www.w3.org/2000/svg">
<path d="M18.4043 0.531738H1.59574C0.71583 0.531738 0 1.24761 0 2.12748V14.8934C0 15.7733 0.71583 16.4892 1.59574 16.4892H7.76596V18.8296H5.53191C5.35566 18.8296 5.21277 18.9725 5.21277 19.1488C5.21277 19.325 5.35566 19.4679 5.53191 19.4679H14.4681C14.6443 19.4679 14.7872 19.325 14.7872 19.1488C14.7872 18.9725 14.6443 18.8296 14.4681 18.8296H12.234V16.4892H18.4043C19.2842 16.4892 20 15.7733 20 14.8934V2.12748C20 1.24761 19.2842 0.531738 18.4043 0.531738ZM11.5957 18.8296H8.40425V16.4892H11.5957V18.8296ZM19.3617 14.8934C19.3617 15.4214 18.9322 15.8509 18.4043 15.8509H1.59574C1.06779 15.8509 0.638298 15.4214 0.638298 14.8934V13.936H19.3617V14.8934ZM19.3617 13.2977H0.638298V2.12748C0.638298 1.59957 1.06779 1.17004 1.59574 1.17004H18.4043C18.9322 1.17004 19.3617 1.59957 19.3617 2.12748V13.2977Z" fill="#303742"/>
</svg>
