<svg width="14" height="16" viewBox="0 0 14 16" fill="none" xmlns="http://www.w3.org/2000/svg">
<path d="M12.4502 5.50006L4.40018 0.883396C3.96458 0.631862 3.47017 0.500094 2.96717 0.501476C2.46417 0.502857 1.97049 0.637339 1.53628 0.891262C1.10208 1.14518 0.742807 1.5095 0.494966 1.94721C0.247125 2.38492 0.119543 2.88042 0.125179 3.3834V12.6501C0.125179 13.4059 0.425446 14.1308 0.959924 14.6653C1.4944 15.1998 2.21931 15.5001 2.97518 15.5001C3.47554 15.4992 3.96692 15.367 4.40018 15.1167L12.4502 10.5001C12.8827 10.2497 13.2418 9.89004 13.4915 9.45709C13.7412 9.02415 13.8726 8.53316 13.8726 8.0334C13.8726 7.53363 13.7412 7.04264 13.4915 6.6097C13.2418 6.17675 12.8827 5.81707 12.4502 5.56673V5.50006ZM11.6168 8.99173L3.56685 13.6751C3.38642 13.7773 3.18257 13.8311 2.97518 13.8311C2.76779 13.8311 2.56394 13.7773 2.38351 13.6751C2.20359 13.5712 2.05419 13.4218 1.95033 13.2418C1.84647 13.0619 1.79181 12.8578 1.79185 12.6501V3.35006C1.79181 3.14231 1.84647 2.93821 1.95033 2.75828C2.05419 2.57835 2.20359 2.42894 2.38351 2.32506C2.56468 2.22436 2.76793 2.16997 2.97518 2.16673C3.18229 2.17098 3.38529 2.22531 3.56685 2.32506L11.6168 6.97506C11.7968 7.07889 11.9463 7.22829 12.0502 7.40822C12.1542 7.58815 12.2089 7.79227 12.2089 8.00006C12.2089 8.20785 12.1542 8.41197 12.0502 8.5919C11.9463 8.77184 11.7968 8.92123 11.6168 9.02506V8.99173Z" fill="#303742"/>
</svg>
