<svg width="18" height="18" viewBox="0 0 18 18" fill="none" xmlns="http://www.w3.org/2000/svg">
<path d="M9.00002 0.666639C7.72326 0.664329 6.46304 0.955422 5.31664 1.51745C4.17023 2.07948 3.1683 2.89741 2.38817 3.90811C1.60804 4.91881 1.07057 6.09525 0.817267 7.34664C0.563959 8.59802 0.601578 9.89087 0.92722 11.1254C1.25286 12.3599 1.85782 13.5031 2.6954 14.4668C3.53298 15.4304 4.58078 16.1887 5.75792 16.6831C6.93507 17.1775 8.21008 17.3948 9.48454 17.3183C10.759 17.2418 11.9988 16.8734 13.1084 16.2416H13.1667H13.2084C14.8127 15.3283 16.0684 13.9081 16.7783 12.2039C17.4882 10.4997 17.6121 8.60805 17.1305 6.82583C16.649 5.04361 15.5893 3.47175 14.1177 2.35698C12.6461 1.24222 10.8461 0.64766 9.00002 0.666639ZM9.83335 2.39164C11.3 2.57763 12.6633 3.24589 13.7087 4.29129C14.7541 5.3367 15.4224 6.69996 15.6084 8.16664H9.83335V2.39164ZM9.00002 15.6666C7.31211 15.6551 5.6914 15.0038 4.46497 13.844C3.23854 12.6842 2.49769 11.1024 2.39194 9.4178C2.28619 7.73317 2.8234 6.07113 3.89517 4.76711C4.96694 3.46308 6.49347 2.61415 8.16669 2.39164V8.99997C8.16997 9.09974 8.18968 9.19828 8.22502 9.29164V9.35831V9.41664L11.5584 15.1416C10.7498 15.4877 9.87951 15.6663 9.00002 15.6666ZM13.025 14.3L10.4417 9.83331H15.6084C15.4962 10.7121 15.2099 11.5598 14.7663 12.3267C14.3228 13.0936 13.7308 13.7645 13.025 14.3Z" fill="#303742"/>
</svg>
