<svg width="16" height="20" viewBox="0 0 16 20" fill="none" xmlns="http://www.w3.org/2000/svg">
<path d="M0.666992 9.99992C0.666992 10.243 0.763569 10.4762 0.935478 10.6481C1.10739 10.82 1.34054 10.9166 1.58366 10.9166H8.54116L6.43283 13.0158C6.34691 13.101 6.27871 13.2024 6.23218 13.3141C6.18564 13.4258 6.16168 13.5456 6.16168 13.6666C6.16168 13.7876 6.18564 13.9074 6.23218 14.0191C6.27871 14.1308 6.34691 14.2322 6.43283 14.3174C6.51804 14.4033 6.61943 14.4715 6.73113 14.5181C6.84283 14.5646 6.96265 14.5886 7.08366 14.5886C7.20467 14.5886 7.32448 14.5646 7.43619 14.5181C7.54789 14.4715 7.64928 14.4033 7.73449 14.3174L11.4012 10.6508C11.4846 10.5636 11.55 10.4608 11.5937 10.3483C11.6853 10.1251 11.6853 9.87476 11.5937 9.65158C11.55 9.53906 11.4846 9.43626 11.4012 9.34908L7.73449 5.68242C7.64902 5.59695 7.54756 5.52915 7.43589 5.4829C7.32422 5.43664 7.20453 5.41283 7.08366 5.41283C6.96279 5.41283 6.8431 5.43664 6.73143 5.4829C6.61976 5.52915 6.51829 5.59695 6.43283 5.68242C6.34736 5.76789 6.27956 5.86935 6.2333 5.98102C6.18705 6.09269 6.16324 6.21238 6.16324 6.33325C6.16324 6.45412 6.18705 6.57381 6.2333 6.68548C6.27956 6.79715 6.34736 6.89862 6.43283 6.98409L8.54116 9.08325H1.58366C1.34054 9.08325 1.10739 9.17983 0.935478 9.35174C0.763569 9.52365 0.666992 9.7568 0.666992 9.99992ZM12.5837 0.833252H3.41699C2.68765 0.833252 1.98817 1.12298 1.47245 1.63871C0.956724 2.15443 0.666992 2.85391 0.666992 3.58325V6.33325C0.666992 6.57637 0.763569 6.80952 0.935478 6.98143C1.10739 7.15334 1.34054 7.24992 1.58366 7.24992C1.82677 7.24992 2.05993 7.15334 2.23184 6.98143C2.40375 6.80952 2.50033 6.57637 2.50033 6.33325V3.58325C2.50033 3.34014 2.5969 3.10698 2.76881 2.93507C2.94072 2.76316 3.17388 2.66659 3.41699 2.66659H12.5837C12.8268 2.66659 13.0599 2.76316 13.2318 2.93507C13.4037 3.10698 13.5003 3.34014 13.5003 3.58325V16.4166C13.5003 16.6597 13.4037 16.8929 13.2318 17.0648C13.0599 17.2367 12.8268 17.3333 12.5837 17.3333H3.41699C3.17388 17.3333 2.94072 17.2367 2.76881 17.0648C2.5969 16.8929 2.50033 16.6597 2.50033 16.4166V13.6666C2.50033 13.4235 2.40375 13.1903 2.23184 13.0184C2.05993 12.8465 1.82677 12.7499 1.58366 12.7499C1.34054 12.7499 1.10739 12.8465 0.935478 13.0184C0.763569 13.1903 0.666992 13.4235 0.666992 13.6666V16.4166C0.666992 17.1459 0.956724 17.8454 1.47245 18.3611C1.98817 18.8769 2.68765 19.1666 3.41699 19.1666H12.5837C13.313 19.1666 14.0125 18.8769 14.5282 18.3611C15.0439 17.8454 15.3337 17.1459 15.3337 16.4166V3.58325C15.3337 2.85391 15.0439 2.15443 14.5282 1.63871C14.0125 1.12298 13.313 0.833252 12.5837 0.833252Z" fill="black"/>
</svg>
