<svg width="116" height="25" viewBox="0 0 116 25" fill="none" xmlns="http://www.w3.org/2000/svg">
<path d="M34.6357 7.93902V18.9127H32.8135V17.2907C32.4664 17.8514 31.9791 18.2919 31.3516 18.6123C30.7375 18.9194 30.0567 19.0729 29.3091 19.0729C28.4547 19.0729 27.6871 18.8994 27.0062 18.5523C26.3254 18.1918 25.7847 17.6578 25.3842 16.9503C24.997 16.2427 24.8035 15.3816 24.8035 14.367V7.93902H26.6057V14.1267C26.6057 15.2081 26.8794 16.0425 27.4267 16.6299C27.9741 17.2039 28.7217 17.4909 29.6695 17.4909C30.6441 17.4909 31.4117 17.1906 31.9724 16.5898C32.5331 15.9891 32.8135 15.1146 32.8135 13.9665V7.93902H34.6357Z" fill="#303742"/>
<path d="M41.5974 19.0929C40.7563 19.0929 40.0021 18.9528 39.3346 18.6724C38.6671 18.3787 38.1397 17.9782 37.7526 17.4709C37.3654 16.9503 37.1518 16.3562 37.1118 15.6887H38.9941C39.0475 16.236 39.3012 16.6833 39.7551 17.0304C40.2223 17.3775 40.8298 17.551 41.5774 17.551C42.2716 17.551 42.8189 17.3975 43.2194 17.0904C43.6199 16.7834 43.8202 16.3962 43.8202 15.929C43.8202 15.4484 43.6066 15.0946 43.1794 14.8677C42.7522 14.6274 42.0913 14.3937 41.1969 14.1668C40.3825 13.9532 39.715 13.7396 39.1944 13.526C38.6871 13.299 38.2465 12.972 37.8727 12.5448C37.5123 12.1042 37.3321 11.5302 37.3321 10.8226C37.3321 10.2619 37.4989 9.74794 37.8327 9.28069C38.1664 8.81344 38.6404 8.44632 39.2545 8.17932C39.8686 7.89897 40.5694 7.75879 41.3571 7.75879C42.5719 7.75879 43.5532 8.06584 44.3008 8.67994C45.0483 9.29404 45.4488 10.1351 45.5022 11.2031H43.68C43.6399 10.629 43.4063 10.1685 42.9791 9.82137C42.5653 9.47427 42.0046 9.30072 41.297 9.30072C40.6429 9.30072 40.1222 9.44089 39.7351 9.72124C39.3479 10.0016 39.1543 10.3687 39.1543 10.8226C39.1543 11.1831 39.2678 11.4834 39.4948 11.7237C39.7351 11.9507 40.0288 12.1376 40.3759 12.2844C40.7363 12.4179 41.2303 12.5715 41.8577 12.745C42.6453 12.9586 43.2861 13.1722 43.7801 13.3858C44.274 13.5861 44.6946 13.8931 45.0417 14.307C45.4021 14.7208 45.589 15.2615 45.6024 15.929C45.6024 16.5297 45.4355 17.0704 45.1017 17.551C44.768 18.0316 44.2941 18.4121 43.68 18.6924C43.0792 18.9594 42.385 19.0929 41.5974 19.0929Z" fill="#303742"/>
<path d="M58.1873 13.0053C58.1873 13.3524 58.1673 13.7196 58.1272 14.1067H49.3563C49.423 15.1881 49.7901 16.0358 50.4576 16.6499C51.1385 17.2506 51.9595 17.551 52.9207 17.551C53.7084 17.551 54.3625 17.3708 54.8832 17.0103C55.4172 16.6365 55.791 16.1426 56.0046 15.5285H57.967C57.6733 16.5831 57.0859 17.4442 56.2048 18.1117C55.3237 18.7659 54.229 19.0929 52.9207 19.0929C51.8794 19.0929 50.9449 18.8593 50.1172 18.3921C49.3029 17.9248 48.6621 17.264 48.1948 16.4096C47.7276 15.5418 47.4939 14.5406 47.4939 13.4058C47.4939 12.2711 47.7209 11.2765 48.1748 10.4221C48.6287 9.56772 49.2628 8.91357 50.0772 8.45967C50.9049 7.99242 51.8527 7.75879 52.9207 7.75879C53.962 7.75879 54.8832 7.98574 55.6842 8.43964C56.4852 8.89354 57.0993 9.52099 57.5265 10.322C57.967 11.1096 58.1873 12.0041 58.1873 13.0053ZM56.3049 12.6249C56.3049 11.9307 56.1514 11.3366 55.8444 10.8426C55.5373 10.3353 55.1168 9.95487 54.5828 9.70122C54.0621 9.43422 53.4814 9.30072 52.8406 9.30072C51.9195 9.30072 51.1318 9.59442 50.4777 10.1818C49.8369 10.7692 49.4697 11.5836 49.3763 12.6249H56.3049Z" fill="#303742"/>
<path d="M62.4149 9.72124C62.7353 9.09379 63.1892 8.60652 63.7766 8.25942C64.3773 7.91232 65.1049 7.73877 65.9593 7.73877V9.62112H65.4787C63.4362 9.62112 62.4149 10.7292 62.4149 12.9453V18.9127H60.5926V7.93902H62.4149V9.72124Z" fill="#303742"/>
<path d="M71.9477 19.0929C71.1067 19.0929 70.3524 18.9528 69.6849 18.6724C69.0174 18.3787 68.4901 17.9782 68.1029 17.4709C67.7158 16.9503 67.5022 16.3562 67.4621 15.6887H69.3445C69.3979 16.236 69.6515 16.6833 70.1054 17.0304C70.5727 17.3775 71.1801 17.551 71.9277 17.551C72.6219 17.551 73.1693 17.3975 73.5697 17.0904C73.9702 16.7834 74.1705 16.3962 74.1705 15.929C74.1705 15.4484 73.9569 15.0946 73.5297 14.8677C73.1025 14.6274 72.4417 14.3937 71.5472 14.1668C70.7329 13.9532 70.0654 13.7396 69.5447 13.526C69.0374 13.299 68.5969 12.972 68.2231 12.5448C67.8626 12.1042 67.6824 11.5302 67.6824 10.8226C67.6824 10.2619 67.8493 9.74794 68.183 9.28069C68.5168 8.81344 68.9907 8.44632 69.6048 8.17932C70.2189 7.89897 70.9198 7.75879 71.7074 7.75879C72.9223 7.75879 73.9035 8.06584 74.6511 8.67994C75.3987 9.29404 75.7992 10.1351 75.8526 11.2031H74.0303C73.9903 10.629 73.7566 10.1685 73.3294 9.82137C72.9156 9.47427 72.3549 9.30072 71.6474 9.30072C70.9932 9.30072 70.4725 9.44089 70.0854 9.72124C69.6982 10.0016 69.5047 10.3687 69.5047 10.8226C69.5047 11.1831 69.6181 11.4834 69.8451 11.7237C70.0854 11.9507 70.3791 12.1376 70.7262 12.2844C71.0866 12.4179 71.5806 12.5715 72.208 12.745C72.9957 12.9586 73.6365 13.1722 74.1304 13.3858C74.6244 13.5861 75.0449 13.8931 75.392 14.307C75.7525 14.7208 75.9394 15.2615 75.9527 15.929C75.9527 16.5297 75.7858 17.0704 75.4521 17.551C75.1183 18.0316 74.6444 18.4121 74.0303 18.6924C73.4296 18.9594 72.7354 19.0929 71.9477 19.0929Z" fill="#303742"/>
<path d="M83.8718 7.73877C85.2068 7.73877 86.2882 8.14594 87.1159 8.96029C87.9436 9.76129 88.3574 10.9227 88.3574 12.4446V18.9127H86.5552V12.705C86.5552 11.6103 86.2815 10.7759 85.7341 10.2018C85.1868 9.61444 84.4392 9.32074 83.4913 9.32074C82.5301 9.32074 81.7625 9.62112 81.1885 10.2219C80.6278 10.8226 80.3474 11.697 80.3474 12.8451V18.9127H78.5251V7.93902H80.3474V9.50097C80.7079 8.94027 81.1951 8.50639 81.8092 8.19934C82.4367 7.89229 83.1242 7.73877 83.8718 7.73877Z" fill="#303742"/>
<path d="M90.6532 13.3858C90.6532 12.2644 90.8802 11.2832 91.3341 10.4421C91.788 9.58774 92.4088 8.92692 93.1964 8.45967C93.9974 7.99242 94.8852 7.75879 95.8597 7.75879C96.8209 7.75879 97.6553 7.96572 98.3629 8.37957C99.0704 8.79342 99.5977 9.31407 99.9448 9.94152V7.93902H101.787V18.9127H99.9448V16.8702C99.5844 17.511 99.0437 18.045 98.3228 18.4722C97.6153 18.886 96.7876 19.0929 95.8397 19.0929C94.8652 19.0929 93.9841 18.8526 93.1964 18.372C92.4088 17.8914 91.788 17.2173 91.3341 16.3495C90.8802 15.4818 90.6532 14.4939 90.6532 13.3858ZM99.9448 13.4058C99.9448 12.5781 99.778 11.8572 99.4442 11.2431C99.1105 10.629 98.6566 10.1618 98.0825 9.84139C97.5218 9.50764 96.901 9.34077 96.2202 9.34077C95.5393 9.34077 94.9186 9.50097 94.3579 9.82137C93.7972 10.1418 93.3499 10.609 93.0162 11.2231C92.6824 11.8372 92.5156 12.5581 92.5156 13.3858C92.5156 14.2269 92.6824 14.9611 93.0162 15.5886C93.3499 16.2027 93.7972 16.6766 94.3579 17.0103C94.9186 17.3307 95.5393 17.4909 96.2202 17.4909C96.901 17.4909 97.5218 17.3307 98.0825 17.0103C98.6566 16.6766 99.1105 16.2027 99.4442 15.5886C99.778 14.9611 99.9448 14.2335 99.9448 13.4058Z" fill="#303742"/>
<path d="M106.689 9.96154C107.049 9.33409 107.583 8.81344 108.291 8.39959C109.012 7.97239 109.846 7.75879 110.794 7.75879C111.769 7.75879 112.65 7.99242 113.437 8.45967C114.238 8.92692 114.866 9.58774 115.32 10.4421C115.774 11.2832 116 12.2644 116 13.3858C116 14.4939 115.774 15.4818 115.32 16.3495C114.866 17.2173 114.238 17.8914 113.437 18.372C112.65 18.8526 111.769 19.0929 110.794 19.0929C109.859 19.0929 109.032 18.886 108.311 18.4722C107.603 18.045 107.063 17.5176 106.689 16.8902V24.1192H104.867V7.93902H106.689V9.96154ZM114.138 13.3858C114.138 12.5581 113.971 11.8372 113.638 11.2231C113.304 10.609 112.85 10.1418 112.276 9.82137C111.715 9.50097 111.094 9.34077 110.414 9.34077C109.746 9.34077 109.125 9.50764 108.551 9.84139C107.99 10.1618 107.537 10.6357 107.189 11.2632C106.856 11.8773 106.689 12.5915 106.689 13.4058C106.689 14.2335 106.856 14.9611 107.189 15.5886C107.537 16.2027 107.99 16.6766 108.551 17.0103C109.125 17.3307 109.746 17.4909 110.414 17.4909C111.094 17.4909 111.715 17.3307 112.276 17.0103C112.85 16.6766 113.304 16.2027 113.638 15.5886C113.971 14.9611 114.138 14.2269 114.138 13.3858Z" fill="#303742"/>
<g clip-path="url(#clip0_150_2706)">
<path d="M9.27688 0H9.20874C9.10301 4.76129e-05 8.99855 0.0230587 8.90259 0.0674422C8.80663 0.111826 8.72145 0.176522 8.65295 0.257058C8.58445 0.337594 8.53426 0.432048 8.50584 0.533888C8.47743 0.635727 8.47148 0.742523 8.48839 0.846889C8.75241 2.02318 8.71983 3.24665 8.39358 4.40722C8.06733 5.56779 7.45765 6.62903 6.6194 7.49546C4.1274 9.98745 2.65751 13.2679 3.4752 16.8502C3.87688 18.7018 4.9026 20.3592 6.38056 21.5448C7.85852 22.7303 9.69897 23.3721 11.5937 23.3625C13.8261 23.3832 15.9756 22.5176 17.5706 20.9554C19.1656 19.3933 20.0758 17.2623 20.1015 15.0299C20.4422 8.14766 16.3635 0.652202 9.27688 0ZM13.7644 19.0696C13.6496 19.646 13.3385 20.1647 12.8841 20.5375C12.4297 20.9102 11.8601 21.1139 11.2724 21.1138C10.9399 21.1178 10.6099 21.0549 10.3021 20.9289C9.99433 20.8029 9.71501 20.6163 9.48075 20.3802C9.24649 20.1441 9.06205 19.8633 8.9384 19.5546C8.81476 19.2459 8.75441 18.9154 8.76096 18.5829C8.80529 17.9918 8.99802 17.4214 9.32131 16.9246C9.6446 16.4277 10.088 16.0204 10.6105 15.7405C11.5463 15.147 12.2981 14.3042 12.7812 13.3069C13.3781 14.1267 13.7774 15.0734 13.9479 16.0731C14.1185 17.0727 14.0557 18.0982 13.7644 19.0696ZM17.9015 14.913C17.875 16.6281 17.1758 18.2641 15.9546 19.4687C16.8405 15.9059 15.6432 11.6812 12.2069 10.2503C12.1236 10.2318 12.0372 10.2318 11.9538 10.2503C11.7729 10.2564 11.6003 10.3277 11.4679 10.4512C11.3354 10.5747 11.2522 10.7419 11.2335 10.922C11.1835 11.5277 10.9951 12.1139 10.6829 12.6354C10.3707 13.1569 9.94295 13.5997 9.43263 13.9299C8.61052 14.3902 7.91692 15.0492 7.41527 15.8468C6.91361 16.6443 6.6199 17.5549 6.56099 18.4953C6.12653 17.8367 5.79806 17.1141 5.58755 16.3537C4.86721 13.1414 6.60966 10.6105 8.17689 9.05296C9.02504 8.1971 9.69559 7.18199 10.15 6.06604C10.6044 4.95008 10.8337 3.75529 10.8246 2.5504C15.575 4.0787 18.1546 9.81224 17.9015 14.913Z" fill="url(#paint0_linear_150_2706)"/>
</g>
<defs>
<linearGradient id="paint0_linear_150_2706" x1="6.8141" y1="3.89374" x2="10.2211" y2="17.0351" gradientUnits="userSpaceOnUse">
<stop offset="0.0001" stop-color="#FD267A"/>
<stop offset="0.0002" stop-color="#FD2A78"/>
<stop offset="1" stop-color="#FF7854"/>
<stop offset="1" stop-color="#FF6D6D"/>
</linearGradient>
<clipPath id="clip0_150_2706">
<rect width="23.3625" height="23.3625" fill="white"/>
</clipPath>
</defs>
</svg>
