<svg width="18" height="24" viewBox="0 0 18 24" fill="none" xmlns="http://www.w3.org/2000/svg">
<path d="M6.27688 0H6.20874C6.10301 4.76129e-05 5.99855 0.0230587 5.90259 0.0674422C5.80663 0.111826 5.72145 0.176522 5.65295 0.257058C5.58445 0.337594 5.53425 0.432048 5.50584 0.533887C5.47743 0.635727 5.47148 0.742523 5.48839 0.846889C5.75241 2.02318 5.71983 3.24665 5.39358 4.40722C5.06733 5.56779 4.45765 6.62903 3.6194 7.49546C1.1274 9.98745 -0.342488 13.2679 0.475198 16.8502C0.876879 18.7018 1.9026 20.3592 3.38056 21.5448C4.85852 22.7303 6.69897 23.3721 8.59366 23.3625C10.8261 23.3832 12.9756 22.5176 14.5706 20.9554C16.1656 19.3933 17.0758 17.2623 17.1015 15.0299C17.4422 8.14766 13.3635 0.652202 6.27688 0ZM10.7644 19.0696C10.6496 19.646 10.3385 20.1647 9.88408 20.5375C9.42969 20.9102 8.86013 21.1139 8.27242 21.1138C7.93986 21.1178 7.60989 21.0549 7.30211 20.9289C6.99433 20.8029 6.71501 20.6163 6.48075 20.3802C6.24649 20.1441 6.06205 19.8634 5.9384 19.5546C5.81476 19.2459 5.75441 18.9154 5.76096 18.5829C5.80529 17.9918 5.99802 17.4214 6.32131 16.9246C6.6446 16.4277 7.08801 16.0204 7.61049 15.7405C8.54633 15.147 9.29809 14.3042 9.78125 13.3069C10.3781 14.1267 10.7774 15.0734 10.9479 16.0731C11.1185 17.0727 11.0557 18.0982 10.7644 19.0696ZM14.9015 14.913C14.875 16.6281 14.1758 18.2641 12.9546 19.4687C13.8405 15.9059 12.6432 11.6812 9.20692 10.2503C9.12357 10.2318 9.03718 10.2318 8.95383 10.2503C8.77289 10.2564 8.60027 10.3277 8.46785 10.4512C8.33544 10.5747 8.25219 10.7419 8.23349 10.922C8.18348 11.5277 7.99512 12.1139 7.68291 12.6354C7.37069 13.1569 6.94295 13.5997 6.43263 13.9299C5.61052 14.3902 4.91692 15.0492 4.41527 15.8468C3.91361 16.6443 3.6199 17.5549 3.56099 18.4953C3.12653 17.8367 2.79806 17.1141 2.58755 16.3537C1.86721 13.1414 3.60966 10.6105 5.17689 9.05296C6.02504 8.1971 6.69559 7.18199 7.15 6.06604C7.6044 4.95008 7.83368 3.75529 7.82464 2.5504C12.575 4.0787 15.1546 9.81224 14.9015 14.913Z" fill="url(#paint0_linear_150_2710)"/>
<defs>
<linearGradient id="paint0_linear_150_2710" x1="3.8141" y1="3.89374" x2="7.22112" y2="17.0351" gradientUnits="userSpaceOnUse">
<stop offset="0.0001" stop-color="#FD267A"/>
<stop offset="0.0002" stop-color="#FD2A78"/>
<stop offset="1" stop-color="#FF7854"/>
<stop offset="1" stop-color="#FF6D6D"/>
</linearGradient>
</defs>
</svg>
