<svg width="18" height="18" viewBox="0 0 18 18" fill="none" xmlns="http://www.w3.org/2000/svg">
<path d="M8.99978 0.6667C7.72302 0.664391 6.4628 0.955483 5.31639 1.51751C4.16999 2.07954 3.16805 2.89747 2.38792 3.90817C1.60779 4.91887 1.07033 6.09531 0.817023 7.3467C0.563715 8.59808 0.601334 9.89093 0.926976 11.1255C1.25262 12.36 1.85758 13.5032 2.69515 14.4668C3.53273 15.4305 4.58053 16.1888 5.75768 16.6832C6.93482 17.1776 8.20984 17.3949 9.4843 17.3184C10.7588 17.2418 11.9986 16.8735 13.1081 16.2417H13.1664H13.2081C14.8125 15.3284 16.0682 13.9082 16.7781 12.204C17.488 10.4998 17.6118 8.60811 17.1303 6.82589C16.6487 5.04367 15.589 3.47181 14.1174 2.35705C12.6459 1.24228 10.8458 0.647721 8.99978 0.6667ZM9.83311 2.3917C11.2998 2.57769 12.663 3.24595 13.7085 4.29136C14.7539 5.33676 15.4221 6.70002 15.6081 8.1667H9.83311V2.3917ZM8.99978 15.6667C7.31186 15.6552 5.69116 15.0038 4.46473 13.8441C3.23829 12.6843 2.49745 11.1025 2.39169 9.41787C2.28594 7.73323 2.82316 6.07119 3.89493 4.76717C4.9667 3.46314 6.49322 2.61421 8.16644 2.3917V9.00003C8.16973 9.0998 8.18944 9.19835 8.22478 9.2917V9.35837V9.4167L11.5581 15.1417C10.7496 15.4878 9.87927 15.6664 8.99978 15.6667ZM13.0248 14.3L10.4414 9.83337H15.6081C15.4959 10.7122 15.2097 11.5598 14.7661 12.3268C14.3225 13.0937 13.7306 13.7645 13.0248 14.3Z" fill="#303742"/>
</svg>
