<svg width="20" height="19" viewBox="0 0 20 19" fill="none" xmlns="http://www.w3.org/2000/svg">
<path d="M18.4043 0H1.59574C0.71583 0 0 0.715872 0 1.59574V14.3617C0 15.2416 0.71583 15.9574 1.59574 15.9574H7.76596V18.2979H5.53191C5.35566 18.2979 5.21277 18.4408 5.21277 18.617C5.21277 18.7933 5.35566 18.9362 5.53191 18.9362H14.4681C14.6443 18.9362 14.7872 18.7933 14.7872 18.617C14.7872 18.4408 14.6443 18.2979 14.4681 18.2979H12.234V15.9574H18.4043C19.2842 15.9574 20 15.2416 20 14.3617V1.59574C20 0.715872 19.2842 0 18.4043 0ZM11.5957 18.2979H8.40425V15.9574H11.5957V18.2979ZM19.3617 14.3617C19.3617 14.8896 18.9322 15.3191 18.4043 15.3191H1.59574C1.06779 15.3191 0.638298 14.8896 0.638298 14.3617V13.4043H19.3617V14.3617ZM19.3617 12.766H0.638298V1.59574C0.638298 1.06783 1.06779 0.638298 1.59574 0.638298H18.4043C18.9322 0.638298 19.3617 1.06783 19.3617 1.59574V12.766Z" fill="#303742"/>
<path d="M18.404 1.27637H1.59552C1.41926 1.27637 1.27637 1.41926 1.27637 1.59552V11.8083C1.27637 11.9845 1.41926 12.1274 1.59552 12.1274H15.4253C15.6016 12.1274 15.7445 11.9845 15.7445 11.8083C15.7445 11.632 15.6016 11.4891 15.4253 11.4891H1.91467V1.91467H18.0849V11.4891H16.7019C16.5256 11.4891 16.3828 11.632 16.3828 11.8083C16.3828 11.9845 16.5256 12.1274 16.7019 12.1274H18.404C18.5803 12.1274 18.7232 11.9845 18.7232 11.8083V1.59552C18.7232 1.41926 18.5803 1.27637 18.404 1.27637Z" fill="#303742"/>
</svg>
