<svg width="20" height="20" viewBox="0 0 20 20" fill="none" xmlns="http://www.w3.org/2000/svg">
<g clip-path="url(#clip0_194_625)">
<path d="M5.83333 15C4.26198 15 3.47631 15 2.98816 14.5118C2.5 14.0237 2.5 13.238 2.5 11.6667L2.5 10L2.5 8.33333C2.5 6.762 2.5 5.97633 2.98816 5.48817C3.47631 5 4.26198 5 5.83333 5L10 5L14.1667 5C15.738 5 16.5237 5 17.0118 5.48817C17.5 5.97633 17.5 6.762 17.5 8.33333L17.5 10L17.5 11.6667C17.5 13.238 17.5 14.0237 17.0118 14.5118C16.5237 15 15.738 15 14.1667 15L10 15L5.83333 15Z" stroke="#323232" stroke-linejoin="round"/>
<path d="M15 10.417L15 9.58366" stroke="#323232" stroke-linecap="round"/>
</g>
<defs>
<clipPath id="clip0_194_625">
<rect width="20" height="20" fill="white" transform="translate(0 20) rotate(-90)"/>
</clipPath>
</defs>
</svg>
