<svg width="142" height="30" viewBox="0 0 142 30" fill="none" xmlns="http://www.w3.org/2000/svg">
<g clip-path="url(#clip0_150_1279)">
<path d="M39.075 10.189V23.889H36.8V21.864C36.3667 22.564 35.7584 23.114 34.975 23.514C34.2084 23.8973 33.3584 24.089 32.4251 24.089C31.3584 24.089 30.4 23.8723 29.55 23.439C28.7 22.989 28.0251 22.3223 27.5251 21.439C27.0417 20.5556 26.8 19.4806 26.8 18.214V10.189H29.0501V17.914C29.0501 19.264 29.3917 20.3056 30.075 21.039C30.7584 21.7556 31.6917 22.114 32.875 22.114C34.0917 22.114 35.0501 21.739 35.7501 20.989C36.4501 20.239 36.8 19.1473 36.8 17.714V10.189H39.075Z" fill="#303742"/>
<path d="M47.7663 24.1139C46.7163 24.1139 45.7746 23.9389 44.9413 23.5889C44.1079 23.2222 43.4496 22.7222 42.9663 22.0889C42.4829 21.4389 42.2163 20.6972 42.1663 19.8639H44.5163C44.5829 20.5472 44.8996 21.1055 45.4663 21.5389C46.0496 21.9722 46.8079 22.1889 47.7413 22.1889C48.6079 22.1889 49.2913 21.9972 49.7913 21.6139C50.2913 21.2305 50.5413 20.7472 50.5413 20.1639C50.5413 19.5639 50.2746 19.1222 49.7413 18.8389C49.2079 18.5389 48.3829 18.2472 47.2663 17.9639C46.2496 17.6972 45.4163 17.4305 44.7663 17.1639C44.1329 16.8805 43.5829 16.4722 43.1163 15.9389C42.6663 15.3889 42.4413 14.6722 42.4413 13.7889C42.4413 13.0889 42.6496 12.4472 43.0663 11.8639C43.4829 11.2805 44.0746 10.8222 44.8413 10.4889C45.6079 10.1389 46.4829 9.96387 47.4663 9.96387C48.9829 9.96387 50.2079 10.3472 51.1413 11.1139C52.0746 11.8805 52.5746 12.9305 52.6413 14.2639H50.3663C50.3163 13.5472 50.0246 12.9722 49.4913 12.5389C48.9746 12.1055 48.2746 11.8889 47.3913 11.8889C46.5746 11.8889 45.9246 12.0639 45.4413 12.4139C44.9579 12.7639 44.7163 13.2222 44.7163 13.7889C44.7163 14.2389 44.8579 14.6139 45.1413 14.9139C45.4413 15.1972 45.8079 15.4305 46.2413 15.6139C46.6913 15.7805 47.3079 15.9722 48.0913 16.1889C49.0746 16.4555 49.8746 16.7222 50.4913 16.9889C51.1079 17.2389 51.6329 17.6222 52.0663 18.1389C52.5163 18.6555 52.7496 19.3305 52.7663 20.1639C52.7663 20.9139 52.5579 21.5889 52.1413 22.1889C51.7246 22.7889 51.1329 23.2639 50.3663 23.6139C49.6163 23.9472 48.7496 24.1139 47.7663 24.1139Z" fill="#303742"/>
<path d="M68.4777 16.5139C68.4777 16.9472 68.4527 17.4055 68.4027 17.8889H57.4527C57.536 19.2389 57.9943 20.2972 58.8277 21.0639C59.6777 21.8139 60.7027 22.1889 61.9027 22.1889C62.886 22.1889 63.7027 21.9639 64.3527 21.5139C65.0194 21.0472 65.486 20.4305 65.7527 19.6639H68.2027C67.836 20.9805 67.1027 22.0555 66.0027 22.8889C64.9027 23.7055 63.536 24.1139 61.9027 24.1139C60.6027 24.1139 59.436 23.8222 58.4027 23.2389C57.386 22.6555 56.586 21.8305 56.0027 20.7639C55.4193 19.6805 55.1277 18.4305 55.1277 17.0139C55.1277 15.5972 55.411 14.3555 55.9777 13.2889C56.5444 12.2222 57.336 11.4055 58.3527 10.8389C59.386 10.2555 60.5694 9.96387 61.9027 9.96387C63.2027 9.96387 64.3527 10.2472 65.3527 10.8139C66.3527 11.3805 67.1193 12.1639 67.6527 13.1639C68.2027 14.1472 68.4777 15.2639 68.4777 16.5139ZM66.1277 16.0389C66.1277 15.1722 65.936 14.4305 65.5527 13.8139C65.1694 13.1805 64.6444 12.7055 63.9777 12.3889C63.3277 12.0555 62.6027 11.8889 61.8027 11.8889C60.6527 11.8889 59.6694 12.2555 58.8527 12.9889C58.0527 13.7222 57.5943 14.7389 57.4777 16.0389H66.1277Z" fill="#303742"/>
<path d="M73.7557 12.414C74.1557 11.6306 74.7224 11.0223 75.4557 10.589C76.2057 10.1556 77.114 9.93896 78.1807 9.93896V12.289H77.5807C75.0307 12.289 73.7557 13.6723 73.7557 16.439V23.889H71.4807V10.189H73.7557V12.414Z" fill="#303742"/>
<path d="M85.6569 24.1139C84.6069 24.1139 83.6652 23.9389 82.8319 23.5889C81.9986 23.2222 81.3402 22.7222 80.8569 22.0889C80.3736 21.4389 80.1069 20.6972 80.0569 19.8639H82.4069C82.4736 20.5472 82.7902 21.1055 83.3569 21.5389C83.9402 21.9722 84.6986 22.1889 85.6319 22.1889C86.4986 22.1889 87.1819 21.9972 87.6819 21.6139C88.1819 21.2305 88.4319 20.7472 88.4319 20.1639C88.4319 19.5639 88.1652 19.1222 87.6319 18.8389C87.0986 18.5389 86.2735 18.2472 85.1569 17.9639C84.1402 17.6972 83.3069 17.4305 82.6569 17.1639C82.0236 16.8805 81.4735 16.4722 81.0069 15.9389C80.5569 15.3889 80.3319 14.6722 80.3319 13.7889C80.3319 13.0889 80.5402 12.4472 80.9569 11.8639C81.3736 11.2805 81.9652 10.8222 82.7319 10.4889C83.4986 10.1389 84.3736 9.96387 85.3569 9.96387C86.8736 9.96387 88.0985 10.3472 89.0319 11.1139C89.9652 11.8805 90.4652 12.9305 90.5319 14.2639H88.2569C88.2069 13.5472 87.9152 12.9722 87.3819 12.5389C86.8652 12.1055 86.1652 11.8889 85.2819 11.8889C84.4652 11.8889 83.8152 12.0639 83.3319 12.4139C82.8486 12.7639 82.6069 13.2222 82.6069 13.7889C82.6069 14.2389 82.7485 14.6139 83.0319 14.9139C83.3319 15.1972 83.6985 15.4305 84.1319 15.6139C84.5819 15.7805 85.1985 15.9722 85.9819 16.1889C86.9652 16.4555 87.7652 16.7222 88.3819 16.9889C88.9986 17.2389 89.5235 17.6222 89.9569 18.1389C90.4069 18.6555 90.6402 19.3305 90.6569 20.1639C90.6569 20.9139 90.4486 21.5889 90.0319 22.1889C89.6152 22.7889 89.0236 23.2639 88.2569 23.6139C87.5069 23.9472 86.6402 24.1139 85.6569 24.1139Z" fill="#303742"/>
<path d="M100.543 9.93896C102.21 9.93896 103.56 10.4473 104.593 11.464C105.626 12.464 106.143 13.914 106.143 15.814V23.889H103.893V16.139C103.893 14.7723 103.552 13.7306 102.868 13.014C102.185 12.2806 101.252 11.914 100.068 11.914C98.8682 11.914 97.9098 12.289 97.1932 13.039C96.4932 13.789 96.1432 14.8806 96.1432 16.314V23.889H93.8682V10.189H96.1432V12.139C96.5932 11.439 97.2015 10.8973 97.9682 10.514C98.7515 10.1306 99.6098 9.93896 100.543 9.93896Z" fill="#303742"/>
<path d="M109.01 16.9889C109.01 15.5889 109.293 14.3639 109.86 13.3139C110.426 12.2472 111.201 11.4222 112.185 10.8389C113.185 10.2555 114.293 9.96387 115.51 9.96387C116.71 9.96387 117.751 10.2222 118.635 10.7389C119.518 11.2555 120.176 11.9055 120.61 12.6889V10.1889H122.91V23.8889H120.61V21.3389C120.16 22.1389 119.485 22.8055 118.585 23.3389C117.701 23.8555 116.668 24.1139 115.485 24.1139C114.268 24.1139 113.168 23.8139 112.185 23.2139C111.201 22.6139 110.426 21.7722 109.86 20.6889C109.293 19.6055 109.01 18.3722 109.01 16.9889ZM120.61 17.0139C120.61 15.9805 120.401 15.0805 119.985 14.3139C119.568 13.5472 119.001 12.9639 118.285 12.5639C117.585 12.1472 116.81 11.9389 115.96 11.9389C115.11 11.9389 114.335 12.1389 113.635 12.5389C112.935 12.9389 112.376 13.5222 111.96 14.2889C111.543 15.0555 111.335 15.9555 111.335 16.9889C111.335 18.0389 111.543 18.9555 111.96 19.7389C112.376 20.5055 112.935 21.0972 113.635 21.5139C114.335 21.9139 115.11 22.1139 115.96 22.1139C116.81 22.1139 117.585 21.9139 118.285 21.5139C119.001 21.0972 119.568 20.5055 119.985 19.7389C120.401 18.9555 120.61 18.0472 120.61 17.0139Z" fill="#303742"/>
<path d="M129.029 12.7139C129.479 11.9305 130.146 11.2805 131.029 10.7639C131.929 10.2305 132.971 9.96387 134.154 9.96387C135.371 9.96387 136.471 10.2555 137.454 10.8389C138.454 11.4222 139.237 12.2472 139.804 13.3139C140.371 14.3639 140.654 15.5889 140.654 16.9889C140.654 18.3722 140.371 19.6055 139.804 20.6889C139.237 21.7722 138.454 22.6139 137.454 23.2139C136.471 23.8139 135.371 24.1139 134.154 24.1139C132.987 24.1139 131.954 23.8555 131.054 23.3389C130.171 22.8055 129.496 22.1472 129.029 21.3639V30.3889H126.754V10.1889H129.029V12.7139ZM138.329 16.9889C138.329 15.9555 138.121 15.0555 137.704 14.2889C137.287 13.5222 136.721 12.9389 136.004 12.5389C135.304 12.1389 134.529 11.9389 133.679 11.9389C132.846 11.9389 132.071 12.1472 131.354 12.5639C130.654 12.9639 130.087 13.5555 129.654 14.3389C129.237 15.1055 129.029 15.9972 129.029 17.0139C129.029 18.0472 129.237 18.9555 129.654 19.7389C130.087 20.5055 130.654 21.0972 131.354 21.5139C132.071 21.9139 132.846 22.1139 133.679 22.1139C134.529 22.1139 135.304 21.9139 136.004 21.5139C136.721 21.0972 137.287 20.5055 137.704 19.7389C138.121 18.9555 138.329 18.0389 138.329 16.9889Z" fill="#303742"/>
<mask id="mask0_150_1279" style="mask-type:luminance" maskUnits="userSpaceOnUse" x="-5" y="0" width="30" height="30">
<path d="M24.9999 0.277832H-4.16675V29.4445H24.9999V0.277832Z" fill="white"/>
</mask>
<g mask="url(#mask0_150_1279)">
<path d="M7.41485 0.277832H7.32985C7.1979 0.277888 7.06749 0.306623 6.94763 0.362026C6.8279 0.417443 6.72151 0.498207 6.63596 0.598749C6.5504 0.699304 6.48776 0.817221 6.45235 0.94436C6.41679 1.0715 6.40943 1.20483 6.43054 1.33512C6.76013 2.80365 6.71943 4.33108 6.31221 5.77998C5.90485 7.22894 5.14374 8.5538 4.09721 9.63547C0.986097 12.7466 -0.848973 16.842 0.171861 21.3142C0.673333 23.6259 1.95389 25.6951 3.79901 27.1752C5.64415 28.6553 7.94193 29.4564 10.3072 29.4445C13.0944 29.4705 15.7779 28.3898 17.7692 26.4395C19.7604 24.4892 20.8968 21.8288 20.9287 19.0417C21.3542 10.4496 16.2621 1.09207 7.41485 0.277832ZM13.0173 24.0852C12.874 24.8046 12.4855 25.4523 11.9183 25.9177C11.351 26.383 10.64 26.6373 9.90624 26.6373C9.4911 26.6421 9.07915 26.5637 8.69485 26.4063C8.31068 26.2489 7.96193 26.016 7.66943 25.7213C7.37693 25.4266 7.14665 25.076 6.99235 24.6906C6.83804 24.3052 6.76262 23.8926 6.77082 23.4776C6.8261 22.7395 7.06679 22.0274 7.4704 21.4071C7.87401 20.7869 8.42763 20.2784 9.07985 19.9289C10.2482 19.188 11.1867 18.1357 11.7898 16.8907C12.535 17.9142 13.0335 19.0962 13.2464 20.3441C13.4593 21.5921 13.381 22.8724 13.0173 24.0852ZM18.1822 18.8959C18.1492 21.037 17.2762 23.0795 15.7517 24.5834C16.8576 20.1355 15.3628 14.8612 11.0729 13.0746C10.9689 13.0516 10.861 13.0516 10.7569 13.0746C10.5311 13.0823 10.3155 13.1714 10.1503 13.3256C9.98485 13.4796 9.88096 13.6884 9.85762 13.9132C9.79526 14.6695 9.55999 15.4013 9.17026 16.0524C8.78054 16.7034 8.24651 17.2563 7.60929 17.6685C6.58304 18.2431 5.71707 19.0659 5.09082 20.0616C4.46457 21.0573 4.0979 22.1941 4.02429 23.3681C3.48193 22.5459 3.07179 21.6438 2.80901 20.6945C1.90971 16.6841 4.08499 13.5244 6.04165 11.5799C7.10054 10.5114 7.93763 9.24408 8.50499 7.85089C9.07221 6.45772 9.35846 4.9661 9.34721 3.46186C15.2778 5.36985 18.4982 12.5278 18.1822 18.8959Z" fill="url(#paint0_linear_150_1279)"/>
</g>
</g>
<defs>
<linearGradient id="paint0_linear_150_1279" x1="4.34026" y1="5.13894" x2="8.59374" y2="21.5452" gradientUnits="userSpaceOnUse">
<stop offset="0.0001" stop-color="#FD267A"/>
<stop offset="0.0002" stop-color="#FD2A78"/>
<stop offset="1" stop-color="#FF6D6D"/>
</linearGradient>
<clipPath id="clip0_150_1279">
<rect width="141.111" height="30" fill="white"/>
</clipPath>
</defs>
</svg>
