<svg width="21" height="30" viewBox="0 0 21 30" fill="none" xmlns="http://www.w3.org/2000/svg">
<path d="M7.41485 0.277832H7.32985C7.1979 0.277888 7.06749 0.306623 6.94763 0.362026C6.8279 0.417443 6.72151 0.498207 6.63596 0.598749C6.5504 0.699304 6.48776 0.817221 6.45235 0.94436C6.41679 1.0715 6.40943 1.20483 6.43054 1.33512C6.76013 2.80365 6.71943 4.33108 6.31221 5.77998C5.90485 7.22894 5.14374 8.5538 4.09721 9.63547C0.986097 12.7466 -0.848973 16.842 0.171861 21.3142C0.673333 23.6259 1.95389 25.6951 3.79901 27.1752C5.64415 28.6553 7.94193 29.4564 10.3072 29.4445C13.0944 29.4705 15.7779 28.3898 17.7692 26.4395C19.7604 24.4892 20.8968 21.8288 20.9287 19.0417C21.3542 10.4496 16.2621 1.09207 7.41485 0.277832ZM13.0173 24.0852C12.874 24.8046 12.4855 25.4523 11.9183 25.9177C11.351 26.383 10.64 26.6373 9.90624 26.6373C9.4911 26.6421 9.07915 26.5637 8.69485 26.4063C8.31068 26.2489 7.96193 26.016 7.66943 25.7213C7.37693 25.4266 7.14665 25.076 6.99235 24.6906C6.83804 24.3052 6.76263 23.8926 6.77082 23.4776C6.8261 22.7395 7.06679 22.0274 7.4704 21.4071C7.87401 20.7869 8.42763 20.2784 9.07985 19.9289C10.2482 19.188 11.1867 18.1357 11.7898 16.8907C12.535 17.9142 13.0335 19.0962 13.2464 20.3441C13.4593 21.5921 13.381 22.8724 13.0173 24.0852ZM18.1822 18.8959C18.1492 21.037 17.2762 23.0795 15.7517 24.5834C16.8576 20.1355 15.3628 14.8612 11.0729 13.0746C10.9689 13.0516 10.861 13.0516 10.7569 13.0746C10.5311 13.0823 10.3155 13.1714 10.1503 13.3256C9.98485 13.4796 9.88096 13.6884 9.85763 13.9132C9.79526 14.6695 9.55999 15.4013 9.17026 16.0524C8.78054 16.7034 8.24651 17.2563 7.60929 17.6685C6.58304 18.2431 5.71707 19.0659 5.09082 20.0616C4.46457 21.0573 4.0979 22.1941 4.02429 23.3681C3.48193 22.5459 3.07179 21.6438 2.80901 20.6945C1.90971 16.6841 4.08499 13.5244 6.04165 11.5799C7.10054 10.5114 7.93762 9.24408 8.50499 7.85089C9.07221 6.45772 9.35846 4.9661 9.34721 3.46186C15.2778 5.36985 18.4982 12.5278 18.1822 18.8959Z" fill="url(#paint0_linear_150_1292)"/>
<defs>
<linearGradient id="paint0_linear_150_1292" x1="4.34026" y1="5.13894" x2="8.59374" y2="21.5452" gradientUnits="userSpaceOnUse">
<stop offset="0.0001" stop-color="#FD267A"/>
<stop offset="0.0002" stop-color="#FD2A78"/>
<stop offset="1" stop-color="#FF6D6D"/>
</linearGradient>
</defs>
</svg>
