<svg width="223" height="46" viewBox="0 0 223 46" fill="none" xmlns="http://www.w3.org/2000/svg">
<path d="M55.3528 11.5516C54.5743 11.5516 53.9214 11.2883 53.394 10.7617C52.8666 10.2352 52.6029 9.5833 52.6029 8.80603C52.6029 8.02876 52.8666 7.37685 53.394 6.85032C53.9214 6.32378 54.5743 6.06051 55.3528 6.06051C56.1062 6.06051 56.7466 6.32378 57.2739 6.85032C57.8013 7.37685 58.065 8.02876 58.065 8.80603C58.065 9.5833 57.8013 10.2352 57.2739 10.7617C56.7466 11.2883 56.1062 11.5516 55.3528 11.5516ZM57.4623 14.2971V35.0201H53.168V14.2971H57.4623Z" fill="#FF3875"/>
<path d="M73.5724 13.9586C75.2047 13.9586 76.6613 14.2971 77.942 14.974C79.2479 15.651 80.265 16.654 80.9932 17.9828C81.7215 19.3117 82.0857 20.9164 82.0857 22.7969V35.0201H77.829V23.4363C77.829 21.5808 77.3644 20.1642 76.4353 19.1864C75.5061 18.1834 74.2379 17.682 72.6307 17.682C71.0234 17.682 69.7427 18.1834 68.7884 19.1864C67.8592 20.1642 67.3946 21.5808 67.3946 23.4363V35.0201H63.1003V14.2971H67.3946V16.6665C68.0978 15.814 68.9893 15.1496 70.0691 14.6732C71.1741 14.1968 72.3419 13.9586 73.5724 13.9586Z" fill="#FF3875"/>
<path d="M95.0972 35.3586C93.4648 35.3586 91.9957 35.0703 90.6899 34.4936C89.4091 33.8918 88.392 33.0895 87.6386 32.0865C86.8853 31.0585 86.4835 29.9177 86.4332 28.664H90.8782C90.9536 29.5416 91.3679 30.2813 92.1213 30.883C92.8998 31.4597 93.8666 31.7481 95.0218 31.7481C96.2273 31.7481 97.1564 31.5224 97.8094 31.0711C98.4874 30.5947 98.8264 29.9929 98.8264 29.2658C98.8264 28.4885 98.4497 27.9118 97.6964 27.5357C96.9681 27.1596 95.8003 26.7459 94.1931 26.2946C92.6361 25.8684 91.3679 25.4547 90.3885 25.0535C89.4091 24.6523 88.5553 24.038 87.827 23.2106C87.1238 22.3832 86.7723 21.2925 86.7723 19.9386C86.7723 18.8353 87.0987 17.8324 87.7517 16.9298C88.4046 16.0021 89.3338 15.2749 90.5392 14.7484C91.7697 14.2219 93.176 13.9586 94.7582 13.9586C97.1188 13.9586 99.0148 14.5603 100.446 15.7639C101.903 16.9423 102.681 18.5595 102.782 20.6155H98.4874C98.4121 19.6878 98.0354 18.9482 97.3573 18.3965C96.6793 17.8449 95.7627 17.5691 94.6075 17.5691C93.4774 17.5691 92.611 17.7823 92.0083 18.2085C91.4056 18.6347 91.1042 19.1989 91.1042 19.9009C91.1042 20.4526 91.3051 20.9164 91.7069 21.2925C92.1087 21.6686 92.5984 21.9695 93.176 22.1951C93.7536 22.3957 94.6075 22.659 95.7376 22.9849C97.2443 23.3861 98.4749 23.7998 99.4292 24.2261C100.409 24.6272 101.25 25.229 101.953 26.0313C102.656 26.8337 103.02 27.8993 103.045 29.2282C103.045 30.4066 102.719 31.4597 102.066 32.3874C101.413 33.3151 100.484 34.0423 99.2785 34.5688C98.0982 35.0953 96.7044 35.3586 95.0972 35.3586Z" fill="#FF3875"/>
<path d="M109.87 11.5516C109.092 11.5516 108.439 11.2883 107.912 10.7617C107.384 10.2352 107.12 9.5833 107.12 8.80603C107.12 8.02876 107.384 7.37685 107.912 6.85032C108.439 6.32378 109.092 6.06051 109.87 6.06051C110.624 6.06051 111.264 6.32378 111.791 6.85032C112.319 7.37685 112.583 8.02876 112.583 8.80603C112.583 9.5833 112.319 10.2352 111.791 10.7617C111.264 11.2883 110.624 11.5516 109.87 11.5516ZM111.98 14.2971V35.0201H107.686V14.2971H111.98Z" fill="#FF3875"/>
<path d="M125.98 13.9586C127.588 13.9586 129.007 14.2845 130.237 14.9364C131.493 15.5633 132.472 16.3531 133.175 17.3059V14.2971H137.507V35.3586C137.507 37.2642 137.105 38.9566 136.302 40.4359C135.498 41.9403 134.33 43.1188 132.799 43.9713C131.292 44.8237 129.484 45.25 127.374 45.25C124.562 45.25 122.226 44.5856 120.368 43.2567C118.509 41.9529 117.455 40.1727 117.203 37.9161H121.46C121.787 38.9942 122.477 39.8592 123.532 40.5112C124.612 41.1881 125.893 41.5266 127.374 41.5266C129.107 41.5266 130.501 41.0001 131.555 39.947C132.635 38.8939 133.175 37.3645 133.175 35.3586V31.8985C132.447 32.8763 131.455 33.7038 130.199 34.3807C128.969 35.0326 127.563 35.3586 125.98 35.3586C124.172 35.3586 122.515 34.9073 121.008 34.0046C119.526 33.0769 118.346 31.7982 117.467 30.1684C116.613 28.5136 116.186 26.6456 116.186 24.5646C116.186 22.4835 116.613 20.6406 117.467 19.0359C118.346 17.4312 119.526 16.1901 121.008 15.3125C122.515 14.4099 124.172 13.9586 125.98 13.9586ZM133.175 24.6398C133.175 23.2106 132.874 21.9695 132.271 20.9164C131.694 19.8633 130.928 19.061 129.973 18.5094C129.019 17.9578 127.989 17.682 126.884 17.682C125.78 17.682 124.75 17.9578 123.796 18.5094C122.841 19.0359 122.063 19.8257 121.46 20.8788C120.883 21.9068 120.594 23.1354 120.594 24.5646C120.594 25.9937 120.883 27.2474 121.46 28.3256C122.063 29.4037 122.841 30.2311 123.796 30.8078C124.775 31.3594 125.805 31.6352 126.884 31.6352C127.989 31.6352 129.019 31.3594 129.973 30.8078C130.928 30.2562 131.694 29.4538 132.271 28.4008C132.874 27.3226 133.175 26.069 133.175 24.6398Z" fill="#FF3875"/>
<path d="M153.883 13.9586C155.466 13.9586 156.872 14.2971 158.102 14.974C159.358 15.651 160.337 16.654 161.041 17.9828C161.769 19.3117 162.133 20.9164 162.133 22.7969V35.0201H157.876V23.4363C157.876 21.5808 157.412 20.1642 156.483 19.1864C155.553 18.1834 154.285 17.682 152.678 17.682C151.071 17.682 149.79 18.1834 148.836 19.1864C147.907 20.1642 147.442 21.5808 147.442 23.4363V35.0201H143.148V7.18881H147.442V16.7041C148.17 15.8265 149.087 15.1496 150.192 14.6732C151.322 14.1968 152.552 13.9586 153.883 13.9586Z" fill="#FF3875"/>
<path d="M172.621 17.7948V29.2658C172.621 30.0431 172.796 30.6072 173.148 30.9582C173.525 31.2842 174.153 31.4472 175.031 31.4472H177.668V35.0201H174.278C172.344 35.0201 170.863 34.5688 169.833 33.6662C168.803 32.7635 168.289 31.2967 168.289 29.2658V17.7948H165.84V14.2971H168.289V9.14452H172.621V14.2971H177.668V17.7948H172.621Z" fill="#FF3875"/>
<path d="M183.811 11.5516C183.033 11.5516 182.38 11.2883 181.852 10.7617C181.325 10.2352 181.061 9.5833 181.061 8.80603C181.061 8.02876 181.325 7.37685 181.852 6.85032C182.38 6.32378 183.033 6.06051 183.811 6.06051C184.564 6.06051 185.205 6.32378 185.732 6.85032C186.26 7.37685 186.523 8.02876 186.523 8.80603C186.523 9.5833 186.26 10.2352 185.732 10.7617C185.205 11.2883 184.564 11.5516 183.811 11.5516ZM185.921 14.2971V35.0201H181.626V14.2971H185.921Z" fill="#FF3875"/>
<path d="M200.26 17.7948H196.418V35.0201H192.086V17.7948H189.637V14.2971H192.086V12.8303C192.086 10.4483 192.714 8.71827 193.969 7.64012C195.25 6.5369 197.247 5.98529 199.959 5.98529V9.55823C198.653 9.55823 197.736 9.80896 197.209 10.3104C196.682 10.7868 196.418 11.6268 196.418 12.8303V14.2971H200.26V17.7948Z" fill="#FF3875"/>
<path d="M222.75 14.2971L210.018 44.7611H205.573L209.792 34.6816L201.618 14.2971H206.402L212.24 30.0932L218.305 14.2971H222.75Z" fill="#FF3875"/>
<path d="M44.75 23C44.75 35.2883 34.7883 45.25 22.5 45.25C10.2117 45.25 0.25 35.2883 0.25 23C0.25 10.7117 10.2117 0.75 22.5 0.75C34.7883 0.75 44.75 10.7117 44.75 23Z" fill="url(#paint0_linear_1165_1697)"/>
<path fill-rule="evenodd" clip-rule="evenodd" d="M23.5587 7.19922C14.5487 7.51206 7.34421 14.647 7.34421 23.403C7.34421 32.159 14.5487 39.294 23.5587 39.6068V33.9812C17.7756 33.683 13.1814 29.061 13.1814 23.403C13.1814 17.745 17.7756 13.1229 23.5587 12.8248V7.19922Z" fill="white"/>
<path fill-rule="evenodd" clip-rule="evenodd" d="M16.8573 23.4138C16.8573 27.115 19.8576 30.1155 23.5588 30.1158V16.7118C19.8576 16.7121 16.8573 19.7126 16.8573 23.4138Z" fill="white"/>
<path fill-rule="evenodd" clip-rule="evenodd" d="M23.6104 33.9197C29.4688 33.7019 34.1422 29.0507 34.1282 23.357C34.1142 17.6633 29.4179 13.0352 23.5586 12.8462L23.5676 16.5044C27.3286 16.689 30.3235 19.6872 30.3326 23.3664C30.3416 27.0457 27.3615 30.0586 23.6014 30.2617L23.6104 33.9197Z" fill="white"/>
<mask id="mask0_1165_1697" style="mask-type:alpha" maskUnits="userSpaceOnUse" x="0" y="0" width="45" height="46">
<path d="M44.75 23C44.75 35.2883 34.7883 45.25 22.5 45.25C10.2117 45.25 0.25 35.2883 0.25 23C0.25 10.7117 10.2117 0.75 22.5 0.75C34.7883 0.75 44.75 10.7117 44.75 23Z" fill="url(#paint1_linear_1165_1697)"/>
</mask>
<g mask="url(#mask0_1165_1697)">
<rect x="30.1761" y="30.3268" width="4.0022" height="12.0998" transform="rotate(-54.2257 30.1761 30.3268)" fill="white"/>
</g>
<defs>
<linearGradient id="paint0_linear_1165_1697" x1="5.40942" y1="7.19928" x2="35.0761" y2="40.7355" gradientUnits="userSpaceOnUse">
<stop stop-color="#FF3875"/>
<stop offset="1" stop-color="#FF7359"/>
</linearGradient>
<linearGradient id="paint1_linear_1165_1697" x1="22.5" y1="0.75" x2="22.5" y2="45.25" gradientUnits="userSpaceOnUse">
<stop stop-color="#FF3875"/>
<stop offset="1" stop-color="#FF7558"/>
</linearGradient>
</defs>
</svg>
