<svg width="14" height="14" viewBox="0 0 14 14" fill="none" xmlns="http://www.w3.org/2000/svg">
<path d="M13.0002 12.3334H1.66683V11H3.66683C3.84364 11 4.01321 10.9298 4.13823 10.8048C4.26326 10.6798 4.3335 10.5102 4.3335 10.3334C4.3335 10.1566 4.26326 9.98699 4.13823 9.86197C4.01321 9.73695 3.84364 9.66671 3.66683 9.66671H1.66683V8.33337H6.3335C6.51031 8.33337 6.67988 8.26314 6.8049 8.13811C6.92992 8.01309 7.00016 7.84352 7.00016 7.66671C7.00016 7.4899 6.92992 7.32033 6.8049 7.1953C6.67988 7.07028 6.51031 7.00004 6.3335 7.00004H1.66683V5.66671H9.00016C9.17697 5.66671 9.34654 5.59647 9.47157 5.47145C9.59659 5.34642 9.66683 5.17685 9.66683 5.00004C9.66683 4.82323 9.59659 4.65366 9.47157 4.52864C9.34654 4.40361 9.17697 4.33337 9.00016 4.33337H1.66683V3.00004H11.6668C11.8436 3.00004 12.0132 2.9298 12.1382 2.80478C12.2633 2.67975 12.3335 2.51019 12.3335 2.33337C12.3335 2.15656 12.2633 1.98699 12.1382 1.86197C12.0132 1.73695 11.8436 1.66671 11.6668 1.66671H1.66683V1.00004C1.66683 0.82323 1.59659 0.65366 1.47157 0.528636C1.34654 0.403612 1.17697 0.333374 1.00016 0.333374C0.823352 0.333374 0.653782 0.403612 0.528758 0.528636C0.403734 0.65366 0.333496 0.82323 0.333496 1.00004V13C0.333496 13.1769 0.403734 13.3464 0.528758 13.4714C0.653782 13.5965 0.823352 13.6667 1.00016 13.6667H13.0002C13.177 13.6667 13.3465 13.5965 13.4716 13.4714C13.5966 13.3464 13.6668 13.1769 13.6668 13C13.6668 12.8232 13.5966 12.6537 13.4716 12.5286C13.3465 12.4036 13.177 12.3334 13.0002 12.3334Z" fill="#303742"/>
</svg>
