<svg width="14" height="14" viewBox="0 0 14 14" fill="none" xmlns="http://www.w3.org/2000/svg">
<path d="M13.2222 12.3334H1.88888V11H3.88888C4.06569 11 4.23526 10.9298 4.36028 10.8048C4.4853 10.6798 4.55554 10.5102 4.55554 10.3334C4.55554 10.1566 4.4853 9.98699 4.36028 9.86197C4.23526 9.73695 4.06569 9.66671 3.88888 9.66671H1.88888V8.33337H6.55554C6.73235 8.33337 6.90192 8.26314 7.02695 8.13811C7.15197 8.01309 7.22221 7.84352 7.22221 7.66671C7.22221 7.4899 7.15197 7.32033 7.02695 7.1953C6.90192 7.07028 6.73235 7.00004 6.55554 7.00004H1.88888V5.66671H9.22221C9.39902 5.66671 9.56859 5.59647 9.69361 5.47145C9.81864 5.34642 9.88888 5.17685 9.88888 5.00004C9.88888 4.82323 9.81864 4.65366 9.69361 4.52864C9.56859 4.40361 9.39902 4.33337 9.22221 4.33337H1.88888V3.00004H11.8889C12.0657 3.00004 12.2353 2.9298 12.3603 2.80478C12.4853 2.67975 12.5555 2.51019 12.5555 2.33337C12.5555 2.15656 12.4853 1.98699 12.3603 1.86197C12.2353 1.73695 12.0657 1.66671 11.8889 1.66671H1.88888V1.00004C1.88888 0.82323 1.81864 0.65366 1.69361 0.528636C1.56859 0.403612 1.39902 0.333374 1.22221 0.333374C1.0454 0.333374 0.875828 0.403612 0.750804 0.528636C0.62578 0.65366 0.555542 0.82323 0.555542 1.00004V13C0.555542 13.1769 0.62578 13.3464 0.750804 13.4714C0.875828 13.5965 1.0454 13.6667 1.22221 13.6667H13.2222C13.399 13.6667 13.5686 13.5965 13.6936 13.4714C13.8186 13.3464 13.8889 13.1769 13.8889 13C13.8889 12.8232 13.8186 12.6537 13.6936 12.5286C13.5686 12.4036 13.399 12.3334 13.2222 12.3334Z" fill="#303742"/>
</svg>
