<svg width="14" height="14" viewBox="0 0 14 14" fill="none" xmlns="http://www.w3.org/2000/svg">
<path d="M3.46474 5.96486C3.95919 5.96486 4.44254 5.81824 4.85366 5.54354C5.26479 5.26883 5.58522 4.87838 5.77444 4.42157C5.96366 3.96475 6.01316 3.46209 5.9167 2.97713C5.82024 2.49218 5.58214 2.04673 5.23251 1.69709C4.88287 1.34746 4.43742 1.10936 3.95246 1.0129C3.46751 0.916434 2.96485 0.965943 2.50803 1.15516C2.05122 1.34438 1.66077 1.66481 1.38606 2.07594C1.11136 2.48706 0.964739 2.97041 0.964739 3.46486C0.965463 4.12768 1.22909 4.76314 1.69777 5.23183C2.16646 5.70051 2.80192 5.96414 3.46474 5.96486ZM3.46474 2.63153C3.62956 2.63153 3.79067 2.6804 3.92771 2.77197C4.06475 2.86354 4.17157 2.99369 4.23464 3.14596C4.29771 3.29823 4.31421 3.46579 4.28206 3.62744C4.24991 3.78909 4.17054 3.93757 4.05399 4.05412C3.93745 4.17066 3.78896 4.25003 3.62731 4.28218C3.46566 4.31434 3.29811 4.29783 3.14584 4.23476C2.99356 4.17169 2.86342 4.06488 2.77185 3.92784C2.68028 3.79079 2.63141 3.62968 2.63141 3.46486C2.63155 3.24389 2.7194 3.03202 2.87565 2.87577C3.03189 2.71952 3.24377 2.63168 3.46474 2.63153ZM10.5351 8.03518C10.0406 8.03518 9.55725 8.1818 9.14613 8.4565C8.73501 8.73121 8.41457 9.12165 8.22536 9.57847C8.03614 10.0353 7.98663 10.538 8.08309 11.0229C8.17955 11.5079 8.41766 11.9533 8.76729 12.3029C9.11692 12.6526 9.56238 12.8907 10.0473 12.9871C10.5323 13.0836 11.0349 13.0341 11.4918 12.8449C11.9486 12.6557 12.339 12.3352 12.6137 11.9241C12.8884 11.513 13.0351 11.0296 13.0351 10.5352C13.0343 9.87236 12.7707 9.23689 12.302 8.76821C11.8333 8.29953 11.1979 8.0359 10.5351 8.03518ZM10.5351 11.3685C10.3702 11.3685 10.2091 11.3196 10.0721 11.2281C9.93504 11.1365 9.82823 11.0064 9.76515 10.8541C9.70208 10.7018 9.68558 10.5343 9.71773 10.3726C9.74989 10.211 9.82926 10.0625 9.9458 9.94592C10.0623 9.82938 10.2108 9.75001 10.3725 9.71786C10.5341 9.6857 10.7017 9.70221 10.854 9.76528C11.0062 9.82835 11.1364 9.93516 11.2279 10.0722C11.3195 10.2092 11.3684 10.3704 11.3684 10.5352C11.3682 10.7561 11.2804 10.968 11.1241 11.1243C10.9679 11.2805 10.756 11.3684 10.5351 11.3685ZM13.4224 0.577519C13.345 0.500118 13.2532 0.438718 13.1521 0.396827C13.051 0.354935 12.9426 0.333374 12.8332 0.333374C12.7238 0.333374 12.6154 0.354935 12.5143 0.396827C12.4132 0.438718 12.3214 0.500118 12.244 0.577519L0.577348 12.2442C0.499176 12.3214 0.437043 12.4133 0.394523 12.5146C0.352004 12.6159 0.329937 12.7246 0.329594 12.8345C0.329251 12.9443 0.350637 13.0532 0.392523 13.1547C0.434408 13.2563 0.495966 13.3486 0.573653 13.4263C0.651341 13.5039 0.743623 13.5655 0.845191 13.6074C0.946759 13.6493 1.05561 13.6706 1.16547 13.6703C1.27533 13.6699 1.38404 13.6479 1.48535 13.6054C1.58665 13.5628 1.67854 13.5007 1.75573 13.4225L13.4224 1.75585C13.4998 1.67849 13.5612 1.58665 13.6031 1.48556C13.645 1.38446 13.6665 1.27611 13.6665 1.16669C13.6665 1.05726 13.645 0.948907 13.6031 0.847816C13.5612 0.746725 13.4998 0.654877 13.4224 0.577519Z" fill="#303742"/>
</svg>
